<svg width="600" height="400" viewBox="0 0 600 400" fill="none" xmlns="http://www.w3.org/2000/svg">
<rect width="600" height="400" fill="#F5F5F5"/>
<g id="medal">
<rect width="600" height="400" fill="#1A1A1A"/>
<rect id="$backgroud" width="600" height="400" fill="#1A1A1A"/>
<rect id="$panel_part1" width="600" height="180" fill="#262626"/>
<rect id="$medal_pic" x="40" y="40" width="110" height="120" fill="#C4C4C4"/>
<text id="$name" fill="white" xml:space="preserve" style="white-space: pre" font-family="Noto Sans" font-size="40" letter-spacing="0em"><tspan x="198" y="82.52">Jackpot</tspan></text>
<text id="$description" fill="white" xml:space="preserve" style="white-space: pre" font-family="Noto Sans" font-size="20" letter-spacing="0em"><tspan x="198" y="117.26">Lucky sevens is a mild understatement.</tspan></text>
<text id="$instructions" fill="white" xml:space="preserve" style="white-space: pre" font-family="Noto Sans" font-size="20" letter-spacing="0em"><tspan x="198" y="141.26">instructions</tspan></text>
<text id="$condition_text" fill="white" xml:space="preserve" style="white-space: pre" font-family="Noto Sans" font-size="30" letter-spacing="0em"><tspan x="40" y="236.14">&#x89e3;&#x9501;&#x6761;&#x4ef6;&#10;</tspan></text>
<rect id="$panel_part2" y="340" width="600" height="60" fill="#262626"/>
<text id="$grouping" fill="white" xml:space="preserve" style="white-space: pre" font-family="Noto Sans" font-size="20" letter-spacing="0em"><tspan x="21" y="379.26">Hush-Hush</tspan></text>
<text id="$rarity" fill="white" xml:space="preserve" style="white-space: pre" font-family="Noto Sans" font-size="20" letter-spacing="0em"><tspan x="526" y="380.26">0.00%</tspan></text>
<text id="$rarity_text" fill="white" xml:space="preserve" style="white-space: pre" font-family="Noto Sans" font-size="20" letter-spacing="0em"><tspan x="456" y="380.26">&#x7a00;&#x6709;&#x5ea6;: </tspan></text>
<text id="$solution" fill="white" xml:space="preserve" style="white-space: pre" font-family="Noto Sans" font-size="20" letter-spacing="0em"><tspan x="40" y="274.26">Complete a map with a score above 100,000</tspan></text>
<text id="$solution_italic" fill="white" xml:space="preserve" style="white-space: pre" font-family="Noto Sans" font-size="18" font-style="italic" letter-spacing="0em"><tspan x="40" y="296.484">Complete a map with a score above 100,000</tspan></text>
<g id="$group_restriction">
<g id="$taiko_only">
<rect id="Rectangle 400" x="170" y="202" width="153" height="40" rx="10" fill="#40BAFF" fill-opacity="0.74"/>
<g id="Frame" clip-path="url(#clip0_0_1)">
<g id="Group">
<path id="Vector" d="M193 211.787C187.362 211.787 182.787 216.363 182.787 222C182.787 227.637 187.362 232.213 193 232.213C198.637 232.213 203.213 227.637 203.213 222C203.213 216.363 198.637 211.787 193 211.787ZM186.191 222C186.191 218.834 188.363 216.165 191.298 215.409V228.597C188.363 227.835 186.191 225.166 186.191 222ZM194.702 228.591V215.409C197.636 216.165 199.808 218.834 199.808 222C199.808 225.166 197.636 227.835 194.702 228.591Z" fill="white"/>
</g>
<g id="Group_2">
<path id="Vector_2" d="M193 208.723C200.333 208.723 206.277 214.667 206.277 222C206.277 229.333 200.333 235.277 193 235.277C185.667 235.277 179.723 229.333 179.723 222C179.723 214.667 185.667 208.723 193 208.723ZM193 206C190.842 206 188.745 206.422 186.77 207.26C184.864 208.063 183.155 209.22 181.684 210.684C180.214 212.155 179.063 213.864 178.26 215.77C177.422 217.745 177 219.842 177 222C177 224.158 177.422 226.255 178.26 228.23C179.063 230.136 180.22 231.845 181.684 233.316C183.155 234.786 184.864 235.937 186.77 236.74C188.745 237.578 190.842 238 193 238C195.158 238 197.255 237.578 199.23 236.74C201.136 235.937 202.845 234.78 204.316 233.316C205.786 231.845 206.937 230.136 207.74 228.23C208.578 226.255 209 224.158 209 222C209 219.842 208.578 217.745 207.74 215.77C206.937 213.864 205.78 212.155 204.316 210.684C202.845 209.214 201.136 208.063 199.23 207.26C197.255 206.422 195.158 206 193 206Z" fill="white"/>
</g>
</g>
<text id="taiko only" fill="white" xml:space="preserve" style="white-space: pre" font-family="Noto Sans" font-size="20" letter-spacing="0em"><tspan x="219" y="228.26">taiko only</tspan></text>
</g>
<g id="$mania_only">
<rect id="Rectangle 400_2" x="170" y="202" width="167" height="40" rx="10" fill="#40BAFF" fill-opacity="0.74"/>
<g id="Frame_2" clip-path="url(#clip1_0_1)">
<g id="Group_3">
<path id="Vector_3" d="M193 232.281C192.06 232.281 191.298 231.518 191.298 230.579V213.421C191.298 212.482 192.06 211.719 193 211.719C193.94 211.719 194.702 212.482 194.702 213.421V230.579C194.702 231.518 193.94 232.281 193 232.281Z" fill="white"/>
</g>
<g id="Group_4">
<path id="Vector_4" d="M187.553 227.447C186.614 227.447 185.851 226.684 185.851 225.745V218.255C185.851 217.316 186.614 216.553 187.553 216.553C188.493 216.553 189.255 217.316 189.255 218.255V225.745C189.255 226.684 188.493 227.447 187.553 227.447Z" fill="white"/>
</g>
<g id="Group_5">
<path id="Vector_5" d="M198.447 227.447C197.507 227.447 196.745 226.684 196.745 225.745V218.255C196.745 217.316 197.507 216.553 198.447 216.553C199.386 216.553 200.149 217.316 200.149 218.255V225.745C200.149 226.684 199.386 227.447 198.447 227.447Z" fill="white"/>
</g>
<g id="Group_6">
<path id="Vector_6" d="M193 208.723C200.333 208.723 206.277 214.667 206.277 222C206.277 229.333 200.333 235.277 193 235.277C185.667 235.277 179.723 229.333 179.723 222C179.723 214.667 185.667 208.723 193 208.723ZM193 206C190.842 206 188.745 206.422 186.77 207.26C184.864 208.063 183.155 209.22 181.684 210.684C180.214 212.155 179.063 213.864 178.26 215.77C177.422 217.745 177 219.842 177 222C177 224.158 177.422 226.255 178.26 228.23C179.063 230.136 180.22 231.845 181.684 233.316C183.155 234.786 184.864 235.937 186.77 236.74C188.745 237.578 190.842 238 193 238C195.158 238 197.255 237.578 199.23 236.74C201.136 235.937 202.845 234.78 204.316 233.316C205.786 231.845 206.937 230.136 207.74 228.23C208.578 226.255 209 224.158 209 222C209 219.842 208.578 217.745 207.74 215.77C206.937 213.864 205.78 212.155 204.316 210.684C202.845 209.214 201.136 208.063 199.23 207.26C197.255 206.422 195.158 206 193 206Z" fill="white"/>
</g>
</g>
<text id="mania only" fill="white" xml:space="preserve" style="white-space: pre" font-family="Noto Sans" font-size="20" letter-spacing="0em"><tspan x="219" y="228.26">mania only</tspan></text>
</g>
<g id="$standard_only">
<rect id="Rectangle 400_3" x="170" y="202" width="193" height="40" rx="10" fill="#40BAFF" fill-opacity="0.74"/>
<g id="Frame_3" clip-path="url(#clip2_0_1)">
<g id="Group_7">
<path id="Vector_7" d="M193 230.851C197.888 230.851 201.851 226.888 201.851 222C201.851 217.112 197.888 213.149 193 213.149C188.112 213.149 184.149 217.112 184.149 222C184.149 226.888 188.112 230.851 193 230.851Z" fill="white"/>
<path id="Vector_8" d="M193 214.511C195.002 214.511 196.881 215.287 198.297 216.703C199.713 218.119 200.489 219.998 200.489 222C200.489 224.002 199.713 225.881 198.297 227.297C196.881 228.713 195.002 229.489 193 229.489C190.998 229.489 189.119 228.713 187.703 227.297C186.287 225.881 185.511 224.002 185.511 222C185.511 219.998 186.287 218.119 187.703 216.703C189.119 215.287 190.998 214.511 193 214.511ZM193 211.787C187.362 211.787 182.787 216.363 182.787 222C182.787 227.637 187.362 232.213 193 232.213C198.637 232.213 203.213 227.637 203.213 222C203.213 216.363 198.637 211.787 193 211.787Z" fill="white"/>
</g>
<g id="Group_8">
<path id="Vector_9" d="M193 208.723C200.333 208.723 206.277 214.667 206.277 222C206.277 229.333 200.333 235.277 193 235.277C185.667 235.277 179.723 229.333 179.723 222C179.723 214.667 185.667 208.723 193 208.723ZM193 206C190.842 206 188.745 206.422 186.77 207.26C184.864 208.063 183.155 209.22 181.684 210.684C180.214 212.155 179.063 213.864 178.26 215.77C177.422 217.745 177 219.842 177 222C177 224.158 177.422 226.255 178.26 228.23C179.063 230.136 180.22 231.845 181.684 233.316C183.155 234.786 184.864 235.937 186.77 236.74C188.745 237.578 190.842 238 193 238C195.158 238 197.255 237.578 199.23 236.74C201.136 235.937 202.845 234.78 204.316 233.316C205.786 231.845 206.937 230.136 207.74 228.23C208.578 226.255 209 224.158 209 222C209 219.842 208.578 217.745 207.74 215.77C206.937 213.864 205.78 212.155 204.316 210.684C202.845 209.214 201.136 208.063 199.23 207.26C197.255 206.422 195.158 206 193 206Z" fill="white"/>
</g>
<g id="Frame_4" clip-path="url(#clip3_0_1)">
<g id="Group_9">
<path id="Vector_10" d="M193 208.723C200.333 208.723 206.277 214.667 206.277 222C206.277 229.333 200.333 235.277 193 235.277C185.667 235.277 179.723 229.333 179.723 222C179.723 214.667 185.667 208.723 193 208.723ZM193 206C190.842 206 188.745 206.422 186.77 207.26C184.864 208.063 183.155 209.22 181.684 210.684C180.214 212.155 179.063 213.864 178.26 215.77C177.422 217.745 177 219.842 177 222C177 224.158 177.422 226.255 178.26 228.23C179.063 230.136 180.22 231.845 181.684 233.316C183.155 234.786 184.864 235.937 186.77 236.74C188.745 237.578 190.842 238 193 238C195.158 238 197.255 237.578 199.23 236.74C201.136 235.937 202.845 234.78 204.316 233.316C205.786 231.845 206.937 230.136 207.74 228.23C208.578 226.255 209 224.158 209 222C209 219.842 208.578 217.745 207.74 215.77C206.937 213.864 205.78 212.155 204.316 210.684C202.845 209.214 201.136 208.063 199.23 207.26C197.255 206.422 195.158 206 193 206Z" fill="white"/>
</g>
<g id="Group_10">
<path id="Vector_11" d="M197.003 224.553C198.413 224.553 199.557 223.41 199.557 222C199.557 220.59 198.413 219.447 197.003 219.447C195.593 219.447 194.45 220.59 194.45 222C194.45 223.41 195.593 224.553 197.003 224.553Z" fill="white"/>
<path id="Vector_12" d="M191.046 219.365C192.456 219.365 193.599 218.222 193.599 216.812C193.599 215.402 192.456 214.259 191.046 214.259C189.636 214.259 188.493 215.402 188.493 216.812C188.493 218.222 189.636 219.365 191.046 219.365Z" fill="white"/>
<path id="Vector_13" d="M191.046 229.748C192.456 229.748 193.599 228.605 193.599 227.195C193.599 225.785 192.456 224.642 191.046 224.642C189.636 224.642 188.493 225.785 188.493 227.195C188.493 228.605 189.636 229.748 191.046 229.748Z" fill="white"/>
</g>
</g>
</g>
<text id="standard only" fill="white" xml:space="preserve" style="white-space: pre" font-family="Noto Sans" font-size="20" letter-spacing="0em"><tspan x="219" y="228.26">standard only</tspan></text>
</g>
<g id="$fruits_only">
<rect id="Rectangle 400_4" x="170" y="202" width="156" height="40" rx="10" fill="#40BAFF" fill-opacity="0.74"/>
<g id="Frame_5" clip-path="url(#clip4_0_1)">
<g id="Group_11">
<path id="Vector_14" d="M193 208.723C200.333 208.723 206.277 214.667 206.277 222C206.277 229.333 200.333 235.277 193 235.277C185.667 235.277 179.723 229.333 179.723 222C179.723 214.667 185.667 208.723 193 208.723ZM193 206C190.842 206 188.745 206.422 186.77 207.26C184.864 208.063 183.155 209.22 181.684 210.684C180.214 212.155 179.063 213.864 178.26 215.77C177.422 217.745 177 219.842 177 222C177 224.158 177.422 226.255 178.26 228.23C179.063 230.136 180.22 231.845 181.684 233.316C183.155 234.786 184.864 235.937 186.77 236.74C188.745 237.578 190.842 238 193 238C195.158 238 197.255 237.578 199.23 236.74C201.136 235.937 202.845 234.78 204.316 233.316C205.786 231.845 206.937 230.136 207.74 228.23C208.578 226.255 209 224.158 209 222C209 219.842 208.578 217.745 207.74 215.77C206.937 213.864 205.78 212.155 204.316 210.684C202.845 209.214 201.136 208.063 199.23 207.26C197.255 206.422 195.158 206 193 206Z" fill="white"/>
</g>
<g id="Group_12">
<path id="Vector_15" d="M197.003 224.553C198.413 224.553 199.557 223.41 199.557 222C199.557 220.59 198.413 219.447 197.003 219.447C195.593 219.447 194.45 220.59 194.45 222C194.45 223.41 195.593 224.553 197.003 224.553Z" fill="white"/>
<path id="Vector_16" d="M191.046 219.365C192.456 219.365 193.599 218.222 193.599 216.812C193.599 215.402 192.456 214.259 191.046 214.259C189.636 214.259 188.493 215.402 188.493 216.812C188.493 218.222 189.636 219.365 191.046 219.365Z" fill="white"/>
<path id="Vector_17" d="M191.046 229.748C192.456 229.748 193.599 228.605 193.599 227.195C193.599 225.785 192.456 224.642 191.046 224.642C189.636 224.642 188.493 225.785 188.493 227.195C188.493 228.605 189.636 229.748 191.046 229.748Z" fill="white"/>
</g>
</g>
<text id="fruits only" fill="white" xml:space="preserve" style="white-space: pre" font-family="Noto Sans" font-size="20" letter-spacing="0em"><tspan x="219" y="228.26">fruits only</tspan></text>
</g>
</g>
<text id="$mods" fill="white" xml:space="preserve" style="white-space: pre" font-family="Noto Sans" font-size="20" font-weight="bold" letter-spacing="0em"><tspan x="200" y="169.26">HD,DT</tspan></text>
</g>
<defs>
<clipPath id="clip0_0_1">
<rect width="32" height="32" fill="white" transform="translate(177 206)"/>
</clipPath>
<clipPath id="clip1_0_1">
<rect width="32" height="32" fill="white" transform="translate(177 206)"/>
</clipPath>
<clipPath id="clip2_0_1">
<rect width="32" height="32" fill="white" transform="translate(177 206)"/>
</clipPath>
<clipPath id="clip3_0_1">
<rect width="32" height="32" fill="white" transform="translate(177 206)"/>
</clipPath>
<clipPath id="clip4_0_1">
<rect width="32" height="32" fill="white" transform="translate(177 206)"/>
</clipPath>
</defs>
</svg>
