<svg width="70" height="30" viewBox="0 0 70 30" fill="none" xmlns="http://www.w3.org/2000/svg">
<rect width="70" height="30" rx="15" fill="#DBB985"/>
<path d="M23.358 23H21.5114L26.8523 8.45455H28.6705L34.0114 23H32.1648L27.8182 10.7557H27.7045L23.358 23ZM24.0398 17.3182H31.483V18.8807H24.0398V17.3182ZM36.277 23V8.45455H41.1918C42.3329 8.45455 43.2656 8.66051 43.9901 9.07244C44.7192 9.47964 45.259 10.0312 45.6094 10.7273C45.9598 11.4233 46.1349 12.1998 46.1349 13.0568C46.1349 13.9138 45.9598 14.6927 45.6094 15.3935C45.2637 16.0942 44.7287 16.6529 44.0043 17.0696C43.2798 17.4815 42.3518 17.6875 41.2202 17.6875H37.6974V16.125H41.1634C41.9446 16.125 42.572 15.9901 43.0455 15.7202C43.5189 15.4503 43.8622 15.0857 44.0753 14.6264C44.2931 14.1624 44.402 13.6392 44.402 13.0568C44.402 12.4744 44.2931 11.9536 44.0753 11.4943C43.8622 11.035 43.5166 10.6752 43.0384 10.4148C42.5601 10.1496 41.9257 10.017 41.1349 10.017H38.0384V23H36.277Z" fill="white"/>
</svg>
