<svg width="72" height="31" viewBox="0 0 72 31" fill="none" xmlns="http://www.w3.org/2000/svg">
<path d="M22.4201 0.339895H11.9201C10.7163 0.335269 9.53165 0.641255 8.48062 1.22808C7.42959 1.8149 6.54774 2.66283 5.92007 3.68999L1.02994 11.69C0.354429 12.7913 -0.00302124 14.0582 -0.00302124 15.3501C-0.00302124 16.6421 0.354429 17.9085 1.02994 19.0098L5.92007 27.0098C6.54774 28.037 7.42959 28.8854 8.48062 29.4722C9.53165 30.059 10.7163 30.3645 11.9201 30.3599H22.4201C23.6238 30.3645 24.8083 30.059 25.8593 29.4722C26.9103 28.8854 27.7924 28.037 28.4201 27.0098L33.3 19.0098C33.9755 17.9085 34.3332 16.6421 34.3332 15.3501C34.3332 14.0582 33.9755 12.7913 33.3 11.69L28.4201 3.68999C27.7924 2.66283 26.9103 1.8149 25.8593 1.22808C24.8083 0.641255 23.6238 0.335269 22.4201 0.339895Z" fill="#0072FF"/>
<path d="M36.51 0.349976H18.15L8.97 15.35L18.15 30.35H36.51L45.7 15.35L36.51 0.349976Z" fill="#0072FF"/>
<path d="M43.09 0.349976H24.73L15.55 15.35L24.73 30.35H43.09L52.27 15.35L43.09 0.349976Z" fill="#0072FF"/>
<path d="M56.37 0.349976H38.01L28.83 15.35L38.01 30.35H56.37L65.55 15.35L56.37 0.349976Z" fill="#0072FF"/>
<path d="M59.2101 0.319824H49.3099C48.0178 0.322759 46.7479 0.656262 45.6207 1.28809C44.4936 1.91991 43.5467 2.82943 42.87 3.93018L38.3099 11.4302C37.5886 12.6178 37.2072 13.9806 37.2072 15.3701C37.2072 16.7596 37.5886 18.1224 38.3099 19.3101L42.87 26.7598C43.5467 27.8605 44.4936 28.77 45.6207 29.4019C46.7479 30.0337 48.0178 30.3672 49.3099 30.3701H59.2101C60.5028 30.37 61.7736 30.0379 62.9012 29.4058C64.0289 28.7737 64.9754 27.8625 65.65 26.7598L70.2101 19.3101C70.9357 18.124 71.3195 16.7606 71.3195 15.3701C71.3195 13.9797 70.9357 12.6163 70.2101 11.4302L65.65 3.97998C64.9823 2.86731 64.0387 1.94587 62.9105 1.30469C61.7823 0.663509 60.5077 0.324144 59.2101 0.319824Z" fill="#0072FF"/>
<path d="M41.051 8.71995C41.2916 8.71995 41.5006 8.78962 41.678 8.92896C41.868 9.06829 41.9946 9.25196 42.058 9.47996L45.858 21.83H42.894L40.215 12.197C40.1643 11.9816 40.1136 11.7663 40.063 11.551C40.0123 11.323 39.968 11.1076 39.93 10.905H39.417C39.379 11.1076 39.3346 11.323 39.284 11.551C39.246 11.7663 39.1953 11.9816 39.132 12.197L36.453 21.83H33.47L37.289 9.47996C37.3523 9.25196 37.4726 9.06829 37.65 8.92896C37.84 8.78962 38.0553 8.71995 38.296 8.71995H41.051ZM43.065 16.187V18.372H36.263V16.187H43.065ZM52.2291 8.52996C53.4577 8.52996 54.4204 8.65662 55.1171 8.90996C55.8137 9.16329 56.3077 9.60029 56.5991 10.221C56.9031 10.8416 57.0551 11.7093 57.0551 12.824C57.0551 13.9386 56.9094 14.8063 56.6181 15.427C56.3394 16.0476 55.8771 16.4846 55.2311 16.738C54.5851 16.9786 53.7111 17.099 52.6091 17.099C52.0264 17.099 51.4564 17.0736 50.8991 17.023C50.3417 16.9723 49.8224 16.909 49.3411 16.833C48.8597 16.757 48.4481 16.681 48.1061 16.605C47.7641 16.5163 47.5297 16.434 47.4031 16.358L47.4601 14.914C48.2074 14.914 48.9801 14.914 49.7781 14.914C50.5887 14.914 51.3867 14.914 52.1721 14.914C52.6787 14.9013 53.0714 14.838 53.3501 14.724C53.6414 14.61 53.8441 14.401 53.9581 14.097C54.0847 13.793 54.1481 13.3686 54.1481 12.824C54.1481 12.2666 54.0847 11.836 53.9581 11.532C53.8441 11.228 53.6414 11.019 53.3501 10.905C53.0714 10.7783 52.6787 10.715 52.1721 10.715C51.0067 10.715 50.0061 10.7213 49.1701 10.734C48.3341 10.7466 47.7704 10.772 47.4791 10.81L47.1941 8.71995C47.7261 8.65662 48.2264 8.61229 48.6951 8.58696C49.1637 8.56162 49.6704 8.54895 50.2151 8.54895C50.7724 8.53629 51.4437 8.52996 52.2291 8.52996ZM50.1011 8.71995V21.83H47.1941V8.71995H50.1011Z" fill="white"/>
<path d="M21.2299 21.3198L21.9401 20.6098L20.9401 13.9301L23.0199 11.8501C23.3933 11.4703 23.6651 11.0027 23.81 10.4902C23.8473 10.3598 23.8491 10.2216 23.8151 10.0903C23.7811 9.95896 23.7128 9.83903 23.6169 9.74312C23.5209 9.6472 23.401 9.57884 23.2697 9.54487C23.1384 9.51091 23.0004 9.51238 22.87 9.54976C22.3575 9.69466 21.8897 9.9664 21.5099 10.3398L19.4301 12.4199L12.7499 11.4199L12.0399 12.1298L17.2201 14.6601L14.6501 17.2202L12.1801 16.6001L11.6901 17.0898L14.0199 18.5498L13.2101 20.0698C13.2058 20.0837 13.2054 20.0986 13.2089 20.1127C13.2124 20.1269 13.2196 20.1396 13.2299 20.1499C13.2402 20.1601 13.2531 20.1678 13.2672 20.1713C13.2814 20.1748 13.2961 20.1742 13.31 20.1699L14.83 19.3598L16.2899 21.6899L16.7799 21.2001L16.1601 18.7299L18.7201 16.1601L21.2299 21.3198Z" fill="white"/>
</svg>
