<svg width="72" height="31" viewBox="0 0 72 31" fill="none" xmlns="http://www.w3.org/2000/svg">
<path d="M22.67 0.850149H12.17C10.9663 0.845523 9.78162 1.15126 8.73059 1.73809C7.67956 2.32491 6.79771 3.17284 6.17004 4.2L1.27991 12.2C0.604398 13.3013 0.246948 14.5682 0.246948 15.8602C0.246948 17.1521 0.604398 18.4188 1.27991 19.5201L6.17004 27.5201C6.79771 28.5472 7.67956 29.3952 8.73059 29.982C9.78162 30.5688 10.9663 30.8748 12.17 30.8702H22.67C23.8738 30.8748 25.0582 30.5688 26.1093 29.982C27.1603 29.3952 28.0424 28.5472 28.67 27.5201L33.5499 19.5201C34.2254 18.4188 34.5831 17.1521 34.5831 15.8602C34.5831 14.5682 34.2254 13.3013 33.5499 12.2L28.67 4.2C28.0424 3.17284 27.1603 2.32491 26.1093 1.73809C25.0582 1.15126 23.8738 0.845523 22.67 0.850149Z" fill="#3D239E"/>
<path d="M36.75 0.859985H18.39L9.21997 15.86L18.39 30.86H36.75L45.94 15.86L36.75 0.859985Z" fill="#3D239E"/>
<path d="M43.33 0.859985H24.97L15.8 15.86L24.97 30.86H43.33L52.51 15.86L43.33 0.859985Z" fill="#3D239E"/>
<path d="M56.62 0.859985H38.25L29.08 15.86L38.25 30.86H56.62L65.79 15.86L56.62 0.859985Z" fill="#3D239E"/>
<path d="M59.4601 0.830078H49.5599C48.2676 0.832061 46.9973 1.16472 45.87 1.79663C44.7427 2.42855 43.796 3.33854 43.12 4.43994L38.5599 11.9399C37.8343 13.126 37.4503 14.4894 37.4503 15.8799C37.4503 17.2703 37.8343 18.634 38.5599 19.8201L43.12 27.27C43.7946 28.3727 44.7409 29.2837 45.8685 29.9158C46.9961 30.5479 48.2672 30.8798 49.5599 30.8799H59.4601C60.7532 30.8817 62.0248 30.5507 63.1527 29.9185C64.2807 29.2862 65.2269 28.3741 65.9 27.27L70.4601 19.8201C71.1857 18.634 71.5695 17.2703 71.5695 15.8799C71.5695 14.4894 71.1857 13.126 70.4601 11.9399L65.9 4.48999C65.2315 3.37798 64.2878 2.457 63.1598 1.81592C62.0318 1.17483 60.7575 0.835366 59.4601 0.830078Z" fill="#3D239E"/>
<path d="M16.59 22.4299C16.6815 22.4155 16.775 22.438 16.85 22.4924C16.925 22.5467 16.9751 22.6285 16.9899 22.7199C16.9984 22.7654 16.9978 22.812 16.9877 22.8571C16.9776 22.9022 16.9582 22.9449 16.9311 22.9824C16.9039 23.0198 16.8695 23.0512 16.8297 23.0749C16.79 23.0985 16.746 23.1141 16.7001 23.1201C16.6642 23.1303 16.6259 23.1303 16.59 23.1201C15.1947 23.1183 13.8275 22.7267 12.6427 21.9897C11.458 21.2526 10.5026 20.1993 9.88443 18.9484C9.26622 17.6975 9.00982 16.299 9.14395 14.9101C9.27807 13.5212 9.7973 12.1973 10.6435 11.0878C11.4896 9.97835 12.6291 9.12726 13.933 8.63055C15.2369 8.13384 16.6535 8.01122 18.0233 8.27655C19.3932 8.54187 20.6618 9.18463 21.6859 10.1323C22.7101 11.0799 23.4493 12.2947 23.82 13.6398H25.0299C25.2148 13.645 25.3903 13.7223 25.5192 13.8549C25.648 13.9875 25.7202 14.1651 25.7201 14.35C25.7201 14.4938 25.6745 14.6337 25.59 14.7499L24.0299 16.82C23.9764 16.8984 23.9072 16.9647 23.8268 17.0151C23.7464 17.0655 23.6565 17.0989 23.5626 17.113C23.4688 17.1271 23.3731 17.1217 23.2814 17.0971C23.1897 17.0725 23.1041 17.0291 23.0299 16.9699C22.9758 16.9274 22.9287 16.8769 22.89 16.82L21.36 14.82C21.2959 14.7516 21.2466 14.6706 21.2147 14.5825C21.1829 14.4943 21.1693 14.4006 21.175 14.3071C21.1806 14.2135 21.2051 14.122 21.2472 14.0383C21.2894 13.9545 21.3483 13.8803 21.4201 13.82C21.5499 13.7118 21.7112 13.6484 21.88 13.6398H23.06C22.69 12.4394 21.9943 11.3654 21.0502 10.5368C20.1061 9.70821 18.9508 9.15759 17.7126 8.94647C16.4743 8.73535 15.2016 8.87181 14.0363 9.34076C12.871 9.80971 11.8586 10.5927 11.1117 11.6027C10.3649 12.6127 9.91279 13.8101 9.80581 15.0617C9.69884 16.3133 9.94114 17.57 10.5058 18.6921C11.0704 19.8141 11.9352 20.7575 13.0041 21.4174C14.0729 22.0773 15.3038 22.4278 16.56 22.4299H16.59ZM20.88 16.05H18.08V15.2099H20.88V16.05ZM17.0199 10.32V14.1498H16.1701V10.32H17.0199ZM16.59 14.6298C16.8552 14.6298 17.1095 14.7353 17.297 14.9228C17.4846 15.1103 17.59 15.3646 17.59 15.6298C17.59 15.895 17.4846 16.1496 17.297 16.3371C17.1095 16.5246 16.8552 16.6298 16.59 16.6298C16.3248 16.6298 16.0705 16.5246 15.883 16.3371C15.6954 16.1496 15.59 15.895 15.59 15.6298C15.59 15.3646 15.6954 15.1103 15.883 14.9228C16.0705 14.7353 16.3248 14.6298 16.59 14.6298Z" fill="white"/>
<path d="M21.5081 20.5368L18.9556 23.0894L19.4293 23.5631L21.9818 21.0105L21.5081 20.5368Z" fill="white"/>
<path d="M23.752 20.5429L21.1995 23.0955L21.6732 23.5692L24.2257 21.0166L23.752 20.5429Z" fill="white"/>
<path d="M19.4255 18.4772L18.9518 18.9509L21.5045 21.5037L21.9782 21.03L19.4255 18.4772Z" fill="white"/>
<path d="M21.3622 18.2045L20.8885 18.6782L23.4412 21.231L23.9149 20.7572L21.3622 18.2045Z" fill="white"/>
<path d="M39.81 8.80998C40.8486 8.80998 41.7226 8.92398 42.432 9.15198C43.154 9.36732 43.7303 9.72832 44.161 10.235C44.6043 10.7417 44.9273 11.432 45.13 12.306C45.3326 13.1673 45.434 14.2503 45.434 15.555C45.434 16.8597 45.3326 17.949 45.13 18.823C44.9273 19.6843 44.6043 20.3683 44.161 20.875C43.7303 21.3817 43.154 21.749 42.432 21.977C41.7226 22.1923 40.8486 22.3 39.81 22.3C38.8093 22.3 37.891 22.281 37.055 22.243C36.219 22.205 35.421 22.1607 34.661 22.11L35.877 19.963C36.3583 19.9883 36.9283 20.0137 37.587 20.039C38.2583 20.0517 38.9993 20.058 39.81 20.058C40.456 20.058 40.9626 19.9313 41.33 19.678C41.71 19.412 41.976 18.9497 42.128 18.291C42.2926 17.6323 42.375 16.7203 42.375 15.555C42.375 14.3897 42.2926 13.4777 42.128 12.819C41.976 12.1603 41.71 11.698 41.33 11.432C40.9626 11.166 40.456 11.033 39.81 11.033C39.0373 11.033 38.347 11.0393 37.739 11.052C37.131 11.052 36.5356 11.052 35.953 11.052L34.661 8.99998C35.421 8.94932 36.2126 8.90499 37.036 8.86698C37.872 8.82898 38.7966 8.80998 39.81 8.80998ZM37.568 8.99998V22.11H34.661V8.99998H37.568ZM53.2972 8.99998V22.11H50.3902V8.99998H53.2972ZM57.2492 8.99998V11.28H46.4572V8.99998H57.2492Z" fill="white"/>
</svg>
