<svg width="82" height="42" viewBox="0 0 82 42" fill="none" xmlns="http://www.w3.org/2000/svg">
<g filter="url(#filter0_d_109_75)">
<rect x="6" y="6" width="70" height="30" rx="15" fill="#93ACCE"/>
</g>
<path d="M34.25 29H29.7614V14.4545H34.4489C35.8598 14.4545 37.0672 14.7457 38.071 15.3281C39.0748 15.9058 39.8442 16.7367 40.3793 17.821C40.9143 18.9006 41.1818 20.1932 41.1818 21.6989C41.1818 23.214 40.9119 24.5185 40.3722 25.6122C39.8324 26.7012 39.0464 27.5393 38.0142 28.1264C36.982 28.7088 35.7273 29 34.25 29ZM31.5227 27.4375H34.1364C35.339 27.4375 36.3357 27.2055 37.1264 26.7415C37.9171 26.2775 38.5066 25.617 38.8949 24.7599C39.2831 23.9029 39.4773 22.8826 39.4773 21.6989C39.4773 20.5246 39.2855 19.5137 38.902 18.6662C38.5185 17.8139 37.9455 17.1605 37.1832 16.706C36.4209 16.2467 35.4716 16.017 34.3352 16.017H31.5227V27.4375ZM42.7354 16.017V14.4545H53.6445V16.017H49.0707V29H47.3093V16.017H42.7354Z" fill="white"/>
<defs>
<filter id="filter0_d_109_75" x="0" y="0" width="82" height="42" filterUnits="userSpaceOnUse" color-interpolation-filters="sRGB">
<feFlood flood-opacity="0" result="BackgroundImageFix"/>
<feColorMatrix in="SourceAlpha" type="matrix" values="0 0 0 0 0 0 0 0 0 0 0 0 0 0 0 0 0 0 127 0" result="hardAlpha"/>
<feMorphology radius="2" operator="dilate" in="SourceAlpha" result="effect1_dropShadow_109_75"/>
<feOffset/>
<feGaussianBlur stdDeviation="2"/>
<feComposite in2="hardAlpha" operator="out"/>
<feColorMatrix type="matrix" values="0 0 0 0 0.682353 0 0 0 0 0.796078 0 0 0 0 0.956863 0 0 0 0.25 0"/>
<feBlend mode="normal" in2="BackgroundImageFix" result="effect1_dropShadow_109_75"/>
<feBlend mode="normal" in="SourceGraphic" in2="effect1_dropShadow_109_75" result="shape"/>
</filter>
</defs>
</svg>
