<svg width="72" height="31" viewBox="0 0 72 31" fill="none" xmlns="http://www.w3.org/2000/svg">
<path d="M22.9799 0.270071H12.4799C11.2761 0.265445 10.0917 0.571187 9.04068 1.15801C7.98965 1.74483 7.10755 2.59301 6.47989 3.62017L1.59 11.6202C0.914488 12.7215 0.557037 13.9881 0.557037 15.2801C0.557037 16.572 0.914488 17.8387 1.59 18.94L6.47989 26.94C7.10755 27.9672 7.98965 28.8151 9.04068 29.4019C10.0917 29.9887 11.2761 30.2947 12.4799 30.2901H22.9799C24.1836 30.2947 25.3683 29.9887 26.4193 29.4019C27.4704 28.8151 28.3522 27.9672 28.9799 26.94L33.86 18.94C34.5355 17.8387 34.893 16.572 34.893 15.2801C34.893 13.9881 34.5355 12.7215 33.86 11.6202L28.9799 3.62017C28.3522 2.59301 27.4704 1.74483 26.4193 1.15801C25.3683 0.571187 24.1836 0.265445 22.9799 0.270071Z" fill="#029244"/>
<path d="M37.06 0.280029H18.7L9.53 15.28L18.7 30.28H37.06L46.26 15.28L37.06 0.280029Z" fill="#029244"/>
<path d="M43.65 0.280029H25.29L16.11 15.28L25.29 30.28H43.65L52.83 15.28L43.65 0.280029Z" fill="#029244"/>
<path d="M56.92 0.280029H38.56L29.39 15.28L38.56 30.28H56.92L66.11 15.28L56.92 0.280029Z" fill="#029244"/>
<path d="M59.7699 0.26001H49.85C48.5573 0.26008 47.2862 0.592024 46.1586 1.22412C45.031 1.85622 44.0846 2.7674 43.41 3.87012L38.85 11.3701C38.1244 12.5562 37.7404 13.9196 37.7404 15.3101C37.7404 16.7005 38.1244 18.0639 38.85 19.25L43.41 26.7C44.0861 27.8014 45.0327 28.7113 46.16 29.3433C47.2873 29.9752 48.5577 30.3081 49.85 30.3101H59.7499C61.0426 30.31 62.3137 29.978 63.4413 29.3459C64.5689 28.7139 65.5155 27.8027 66.1901 26.7L70.7499 19.25C71.4755 18.0639 71.8595 16.7005 71.8595 15.3101C71.8595 13.9196 71.4755 12.5562 70.7499 11.3701L66.1901 3.91992C65.5233 2.8108 64.5826 1.89165 63.4584 1.25073C62.3341 0.609813 61.064 0.268723 59.7699 0.26001Z" fill="#029244"/>
<path d="M39.029 8.79296C39.7384 8.79296 40.454 8.79929 41.176 8.81196C41.898 8.81196 42.6074 8.82463 43.304 8.84996C44.0007 8.87529 44.653 8.91963 45.261 8.98296L45.128 11.092H40.093C39.7764 11.092 39.5357 11.1743 39.371 11.339C39.219 11.5036 39.143 11.7443 39.143 12.061V18.749C39.143 19.0656 39.219 19.3063 39.371 19.471C39.5357 19.6356 39.7764 19.718 40.093 19.718H45.128L45.261 21.827C44.653 21.8776 44.0007 21.922 43.304 21.96C42.6074 21.9853 41.898 21.998 41.176 21.998C40.454 22.0106 39.7384 22.017 39.029 22.017C38.193 22.017 37.5154 21.7763 36.996 21.295C36.4894 20.801 36.236 20.1613 36.236 19.376V11.434C36.236 10.636 36.4894 9.99629 36.996 9.51496C37.5154 9.03363 38.193 8.79296 39.029 8.79296ZM36.578 14.113H44.425V16.165H36.578V14.113ZM53.0724 10.997L56.2644 11.016L49.9374 19.813L46.7264 19.794L53.0724 10.997ZM56.4164 19.794V21.96H46.7264V19.794H56.4164ZM56.2644 8.84996V11.016H46.8784V8.84996H56.2644Z" fill="white"/>
<path d="M27.1801 5.37014C26.7195 5.38723 26.2685 5.50665 25.86 5.71999C25.4411 5.88949 25.0713 6.16134 24.7848 6.51076C24.4983 6.86019 24.3043 7.27602 24.2201 7.71999V15.26L21.0099 16.0601V12.3601L17.58 13.22V10C17.94 10.46 18.7901 10.49 19.7001 10C20.7801 9.46002 21.4999 8.42998 21.3099 7.70998C21.1199 6.98998 20.0799 6.84991 18.9999 7.38991C18.5819 7.5592 18.2133 7.83132 17.9284 8.18093C17.6434 8.53054 17.4515 8.94632 17.37 9.38991C17.37 10.6599 17.37 11.9901 17.37 13.3001L13.9301 14.1599V22.3301C13.5701 21.8701 12.7299 21.8401 11.8099 22.3301C10.7299 22.8701 10.0201 23.9001 10.2101 24.6201C10.4001 25.3401 11.4399 25.4299 12.5199 24.8899C12.9374 24.7198 13.3056 24.4476 13.5905 24.0982C13.8753 23.7487 14.0677 23.3332 14.15 22.8899V15.3501L17.37 14.5401V18.24L20.7899 17.3999V20.68C20.4299 20.22 19.5801 20.18 18.6701 20.68C17.5901 21.22 16.87 22.25 17.07 22.97C17.27 23.69 18.29 23.8301 19.37 23.2901C19.7879 23.119 20.1567 22.8465 20.443 22.4973C20.7293 22.1482 20.924 21.7334 21.0099 21.2901C21.0099 20.0301 21.0099 18.6999 21.0099 17.3799L24.4401 16.53V8.36013C24.8001 8.82013 25.6499 8.85013 26.5599 8.36013C27.6399 7.82013 28.3601 6.80009 28.1701 6.07009C28.116 5.85429 27.9865 5.66483 27.8048 5.5364C27.6232 5.40797 27.4015 5.34913 27.1801 5.37014ZM20.7899 13.6101V16.1499L17.58 16.95V14.4199L20.7899 13.6101Z" fill="white"/>
</svg>
