<svg width="73" height="31" viewBox="0 0 73 31" fill="none" xmlns="http://www.w3.org/2000/svg">
<path d="M23.34 0.740332H12.85C11.6462 0.735705 10.4616 1.0412 9.41052 1.62803C8.35949 2.21485 7.47764 3.06278 6.84998 4.08994L1.96008 12.0899C1.28457 13.1912 0.92688 14.4581 0.92688 15.7501C0.92688 17.0421 1.28457 18.309 1.96008 19.4103L6.84998 27.4103C7.47764 28.4374 8.35949 29.2853 9.41052 29.8722C10.4616 30.459 11.6462 30.7645 12.85 30.7599H23.35C24.5537 30.7645 25.7384 30.459 26.7894 29.8722C27.8405 29.2853 28.7223 28.4374 29.35 27.4103L34.2299 19.4103C34.9054 18.309 35.2631 17.0421 35.2631 15.7501C35.2631 14.4581 34.9054 13.1912 34.2299 12.0899L29.35 4.08994C28.7214 3.06132 27.838 2.21249 26.785 1.62559C25.7321 1.03868 24.5454 0.733981 23.34 0.740332Z" fill="black"/>
<path d="M37.43 0.75H19.07L9.89001 15.75L19.07 30.75H37.43L46.62 15.75L37.43 0.75Z" fill="black"/>
<path d="M44.01 0.75H25.65L16.47 15.75L25.65 30.75H44.01L53.19 15.75L44.01 0.75Z" fill="black"/>
<path d="M57.29 0.75H38.93L29.75 15.75L38.93 30.75H57.29L66.47 15.75L57.29 0.75Z" fill="black"/>
<path d="M60.13 0.729988H50.2299C48.9368 0.728133 47.6652 1.05913 46.5372 1.69141C45.4093 2.32369 44.4631 3.23581 43.7899 4.33985L39.2299 11.8399C38.5042 13.026 38.1205 14.3893 38.1205 15.7798C38.1205 17.1702 38.5042 18.5341 39.2299 19.7202L43.7899 27.1699C44.465 28.2714 45.412 29.1811 46.5397 29.8115C47.6674 30.4419 48.9379 30.772 50.2299 30.77H60.13C61.4231 30.7719 62.6949 30.4409 63.8229 29.8086C64.9508 29.1763 65.8968 28.2642 66.5699 27.1602L71.13 19.71C71.8556 18.5239 72.2396 17.1605 72.2396 15.77C72.2396 14.3796 71.8556 13.0162 71.13 11.8301L66.5699 4.39014C65.9029 3.27681 64.9595 2.35466 63.8312 1.71339C62.7028 1.07211 61.4279 0.733337 60.13 0.729988Z" fill="black"/>
<path d="M41.354 10.0229C42.0253 10.0229 42.7093 10.0293 43.406 10.0419C44.1153 10.0419 44.8057 10.0609 45.477 10.0989C46.161 10.1243 46.7943 10.1686 47.377 10.2319L47.225 12.3219H42.475C42.133 12.3219 41.8733 12.4043 41.696 12.5689C41.5187 12.7336 41.43 12.9743 41.43 13.2909V23.1899H38.523V12.7019C38.523 11.8913 38.7827 11.2453 39.302 10.7639C39.8213 10.2699 40.5053 10.0229 41.354 10.0229ZM38.865 15.5709H46.522V17.6229H38.865V15.5709ZM52.0062 10.0799V19.8839C52.0062 20.2006 52.0948 20.4413 52.2722 20.6059C52.4495 20.7706 52.7028 20.8529 53.0322 20.8529H57.6112L57.7442 23.0379C56.8448 23.1393 55.9012 23.1963 54.9132 23.2089C53.9378 23.2343 52.9625 23.2469 51.9872 23.2469C51.0372 23.2469 50.3152 22.9936 49.8212 22.4869C49.3398 21.9676 49.0992 21.3089 49.0992 20.5109V10.0799H52.0062Z" fill="white"/>
<path d="M19.71 14.14H19.02V18.6H19.71V14.14Z" fill="white"/>
<path d="M16.9899 15.2598V17.4902C17.1759 17.8151 17.4415 18.0871 17.7616 18.2812C18.0817 18.4754 18.4459 18.5852 18.8199 18.6001V14.1401C18.4458 14.1597 18.0824 14.2722 17.7628 14.4678C17.4432 14.6634 17.1775 14.9355 16.9899 15.2598Z" fill="white"/>
<path d="M15.44 15.1301V14.79H14.25V15.1301H15.44Z" fill="white"/>
<path d="M14.7 15.33H11.52V17.42L16.78 17.41V15.33H14.7Z" fill="white"/>
<path d="M26.7498 11.3599L20.6299 13.9199C20.6132 13.9252 20.5979 13.9344 20.585 13.9463C20.5721 13.9582 20.5619 13.9726 20.5552 13.9888C20.5485 14.005 20.5456 14.0225 20.5464 14.04C20.5472 14.0575 20.5517 14.0743 20.5598 14.0898C20.5732 14.1219 20.598 14.1478 20.6294 14.1626C20.6608 14.1774 20.6965 14.18 20.7297 14.1699L26.8599 11.6099C26.8741 11.5874 26.8816 11.5617 26.8816 11.5352C26.8816 11.5086 26.8741 11.4824 26.8599 11.46C26.8528 11.4346 26.8388 11.4117 26.8193 11.394C26.7999 11.3764 26.7756 11.3645 26.7498 11.3599Z" fill="white"/>
<path d="M20.7399 18.5798C20.7053 18.5692 20.668 18.5715 20.6349 18.5862C20.6018 18.6009 20.5752 18.6271 20.5599 18.6599C20.5534 18.6757 20.55 18.6927 20.5499 18.7097C20.5499 18.7268 20.5532 18.7433 20.5597 18.759C20.5662 18.7748 20.5757 18.7894 20.5878 18.8015C20.5998 18.8136 20.6142 18.8233 20.63 18.8298L26.7499 21.3899C26.773 21.4022 26.7989 21.4085 26.8251 21.4085C26.8512 21.4085 26.8769 21.4022 26.9 21.3899C26.9137 21.3567 26.914 21.3194 26.901 21.2859C26.888 21.2524 26.8625 21.225 26.83 21.2097L20.7399 18.5798Z" fill="white"/>
<path d="M20.68 16.2402C20.6629 16.2402 20.6459 16.2435 20.6301 16.25C20.6144 16.2565 20.6 16.2658 20.5879 16.2778C20.5758 16.2899 20.5664 16.3045 20.5598 16.3203C20.5533 16.3361 20.5498 16.353 20.5498 16.3701C20.5484 16.388 20.5508 16.4059 20.5567 16.4229C20.5626 16.4398 20.572 16.4551 20.5843 16.4683C20.5965 16.4814 20.6112 16.4919 20.6277 16.499C20.6442 16.5062 20.662 16.5098 20.68 16.5098H26.8499C26.8792 16.519 26.9107 16.519 26.94 16.5098C26.9466 16.4939 26.95 16.4771 26.95 16.46C26.95 16.4428 26.9466 16.426 26.94 16.4102C26.94 16.3931 26.9365 16.3761 26.93 16.3604C26.9234 16.3446 26.9139 16.3299 26.9019 16.3179C26.8898 16.3058 26.8754 16.2966 26.8596 16.29C26.8439 16.2835 26.8269 16.2798 26.8098 16.2798L20.68 16.2402Z" fill="white"/>
</svg>
