<svg width="70" height="30" viewBox="0 0 70 30" fill="none" xmlns="http://www.w3.org/2000/svg">
<rect width="70" height="30" rx="15" fill="#C8C8C8"/>
<path d="M23.7614 22V7.45455H25.5227V13.9318H33.2784V7.45455H35.0398V22H33.2784V15.4943H25.5227V22H23.7614ZM43.0547 22H38.5661V7.45455H43.2536C44.6645 7.45455 45.8719 7.74574 46.8757 8.32812C47.8795 8.90578 48.6489 9.73674 49.1839 10.821C49.719 11.9006 49.9865 13.1932 49.9865 14.6989C49.9865 16.214 49.7166 17.5185 49.1768 18.6122C48.6371 19.7012 47.8511 20.5393 46.8189 21.1264C45.7867 21.7088 44.532 22 43.0547 22ZM40.3274 20.4375H42.9411C44.1437 20.4375 45.1404 20.2055 45.9311 19.7415C46.7218 19.2775 47.3113 18.617 47.6996 17.7599C48.0878 16.9029 48.282 15.8826 48.282 14.6989C48.282 13.5246 48.0902 12.5137 47.7067 11.6662C47.3232 10.8139 46.7502 10.1605 45.9879 9.70597C45.2256 9.24669 44.2763 9.01705 43.1399 9.01705H40.3274V20.4375Z" fill="white"/>
</svg>
