<svg width="73" height="31" viewBox="0 0 73 31" fill="none" xmlns="http://www.w3.org/2000/svg">
<path d="M23.1901 0.760062H12.6901C11.4863 0.755435 10.3016 1.06118 9.25061 1.648C8.19958 2.23482 7.31773 3.083 6.69006 4.11016L1.79993 12.1102C1.12442 13.2114 0.766968 14.4781 0.766968 15.7701C0.766968 17.062 1.12442 18.3287 1.79993 19.43L6.69006 27.43C7.31773 28.4571 8.19958 29.3051 9.25061 29.8919C10.3016 30.4787 11.4863 30.7847 12.6901 30.7801H23.1901C24.3938 30.7847 25.5782 30.4787 26.6293 29.8919C27.6803 29.3051 28.5624 28.4571 29.1901 27.43L34.0699 19.43C34.7455 18.3287 35.1031 17.062 35.1031 15.7701C35.1031 14.4781 34.7455 13.2114 34.0699 12.1102L29.1901 4.11016C28.5624 3.083 27.6803 2.23482 26.6293 1.648C25.5782 1.06118 24.3938 0.755435 23.1901 0.760062Z" fill="#BFA600"/>
<path d="M37.28 0.77002H18.92L9.73999 15.77L18.92 30.77H37.28L46.47 15.77L37.28 0.77002Z" fill="#BFA600"/>
<path d="M43.86 0.77002H25.5L16.32 15.77L25.5 30.77H43.86L53.04 15.77L43.86 0.77002Z" fill="#BFA600"/>
<path d="M57.14 0.77002H38.78L29.6 15.77L38.78 30.77H57.14L66.32 15.77L57.14 0.77002Z" fill="#BFA600"/>
<path d="M59.9799 0.75H50.08C48.7873 0.75007 47.5162 1.08201 46.3885 1.71411C45.2609 2.34621 44.3146 3.25739 43.64 4.36011L39.08 11.8601C38.3543 13.0462 37.9703 14.4096 37.9703 15.8C37.9703 17.1905 38.3543 18.5539 39.08 19.74L43.64 27.1899C44.3146 28.2927 45.2609 29.2038 46.3885 29.8359C47.5162 30.468 48.7873 30.8 50.08 30.8H59.9799C61.2726 30.8 62.5436 30.468 63.6713 29.8359C64.7989 29.2038 65.7454 28.2927 66.42 27.1899L70.9799 19.74C71.7055 18.5539 72.0895 17.1905 72.0895 15.8C72.0895 14.4096 71.7055 13.0462 70.9799 11.8601L66.42 4.40991C65.7516 3.2979 64.8076 2.37692 63.6796 1.73584C62.5515 1.09475 61.2773 0.755288 59.9799 0.75Z" fill="#BFA600"/>
<path d="M26.2399 15.2501C26.2399 15.0301 26.24 14.8102 26.16 14.6002C25.9188 13.2259 25.2607 11.959 24.275 10.9715C23.2893 9.98402 22.0238 9.32381 20.65 9.08013C20.43 9.08013 20.2099 9.02005 19.9899 9.00005H19.4701C18.672 8.99688 17.8795 9.13562 17.13 9.40997C16.9925 9.45629 16.8586 9.51329 16.7299 9.58013C15.9921 9.88847 15.315 10.3253 14.7299 10.8702L14.4501 11.16C13.9067 11.7463 13.47 12.4231 13.16 13.16C13.11 13.29 13.0499 13.4301 12.9999 13.5701C12.751 14.2943 12.6227 15.0544 12.62 15.8201C12.62 16.0401 12.62 16.25 12.62 16.46C12.62 16.67 12.6801 16.9099 12.7201 17.1299C12.9793 18.455 13.6276 19.673 14.5824 20.6277C15.5372 21.5825 16.7549 22.2308 18.08 22.49C18.3007 22.5387 18.5245 22.5722 18.7499 22.5901C18.9599 22.5901 19.17 22.5901 19.39 22.5901C20.1572 22.595 20.9192 22.4628 21.64 22.2C21.78 22.2 21.9199 22.1001 22.0499 22.0501C22.7853 21.7374 23.4618 21.3011 24.0499 20.7601C24.1515 20.672 24.2484 20.5785 24.34 20.48C24.8853 19.9121 25.3255 19.2519 25.64 18.5301C25.7 18.4001 25.7499 18.2699 25.7999 18.1299C26.0743 17.3804 26.2133 16.5882 26.2101 15.7901C26.2601 15.6001 26.2499 15.4201 26.2399 15.2501ZM25.1801 18.0101C24.8879 18.7562 24.4492 19.4362 23.89 20.0101L23.6 20.2901C23.0172 20.8182 22.3382 21.229 21.6 21.5001L21.16 21.6299C20.6389 21.7743 20.1007 21.8485 19.5599 21.8502C18.9986 21.8515 18.4399 21.7741 17.9 21.6202C17.5855 21.5295 17.2778 21.4157 16.9799 21.2801C15.6536 20.6705 14.5894 19.6063 13.9799 18.2801C13.8373 17.9885 13.7235 17.6838 13.64 17.3702C13.4873 16.8301 13.41 16.2713 13.41 15.71C13.4077 15.1697 13.4783 14.6316 13.62 14.1102C13.62 13.9602 13.6999 13.81 13.7499 13.67C14.0243 12.9334 14.4349 12.2549 14.9601 11.67L15.2399 11.3799C15.8159 10.8234 16.4953 10.3854 17.2399 10.0901C17.3766 10.0313 17.517 9.98107 17.66 9.93999C18.2731 9.73846 18.9146 9.63711 19.5599 9.63995C19.9494 9.63639 20.3383 9.67336 20.7201 9.75005C20.9835 9.80259 21.2437 9.86931 21.4999 9.95C22.3966 10.2514 23.2112 10.757 23.8793 11.4268C24.5474 12.0966 25.0509 12.9126 25.35 13.8101C25.4398 14.061 25.5099 14.3184 25.5599 14.5801C25.6321 14.966 25.6691 15.3575 25.67 15.7501C25.6696 16.3927 25.5649 17.0309 25.36 17.6399C25.3069 17.7633 25.2469 17.8836 25.1801 18.0001V18.0101Z" fill="white"/>
<path d="M24.6801 14L21.2101 10.53C22.0188 10.7982 22.7534 11.2516 23.3558 11.854C23.9583 12.4565 24.4119 13.1913 24.6801 14Z" fill="white"/>
<path d="M24.9701 15.72C24.9731 16.2976 24.8819 16.8717 24.7001 17.4199L17.7599 10.49C18.311 10.3049 18.8887 10.2103 19.4701 10.21C19.8056 10.2153 20.1401 10.2488 20.4701 10.3101L24.83 14.6699C24.9075 15.0151 24.9545 15.3665 24.9701 15.72Z" fill="white"/>
<path d="M24.5599 17.8C24.2904 18.459 23.8966 19.0599 23.4 19.5701L15.62 11.78C16.1264 11.2835 16.724 10.8897 17.38 10.6201L24.5599 17.8Z" fill="white"/>
<path d="M23.14 19.8201C22.6038 20.3001 21.9786 20.6702 21.2999 20.9099L14.2999 13.9099C14.5357 13.2324 14.9066 12.61 15.39 12.0801L23.14 19.8201Z" fill="white"/>
<path d="M20.9101 21C19.9482 21.2663 18.9321 21.2663 17.9701 21L14.1701 17.2C13.8969 16.2424 13.8969 15.2276 14.1701 14.27L20.9101 21Z" fill="white"/>
<path d="M17.15 20.71C15.9728 20.1629 15.0269 19.2172 14.4799 18.04L17.15 20.71Z" fill="white"/>
<path d="M39.487 9.91002V23.02H36.58V9.91002H39.487ZM44.351 14.945V17.13H39.335V14.945H44.351ZM47.049 9.91002V23.02H44.142V9.91002H47.049ZM54.8467 9.72002C55.8854 9.72002 56.7594 9.83402 57.4687 10.062C58.1907 10.2774 58.7671 10.6384 59.1977 11.145C59.6411 11.6517 59.9641 12.342 60.1667 13.216C60.3694 14.0774 60.4707 15.1604 60.4707 16.465C60.4707 17.7697 60.3694 18.859 60.1667 19.733C59.9641 20.5944 59.6411 21.2784 59.1977 21.785C58.7671 22.2917 58.1907 22.659 57.4687 22.887C56.7594 23.1024 55.8854 23.21 54.8467 23.21C53.8461 23.21 52.9277 23.191 52.0917 23.153C51.2557 23.115 50.4577 23.0707 49.6977 23.02L50.9137 20.873C51.3951 20.8984 51.9651 20.9237 52.6237 20.949C53.2951 20.9617 54.0361 20.968 54.8467 20.968C55.4927 20.968 55.9994 20.8414 56.3667 20.588C56.7467 20.322 57.0127 19.8597 57.1647 19.201C57.3294 18.5424 57.4117 17.6304 57.4117 16.465C57.4117 15.2997 57.3294 14.3877 57.1647 13.729C57.0127 13.0704 56.7467 12.608 56.3667 12.342C55.9994 12.076 55.4927 11.943 54.8467 11.943C54.0741 11.943 53.3837 11.9494 52.7757 11.962C52.1677 11.962 51.5724 11.962 50.9897 11.962L49.6977 9.91002C50.4577 9.85935 51.2494 9.81502 52.0727 9.77702C52.9087 9.73902 53.8334 9.72002 54.8467 9.72002ZM52.6047 9.91002V23.02H49.6977V9.91002H52.6047Z" fill="white"/>
</svg>
