<svg width="73" height="31" viewBox="0 0 73 31" fill="none" xmlns="http://www.w3.org/2000/svg">
<path d="M23.1901 0.740042H12.6901C11.4863 0.735415 10.3016 1.0414 9.25061 1.62823C8.19958 2.21505 7.31773 3.06298 6.69006 4.09014L1.79993 12.0901C1.12442 13.1914 0.766968 14.4581 0.766968 15.7501C0.766968 17.042 1.12442 18.3087 1.79993 19.41L6.69006 27.41C7.31773 28.4371 8.19958 29.2851 9.25061 29.8719C10.3016 30.4587 11.4863 30.7647 12.6901 30.7601H23.1901C24.3938 30.7647 25.5782 30.4587 26.6293 29.8719C27.6803 29.2851 28.5624 28.4371 29.1901 27.41L34.0699 19.41C34.7455 18.3087 35.1031 17.042 35.1031 15.7501C35.1031 14.4581 34.7455 13.1914 34.0699 12.0901L29.1901 4.09014C28.5624 3.06298 27.6803 2.21505 26.6293 1.62823C25.5782 1.0414 24.3938 0.735415 23.1901 0.740042Z" fill="#8A011F"/>
<path d="M37.28 0.75H18.92L9.73999 15.75L18.92 30.75H37.28L46.47 15.75L37.28 0.75Z" fill="#8A011F"/>
<path d="M43.86 0.75H25.5L16.32 15.75L25.5 30.75H43.86L53.04 15.75L43.86 0.75Z" fill="#8A011F"/>
<path d="M57.14 0.75H38.78L29.6 15.75L38.78 30.75H57.14L66.32 15.75L57.14 0.75Z" fill="#8A011F"/>
<path d="M59.9799 0.719971H50.08C48.7876 0.721954 47.5173 1.05485 46.39 1.68677C45.2627 2.31868 44.3161 3.22868 43.64 4.33008L39.08 11.8301C38.3543 13.0162 37.9703 14.3796 37.9703 15.77C37.9703 17.1605 38.3543 18.5239 39.08 19.71L43.64 27.1599C44.3146 28.2626 45.2609 29.1738 46.3885 29.8059C47.5162 30.438 48.7873 30.7699 50.08 30.77H59.9799C61.2729 30.7719 62.5448 30.4406 63.6727 29.8083C64.8007 29.1761 65.7469 28.264 66.42 27.1599L70.9799 19.71C71.7055 18.5239 72.0895 17.1605 72.0895 15.77C72.0895 14.3796 71.7055 13.0162 70.9799 11.8301L66.42 4.37988C65.7516 3.26787 64.8076 2.34714 63.6796 1.70605C62.5515 1.06497 61.2773 0.725259 59.9799 0.719971Z" fill="#8A011F"/>
<path d="M26.4701 9.13979H22.85C22.8027 9.13979 22.756 9.14929 22.7123 9.16738C22.6686 9.18547 22.6288 9.21183 22.5953 9.24526C22.5619 9.27869 22.5355 9.31853 22.5175 9.3622C22.4994 9.40588 22.4899 9.45262 22.4899 9.4999V12.7699H19.2201C19.1246 12.7699 19.033 12.8079 18.9655 12.8754C18.8979 12.9429 18.86 13.0343 18.86 13.1298V16.3898H15.6C15.5045 16.3898 15.4129 16.4277 15.3453 16.4953C15.2778 16.5628 15.2399 16.6544 15.2399 16.7499V19.9999H11.9899C11.8944 19.9999 11.803 20.0379 11.7355 20.1054C11.668 20.1729 11.63 20.2645 11.63 20.36V23.9999C11.63 24.0954 11.668 24.187 11.7355 24.2545C11.803 24.3221 11.8944 24.36 11.9899 24.36C12.038 24.3613 12.0859 24.3528 12.1307 24.3353C12.1756 24.3179 12.2166 24.2915 12.2511 24.258C12.2856 24.2244 12.313 24.1844 12.3317 24.14C12.3504 24.0957 12.36 24.048 12.36 23.9999V20.6898H15.62C15.7155 20.6898 15.8071 20.6519 15.8746 20.5844C15.9421 20.5169 15.9799 20.4255 15.9799 20.33V17.09H19.2201C19.3156 17.09 19.407 17.052 19.4745 16.9845C19.542 16.917 19.58 16.8254 19.58 16.7299V13.4699H22.85C22.9455 13.4699 23.0371 13.4319 23.1046 13.3644C23.1721 13.2969 23.2101 13.2055 23.2101 13.11V9.83999H26.4701C26.5656 9.83999 26.657 9.80203 26.7245 9.73452C26.792 9.66701 26.83 9.57536 26.83 9.47988C26.8287 9.43391 26.8182 9.38855 26.7994 9.34658C26.7806 9.30461 26.7538 9.26683 26.7203 9.23525C26.6869 9.20368 26.6476 9.17911 26.6046 9.16274C26.5616 9.14637 26.5161 9.13846 26.4701 9.13979Z" fill="white"/>
<path d="M20.59 22.2201L24.9401 17.8702V19.3001C24.9387 19.3461 24.9464 19.3919 24.9628 19.4349C24.9791 19.4779 25.0037 19.5172 25.0353 19.5506C25.0669 19.5841 25.1049 19.6109 25.1469 19.6297C25.1888 19.6485 25.2339 19.6587 25.2799 19.66C25.3722 19.6554 25.4597 19.6175 25.526 19.5531C25.5923 19.4886 25.6328 19.4023 25.64 19.3101L25.7001 17.0201C25.6944 16.9715 25.6733 16.9258 25.64 16.89C25.64 16.89 25.64 16.8101 25.64 16.7901C25.621 16.7697 25.5976 16.7536 25.5717 16.7433C25.5457 16.7329 25.5177 16.7284 25.4899 16.7301C25.4899 16.7301 25.43 16.7301 25.4 16.7301L23.08 16.7801C23.034 16.7814 22.9886 16.7918 22.9467 16.8106C22.9047 16.8294 22.8669 16.8563 22.8353 16.8897C22.8038 16.9232 22.7792 16.9625 22.7628 17.0055C22.7464 17.0484 22.7385 17.094 22.7399 17.14C22.7398 17.1868 22.7492 17.2333 22.7675 17.2765C22.7857 17.3196 22.8125 17.3586 22.8461 17.3912C22.8796 17.4238 22.9194 17.4494 22.963 17.4664C23.0066 17.4834 23.0532 17.4914 23.1 17.4901H24.5199L20.1801 21.8302C20.1175 21.8984 20.0826 21.9876 20.0826 22.0802C20.0826 22.1727 20.1175 22.2619 20.1801 22.3302C20.2512 22.3576 20.3293 22.3617 20.403 22.3419C20.4766 22.3221 20.5421 22.2795 20.59 22.2201Z" fill="white"/>
<path d="M39.487 8.89V22H36.58V8.89H39.487ZM44.351 13.925V16.11H39.335V13.925H44.351ZM47.049 8.89V22H44.142V8.89H47.049ZM54.7517 8.7C55.9044 8.7 56.8354 8.82033 57.5447 9.061C58.2667 9.289 58.7924 9.688 59.1217 10.258C59.4637 10.8153 59.6347 11.5943 59.6347 12.595C59.6347 13.203 59.5524 13.7413 59.3877 14.21C59.2357 14.666 58.9761 15.0333 58.6087 15.312C58.2414 15.5907 57.7411 15.768 57.1077 15.844V15.939C57.3357 15.977 57.5701 16.0657 57.8107 16.205C58.0641 16.3443 58.2984 16.5533 58.5137 16.832C58.7291 17.098 58.8874 17.459 58.9887 17.915L60.1287 22H57.0697L56.0627 18.01C55.9487 17.5793 55.7777 17.2817 55.5497 17.117C55.3344 16.9523 55.0304 16.87 54.6377 16.87C53.7764 16.87 53.0481 16.87 52.4527 16.87C51.8701 16.8573 51.3761 16.8447 50.9707 16.832C50.5781 16.8193 50.2234 16.8067 49.9067 16.794L49.9637 14.685H54.6947C55.2014 14.685 55.6004 14.6343 55.8917 14.533C56.1957 14.419 56.4047 14.2227 56.5187 13.944C56.6454 13.6653 56.7087 13.279 56.7087 12.785C56.7087 12.2783 56.6454 11.892 56.5187 11.626C56.4047 11.3473 56.1957 11.1573 55.8917 11.056C55.6004 10.942 55.2014 10.885 54.6947 10.885C53.5041 10.885 52.4971 10.8913 51.6737 10.904C50.8504 10.9167 50.2867 10.9357 49.9827 10.961L49.6977 8.89C50.2297 8.82667 50.7301 8.78233 51.1987 8.757C51.6674 8.73167 52.1804 8.719 52.7377 8.719C53.2951 8.70633 53.9664 8.7 54.7517 8.7ZM52.5667 8.89V22H49.6977V8.89H52.5667Z" fill="white"/>
</svg>
