<svg width="72" height="31" viewBox="0 0 72 31" fill="none" xmlns="http://www.w3.org/2000/svg">
<path d="M22.6501 0.780081H12.1501C10.9463 0.775455 9.76163 1.0812 8.7106 1.66802C7.65957 2.25484 6.77772 3.10277 6.15005 4.12993L1.25992 12.1299C0.584409 13.2312 0.226959 14.4981 0.226959 15.7901C0.226959 17.082 0.584409 18.349 1.25992 19.4502L6.15005 27.4502C6.77772 28.4774 7.65957 29.3253 8.7106 29.9122C9.76163 30.499 10.9463 30.8045 12.1501 30.7999H22.6501C23.8538 30.8045 25.0382 30.499 26.0893 29.9122C27.1403 29.3253 28.0224 28.4774 28.6501 27.4502L33.5299 19.4502C34.2054 18.349 34.5631 17.082 34.5631 15.7901C34.5631 14.4981 34.2054 13.2312 33.5299 12.1299L28.6501 4.12993C28.0224 3.10277 27.1403 2.25484 26.0893 1.66802C25.0382 1.0812 23.8538 0.775455 22.6501 0.780081Z" fill="#5B5B5D"/>
<path d="M36.73 0.790039H18.38L9.20001 15.79L18.38 30.79H36.73L45.92 15.79L36.73 0.790039Z" fill="#5B5B5D"/>
<path d="M43.31 0.790039H24.95L15.78 15.79L24.95 30.79H43.31L52.49 15.79L43.31 0.790039Z" fill="#5B5B5D"/>
<path d="M56.59 0.790039H38.23L29.05 15.79L38.23 30.79H56.59L65.78 15.79L56.59 0.790039Z" fill="#5B5B5D"/>
<path d="M59.4401 0.77002H49.5399C48.2472 0.77009 46.9761 1.10203 45.8485 1.73413C44.7209 2.36623 43.7746 3.27717 43.1 4.37988L38.5399 11.8799C37.8143 13.066 37.4303 14.4294 37.4303 15.8198C37.4303 17.2103 37.8143 18.5737 38.5399 19.7598L43.1 27.21C43.7746 28.3127 44.7209 29.2239 45.8485 29.856C46.9761 30.4881 48.2472 30.8198 49.5399 30.8198H59.4401C60.7328 30.8198 62.0036 30.4881 63.1312 29.856C64.2588 29.2239 65.2054 28.3127 65.88 27.21L70.4401 19.7598C71.1657 18.5737 71.5497 17.2103 71.5497 15.8198C71.5497 14.4294 71.1657 13.066 70.4401 11.8799L65.88 4.43018C65.2115 3.31817 64.2678 2.39694 63.1398 1.75586C62.0117 1.11477 60.7375 0.775308 59.4401 0.77002Z" fill="#5B5B5D"/>
<path d="M37.927 9.17003V22.28H35.02V9.17003H37.927ZM42.791 14.205V16.39H37.775V14.205H42.791ZM45.489 9.17003V22.28H42.582V9.17003H45.489ZM53.9897 9.17003V22.28H51.0827V9.17003H53.9897ZM57.9417 9.17003V11.45H47.1497V9.17003H57.9417Z" fill="white"/>
<path d="M13.7799 16.5601C13.4395 17.0032 13.1225 17.4638 12.83 17.9399C12.1181 18.9768 11.6685 20.171 11.5199 21.4199H10.7599C10.683 21.4199 10.6092 21.4505 10.5548 21.5049C10.5005 21.5593 10.4701 21.633 10.4701 21.71C10.4701 21.7869 10.5005 21.8607 10.5548 21.915C10.6092 21.9694 10.683 22 10.7599 22H19.14C19.217 22 19.2907 21.9694 19.3451 21.915C19.3995 21.8607 19.4301 21.7869 19.4301 21.71C19.4301 21.633 19.3995 21.5593 19.3451 21.5049C19.2907 21.4505 19.217 21.4199 19.14 21.4199H18.38C18.26 19.5599 17.0899 17.8499 15.9899 16.4199L15.6901 16.0098C15.6901 15.9398 15.79 15.88 15.84 15.79C16.3607 15.1338 16.8351 14.4423 17.2599 13.7202C17.862 12.7751 18.2384 11.7038 18.36 10.5898H19.12C19.189 10.5771 19.2512 10.5407 19.2961 10.4868C19.3409 10.4329 19.3654 10.365 19.3654 10.2949C19.3654 10.2248 19.3409 10.1569 19.2961 10.103C19.2512 10.0491 19.189 10.0127 19.12 10H10.7399C10.671 10.0127 10.6087 10.0491 10.5639 10.103C10.519 10.1569 10.4945 10.2248 10.4945 10.2949C10.4945 10.365 10.519 10.4329 10.5639 10.4868C10.6087 10.5407 10.671 10.5771 10.7399 10.5898H11.4999C11.6539 11.8641 12.1213 13.0803 12.86 14.1299C13.16 14.5999 13.48 15.0602 13.81 15.4902C13.91 15.6402 14.02 15.7699 14.13 15.9199L14.2001 16.0098L14.11 16.1099C14.0249 16.2766 13.9134 16.4288 13.7799 16.5601ZM13.5299 14.0698C12.7821 13.0444 12.2918 11.8546 12.1 10.6001H17.85C17.72 12.4101 16.4901 14.0502 15.4301 15.4302C15.3042 15.5649 15.2026 15.7206 15.13 15.8901C15.1214 15.9838 15.1321 16.0781 15.1613 16.1675C15.1905 16.2569 15.2377 16.3396 15.3 16.4102C15.796 17.0281 16.2537 17.6759 16.6701 18.3501C17.2895 19.2696 17.6866 20.3205 17.83 21.4199H12.11C12.2949 20.1873 12.7675 19.0157 13.4899 18C13.7699 17.55 14.1001 17.14 14.4201 16.71C14.5615 16.5503 14.6855 16.3759 14.7899 16.1899C14.8015 16.1406 14.8015 16.0894 14.7899 16.04C14.8018 15.9907 14.8018 15.9394 14.7899 15.8901C14.6948 15.6924 14.5701 15.5103 14.4201 15.3501C14.1101 14.9401 13.8499 14.5298 13.5299 14.0698Z" fill="white"/>
<path d="M20.4799 21.8499C21.029 21.6945 21.5345 21.4134 21.9563 21.0291C22.378 20.6448 22.7047 20.1678 22.9104 19.6355C23.1161 19.1033 23.1951 18.5303 23.1413 17.9622C23.0876 17.3941 22.9026 16.8463 22.6008 16.3621C22.299 15.8779 21.8887 15.4706 21.4023 15.1722C20.9159 14.8738 20.3667 14.6926 19.7983 14.6429C19.2299 14.5932 18.6577 14.6766 18.1269 14.886C17.5961 15.0955 17.1213 15.4254 16.74 15.8499C16.48 16.1299 16.8901 16.5396 17.1501 16.2596C17.6536 15.6958 18.3456 15.3356 19.0962 15.2464C19.8467 15.1571 20.6042 15.3452 21.2258 15.7752C21.8474 16.2052 22.2906 16.8475 22.4719 17.5813C22.6532 18.3152 22.5601 19.0896 22.2102 19.7596C21.807 20.4974 21.1328 21.0496 20.33 21.2996C19.98 21.3996 20.1299 21.9999 20.4799 21.8499Z" fill="white"/>
<path d="M20.35 19.2598C20.3782 19.2336 20.4006 19.2023 20.4159 19.167C20.4313 19.1317 20.4394 19.0936 20.4394 19.0552C20.4394 19.0167 20.4313 18.9786 20.4159 18.9434C20.4006 18.9081 20.3782 18.8763 20.35 18.8501C20.16 18.6701 19.9599 18.5201 19.7699 18.3501V16.6001C19.7572 16.5312 19.7208 16.4687 19.6669 16.4238C19.613 16.379 19.5451 16.3545 19.475 16.3545C19.4049 16.3545 19.337 16.379 19.2831 16.4238C19.2292 16.4687 19.1928 16.5312 19.1801 16.6001V18.54C19.1842 18.5671 19.1943 18.5927 19.2099 18.6152C19.2255 18.6378 19.246 18.6565 19.2699 18.6699C19.4899 18.8699 19.7201 19.0602 19.9401 19.2402C19.964 19.2711 19.9941 19.2959 20.0287 19.314C20.0633 19.332 20.1013 19.3423 20.1403 19.3442C20.1793 19.3461 20.2184 19.3398 20.2545 19.3252C20.2907 19.3106 20.3232 19.2882 20.35 19.2598Z" fill="white"/>
<path d="M22.9401 10.6V14.37L22.34 13.7402C22.3204 13.7202 22.2971 13.7041 22.2714 13.6933C22.2456 13.6825 22.218 13.6767 22.1901 13.6767C22.1621 13.6767 22.1343 13.6825 22.1085 13.6933C22.0828 13.7041 22.0595 13.7202 22.0399 13.7402C22.02 13.7597 22.0041 13.7828 21.9933 13.8085C21.9825 13.8343 21.9769 13.8621 21.9769 13.8901C21.9769 13.918 21.9825 13.9454 21.9933 13.9711C22.0041 13.9969 22.02 14.0204 22.0399 14.04L23.0399 15.04C23.0523 15.0461 23.0661 15.0492 23.08 15.0492C23.0938 15.0492 23.1076 15.0461 23.12 15.04C23.12 15.04 23.1201 15.04 23.1801 15.04C23.2096 15.0476 23.2404 15.0476 23.2699 15.04C23.2699 15.04 23.27 15.04 23.33 15.04L24.33 14.04C24.3568 14.0215 24.3791 13.9973 24.3954 13.9692C24.4117 13.941 24.4217 13.9093 24.4244 13.8769C24.4271 13.8444 24.4225 13.8117 24.411 13.7812C24.3996 13.7507 24.3814 13.7233 24.358 13.7006C24.3346 13.678 24.3066 13.6608 24.2758 13.6503C24.2449 13.6399 24.2122 13.6363 24.1798 13.6401C24.1475 13.6438 24.1164 13.6551 24.0887 13.6723C24.0611 13.6895 24.0375 13.7128 24.0199 13.7402L23.42 14.37V10.6098C23.4201 10.5531 23.3981 10.4989 23.359 10.4579C23.3199 10.417 23.2667 10.3926 23.2101 10.3901C23.0201 10.3701 22.9501 10.48 22.9401 10.6Z" fill="white"/>
</svg>
