<svg width="72" height="31" viewBox="0 0 72 31" fill="none" xmlns="http://www.w3.org/2000/svg">
<path d="M22.7699 0.629935H12.2699C11.0662 0.625308 9.88175 0.931294 8.83072 1.51812C7.77969 2.10494 6.89759 2.95287 6.26993 3.98003L1.38004 11.98C0.704527 13.0813 0.346832 14.348 0.346832 15.6399C0.346832 16.9319 0.704527 18.1988 1.38004 19.3001L6.26993 27.3001C6.89759 28.3273 7.77969 29.1752 8.83072 29.762C9.88175 30.3488 11.0662 30.6546 12.2699 30.65H22.7699C23.9737 30.6546 25.1584 30.3488 26.2094 29.762C27.2604 29.1752 28.1423 28.3273 28.7699 27.3001L33.6501 19.3001C34.3256 18.1988 34.683 16.9319 34.683 15.6399C34.683 14.348 34.3256 13.0813 33.6501 11.98L28.7699 3.98003C28.1423 2.95287 27.2604 2.10494 26.2094 1.51812C25.1584 0.931294 23.9737 0.625308 22.7699 0.629935Z" fill="#3D239E"/>
<path d="M36.86 0.640015H18.5L9.32001 15.64L18.5 30.64H36.86L46.05 15.64L36.86 0.640015Z" fill="#3D239E"/>
<path d="M43.44 0.640015H25.08L15.9 15.64L25.08 30.64H43.44L52.62 15.64L43.44 0.640015Z" fill="#3D239E"/>
<path d="M56.72 0.640015H38.36L29.18 15.64L38.36 30.64H56.72L65.9 15.64L56.72 0.640015Z" fill="#3D239E"/>
<path d="M59.5599 0.610107H49.66C48.3673 0.610178 47.0962 0.942122 45.9686 1.57422C44.841 2.20632 43.8947 3.11725 43.2201 4.21997L38.66 11.72C37.9344 12.9061 37.5504 14.2695 37.5504 15.6599C37.5504 17.0504 37.9344 18.414 38.66 19.6001L43.2201 27.05C43.8947 28.1528 44.841 29.0637 45.9686 29.6958C47.0962 30.3279 48.3673 30.6598 49.66 30.6599H59.5599C60.8526 30.6598 62.1237 30.3279 63.2513 29.6958C64.379 29.0637 65.3253 28.1528 65.9999 27.05L70.5599 19.6001C71.2855 18.414 71.6696 17.0504 71.6696 15.6599C71.6696 14.2695 71.2855 12.9061 70.5599 11.72L65.9999 4.27002C65.3314 3.15801 64.3877 2.23703 63.2596 1.59595C62.1316 0.954862 60.8574 0.615396 59.5599 0.610107Z" fill="#3D239E"/>
<path d="M42.961 9.91001V20.705C42.961 21.3283 42.6493 21.64 42.026 21.64H40.598C40.3147 21.64 40.0993 21.5777 39.952 21.453C39.8047 21.317 39.6687 21.1187 39.544 20.858L36.297 14.704C36.161 14.4433 36.025 14.1543 35.889 13.837C35.7643 13.5197 35.6567 13.2137 35.566 12.919H35.379C35.413 13.225 35.4413 13.5367 35.464 13.854C35.4867 14.16 35.498 14.466 35.498 14.772V21.64H33.033V10.845C33.033 10.2217 33.3503 9.91001 33.985 9.91001H35.396C35.668 9.91001 35.872 9.97801 36.008 10.114C36.1553 10.2387 36.297 10.4313 36.433 10.692L39.578 16.659C39.714 16.9197 39.8557 17.2087 40.003 17.526C40.1503 17.8433 40.292 18.172 40.428 18.512H40.632C40.598 18.172 40.5697 17.8433 40.547 17.526C40.5357 17.1973 40.53 16.8743 40.53 16.557L40.513 9.91001H42.961ZM49.8915 9.70601C50.4469 9.70601 50.9172 9.72301 51.3025 9.75701C51.6992 9.77968 52.0619 9.81935 52.3905 9.87601C52.7192 9.93268 53.0592 10.012 53.4105 10.114L53.2065 12.018C52.8325 11.9953 52.4869 11.9783 52.1695 11.967C51.8635 11.9557 51.5292 11.95 51.1665 11.95C50.8152 11.9387 50.3902 11.933 49.8915 11.933C49.3135 11.933 48.8602 12.0463 48.5315 12.273C48.2142 12.4997 47.9875 12.8963 47.8515 13.463C47.7155 14.0183 47.6475 14.789 47.6475 15.775C47.6475 16.761 47.7155 17.5373 47.8515 18.104C47.9875 18.6593 48.2142 19.0503 48.5315 19.277C48.8602 19.5037 49.3135 19.617 49.8915 19.617C50.6735 19.617 51.3309 19.6057 51.8635 19.583C52.3962 19.5603 52.9232 19.5207 53.4445 19.464L53.6655 21.368C53.1215 21.538 52.5662 21.657 51.9995 21.725C51.4329 21.8043 50.7302 21.844 49.8915 21.844C48.6789 21.844 47.7042 21.6513 46.9675 21.266C46.2422 20.8693 45.7152 20.229 45.3865 19.345C45.0692 18.461 44.9105 17.271 44.9105 15.775C44.9105 14.279 45.0692 13.089 45.3865 12.205C45.7152 11.321 46.2422 10.6863 46.9675 10.301C47.7042 9.90435 48.6789 9.70601 49.8915 9.70601Z" fill="white"/>
<path fill-rule="evenodd" clip-rule="evenodd" d="M12.63 14.53C12.3322 14.5338 12.0373 14.5913 11.7599 14.7C11.7599 14.63 11.7599 14.56 11.7599 14.49C11.8163 13.2535 12.3474 12.0865 13.2423 11.2314C14.1373 10.3764 15.3274 9.89917 16.5651 9.89917C17.8028 9.89917 18.9929 10.3764 19.8878 11.2314C20.7828 12.0865 21.3136 13.2535 21.37 14.49C21.375 14.5599 21.375 14.63 21.37 14.7C21.0927 14.5913 20.7978 14.5338 20.4999 14.53C20.432 14.5326 20.3654 14.5487 20.3039 14.5774C20.2423 14.6061 20.1872 14.6467 20.1415 14.697C20.0959 14.7473 20.0606 14.8061 20.038 14.8701C20.0154 14.9342 20.0059 15.0023 20.0099 15.0701V19.1899C20.0033 19.3084 20.0375 19.4256 20.1066 19.522C20.1757 19.6184 20.2758 19.6882 20.39 19.72C19.6902 20.5376 18.7086 21.0622 17.64 21.1899C17.5366 21.0204 17.3888 20.8824 17.2126 20.7908C17.0363 20.6991 16.8383 20.6572 16.64 20.6699C16.5134 20.6387 16.3811 20.6367 16.2536 20.6641C16.126 20.6914 16.0064 20.7477 15.9037 20.8281C15.801 20.9086 15.7182 21.0111 15.661 21.1284C15.6039 21.2457 15.5741 21.3744 15.5741 21.5049C15.5741 21.6353 15.6039 21.7643 15.661 21.8816C15.7182 21.9989 15.801 22.1014 15.9037 22.1819C16.0064 22.2623 16.126 22.3186 16.2536 22.3459C16.3811 22.3733 16.5134 22.3713 16.64 22.3401C16.8784 22.3612 17.1164 22.2959 17.3109 22.1565C17.5054 22.017 17.6436 21.8126 17.7001 21.5801C18.7001 21.5801 20.59 20.5799 20.88 19.6499C21.434 19.4876 21.9112 19.132 22.225 18.6475C22.5388 18.163 22.6684 17.5819 22.59 17.01C22.63 16.3757 22.4499 15.7469 22.08 15.23C22.1119 14.9846 22.1286 14.7375 22.13 14.49C22.0692 13.0549 21.4563 11.6988 20.4193 10.7048C19.3824 9.71089 18.0015 9.15601 16.5651 9.15601C15.1287 9.15601 13.7478 9.71089 12.7108 10.7048C11.6739 11.6988 11.0608 13.0549 10.9999 14.49C11.0013 14.7375 11.018 14.9846 11.05 15.23C10.6801 15.7469 10.4999 16.3757 10.5399 17.01C10.4481 17.6343 10.6069 18.2694 10.9816 18.7771C11.3563 19.2848 11.9164 19.6237 12.5399 19.72C12.6131 19.729 12.6872 19.7217 12.7572 19.6987C12.8272 19.6757 12.8912 19.6376 12.9447 19.5869C12.9982 19.5363 13.04 19.4744 13.0668 19.4058C13.0936 19.3371 13.105 19.2634 13.1 19.1899V15.0701C13.1027 15.0018 13.092 14.9335 13.0683 14.8694C13.0446 14.8053 13.0085 14.7464 12.9621 14.6963C12.9156 14.6461 12.8596 14.6057 12.7975 14.5771C12.7354 14.5486 12.6683 14.5326 12.6 14.53H12.63ZM23.0299 15.95C23.2899 16.01 23.64 16.2401 23.64 17.1001C23.64 17.9601 23.33 18.2101 23.07 18.3201C22.81 18.4301 22.77 18.22 22.8 18.04C22.8506 17.7494 22.8775 17.4549 22.88 17.1599C22.8755 16.8546 22.8453 16.5503 22.7899 16.25C22.7899 16.09 22.8599 15.92 23.0299 15.95ZM9.47012 17.1001C9.47012 16.2401 9.81999 16.01 10.08 15.95C10.34 15.89 10.35 16.09 10.32 16.25C10.2646 16.5503 10.2344 16.8546 10.2299 17.1599C10.2325 17.4549 10.2593 17.7494 10.31 18.04C10.31 18.22 10.2099 18.3901 10.0399 18.3201C9.86995 18.2501 9.47012 17.9101 9.47012 17.1001Z" fill="white"/>
</svg>
