<svg width="70" height="30" viewBox="0 0 70 30" fill="none" xmlns="http://www.w3.org/2000/svg">
<rect width="70" height="30" rx="15" fill="#B0B0DB"/>
<path d="M35.2955 7.45455V22H33.5909L25.6648 10.5795H25.5227V22H23.7614V7.45455H25.4659L33.4205 18.9034H33.5625V7.45455H35.2955ZM50.5245 12H48.7631C48.659 11.4934 48.4767 11.0483 48.2163 10.6648C47.9606 10.2812 47.6481 9.95928 47.2788 9.69886C46.9142 9.43371 46.5094 9.23485 46.0643 9.10227C45.6192 8.9697 45.1552 8.90341 44.6722 8.90341C43.7915 8.90341 42.9937 9.12595 42.2788 9.57102C41.5685 10.0161 41.0027 10.6719 40.5813 11.5384C40.1647 12.4048 39.9563 13.4678 39.9563 14.7273C39.9563 15.9867 40.1647 17.0497 40.5813 17.9162C41.0027 18.7827 41.5685 19.4384 42.2788 19.8835C42.9937 20.3286 43.7915 20.5511 44.6722 20.5511C45.1552 20.5511 45.6192 20.4848 46.0643 20.3523C46.5094 20.2197 46.9142 20.0232 47.2788 19.7628C47.6481 19.4976 47.9606 19.1733 48.2163 18.7898C48.4767 18.4015 48.659 17.9564 48.7631 17.4545H50.5245C50.3919 18.1979 50.1505 18.8632 49.8001 19.4503C49.4497 20.0374 49.0141 20.5369 48.4933 20.9489C47.9724 21.3561 47.3877 21.6662 46.739 21.8793C46.0951 22.0923 45.4061 22.1989 44.6722 22.1989C43.4317 22.1989 42.3285 21.8958 41.3626 21.2898C40.3967 20.6837 39.6367 19.822 39.0827 18.7045C38.5288 17.5871 38.2518 16.2614 38.2518 14.7273C38.2518 13.1932 38.5288 11.8674 39.0827 10.75C39.6367 9.63258 40.3967 8.77083 41.3626 8.16477C42.3285 7.55871 43.4317 7.25568 44.6722 7.25568C45.4061 7.25568 46.0951 7.36222 46.739 7.57528C47.3877 7.78835 47.9724 8.10085 48.4933 8.51278C49.0141 8.91998 49.4497 9.41714 49.8001 10.0043C50.1505 10.5866 50.3919 11.2519 50.5245 12Z" fill="white"/>
</svg>
