<svg width="73" height="31" viewBox="0 0 73 31" fill="none" xmlns="http://www.w3.org/2000/svg">
<path d="M23.14 0.140188H12.64C11.4363 0.135562 10.2516 0.44106 9.20059 1.02788C8.14956 1.61471 7.26771 2.46312 6.64005 3.49029L1.74991 11.4903C1.0744 12.5916 0.716949 13.858 0.716949 15.15C0.716949 16.4419 1.0744 17.7088 1.74991 18.8101L6.64005 26.8101C7.26771 27.8373 8.14956 28.6852 9.20059 29.272C10.2516 29.8588 11.4363 30.1648 12.64 30.1602H23.14C24.3438 30.1648 25.5282 29.8588 26.5793 29.272C27.6303 28.6852 28.5124 27.8373 29.14 26.8101L34.0199 18.8101C34.6954 17.7088 35.0531 16.4419 35.0531 15.15C35.0531 13.858 34.6954 12.5916 34.0199 11.4903L29.14 3.49029C28.5124 2.46312 27.6303 1.61471 26.5793 1.02788C25.5282 0.44106 24.3438 0.135562 23.14 0.140188Z" fill="#0272A2"/>
<path d="M37.22 0.150024H18.86L9.67999 15.15L18.86 30.15H37.22L46.41 15.15L37.22 0.150024Z" fill="#0272A2"/>
<path d="M43.8 0.150024H25.44L16.26 15.15L25.44 30.15H43.8L52.98 15.15L43.8 0.150024Z" fill="#0272A2"/>
<path d="M57.08 0.150024H38.72L29.54 15.15L38.72 30.15H57.08L66.26 15.15L57.08 0.150024Z" fill="#0272A2"/>
<path d="M59.9301 0.129883H50.0299C48.7372 0.129953 47.4664 0.462142 46.3387 1.09424C45.2111 1.72633 44.2646 2.63752 43.59 3.74023L39.0299 11.2402C38.3043 12.4263 37.9203 13.7897 37.9203 15.1802C37.9203 16.5706 38.3043 17.934 39.0299 19.1201L43.59 26.5698C44.2646 27.6725 45.2111 28.5837 46.3387 29.2158C47.4664 29.8479 48.7372 30.1801 50.0299 30.1802H59.9301C61.2222 30.1772 62.4921 29.8437 63.6193 29.2119C64.7464 28.5801 65.6932 27.6706 66.37 26.5698L70.9301 19.1201C71.6557 17.934 72.0397 16.5706 72.0397 15.1802C72.0397 13.7897 71.6557 12.4263 70.9301 11.2402L66.37 3.79004C65.7008 2.67869 64.7569 1.75818 63.629 1.11719C62.5012 0.476196 61.2273 0.136136 59.9301 0.129883Z" fill="#0272A2"/>
<path d="M45.587 8.53001V20.595C45.587 21.2917 45.2387 21.64 44.542 21.64H42.946C42.6293 21.64 42.3887 21.5703 42.224 21.431C42.0593 21.279 41.9073 21.0573 41.768 20.766L38.139 13.888C37.987 13.5967 37.835 13.2737 37.683 12.919C37.5437 12.5643 37.4233 12.2223 37.322 11.893H37.113C37.151 12.235 37.1827 12.5833 37.208 12.938C37.2333 13.28 37.246 13.622 37.246 13.964V21.64H34.491V9.57501C34.491 8.87835 34.8457 8.53001 35.555 8.53001H37.132C37.436 8.53001 37.664 8.60601 37.816 8.75801C37.9807 8.89735 38.139 9.11268 38.291 9.40401L41.806 16.073C41.958 16.3643 42.1163 16.6873 42.281 17.042C42.4457 17.3967 42.604 17.764 42.756 18.144H42.984C42.946 17.764 42.9143 17.3967 42.889 17.042C42.8763 16.6747 42.87 16.3137 42.87 15.959L42.851 8.53001H45.587ZM50.9959 8.47301C51.6672 8.47301 52.3512 8.47935 53.0479 8.49201C53.7572 8.49201 54.4476 8.51101 55.1189 8.54901C55.8029 8.57435 56.4362 8.61868 57.0189 8.68201L56.8669 10.772H52.1169C51.7749 10.772 51.5152 10.8543 51.3379 11.019C51.1606 11.1837 51.0719 11.4243 51.0719 11.741V21.64H48.1649V11.152C48.1649 10.3413 48.4246 9.69535 48.9439 9.21401C49.4632 8.72001 50.1472 8.47301 50.9959 8.47301ZM48.5069 14.021H56.1639V16.073H48.5069V14.021Z" fill="white"/>
<path d="M24.4201 10.3198C23.425 8.96305 22.0241 7.9583 20.4201 7.45022C18.8183 6.94323 17.0976 6.95312 15.5019 7.47903C13.9062 8.00494 12.5164 9.01987 11.53 10.3799C10.5518 11.7328 10.0267 13.3604 10.03 15.0298V15.0801C10.0357 16.7669 10.5825 18.407 11.59 19.7598C12.5885 21.1131 13.9881 22.1175 15.59 22.6299C16.3624 22.8776 17.1688 23.0025 17.9799 23C19.2484 23.0022 20.4991 22.6998 21.6266 22.1187C22.7542 21.5375 23.7259 20.6946 24.4601 19.6602C25.4363 18.3145 25.9582 16.6923 25.9501 15.0298V15C25.943 13.3212 25.3999 11.6884 24.4001 10.3399L24.4201 10.3198ZM21.2201 17.3198C20.7406 17.998 20.0575 18.5061 19.2699 18.77C18.4765 19.0242 17.6235 19.0242 16.83 18.77C16.0328 18.5198 15.3359 18.0229 14.8398 17.3506C14.3437 16.6783 14.0741 15.8653 14.07 15.0298C14.0684 14.1997 14.3311 13.3911 14.82 12.7202C15.3185 12.0417 16.0184 11.5374 16.82 11.2798C17.4099 11.086 18.0374 11.0347 18.651 11.1294C19.2647 11.2241 19.8472 11.4621 20.3512 11.8247C20.8553 12.1874 21.2664 12.6641 21.5512 13.2158C21.836 13.7676 21.9863 14.3791 21.9899 15C21.9937 15.8212 21.7383 16.6226 21.2599 17.2901L21.2201 17.3198ZM20.4999 7.89016C21.8756 8.37772 23.0831 9.24842 23.9799 10.3999L21.3801 12.3101C20.893 11.7008 20.2502 11.2342 19.5199 10.96L20.5199 7.89016H20.4999ZM15.4501 7.89016L16.4501 10.9502C15.7256 11.2347 15.0878 11.7034 14.6 12.3101L11.9701 10.44C12.8588 9.27524 14.0631 8.39037 15.4401 7.89016H15.4501ZM10.4501 15.2598H13.6801C13.7177 16.043 13.9703 16.8011 14.4101 17.4502L11.81 19.3599C10.9702 18.1608 10.4978 16.743 10.4501 15.2798V15.2598ZM15.9301 22.2598L16.9301 19.1802C17.2916 19.2804 17.6649 19.3307 18.04 19.3301C18.4427 19.3297 18.8432 19.2725 19.2299 19.1602L20.2299 22.2202C18.8266 22.6353 17.3334 22.6353 15.9301 22.2202V22.2598ZM24.29 19.2598L21.6601 17.3799C22.0848 16.7262 22.3233 15.9691 22.35 15.19H25.58C25.5544 16.6493 25.1063 18.0698 24.29 19.2798V19.2598Z" fill="white"/>
</svg>
