<svg width="73" height="31" viewBox="0 0 73 31" fill="none" xmlns="http://www.w3.org/2000/svg">
<path d="M23.34 9.7191e-05H12.85C11.6462 -0.00452933 10.4616 0.301457 9.41052 0.888281C8.35949 1.4751 7.47764 2.32303 6.84998 3.35019L1.96008 11.3502C1.28457 12.4515 0.92688 13.7179 0.92688 15.0099C0.92688 16.3018 1.28457 17.5687 1.96008 18.67L6.84998 26.67C7.47764 27.6972 8.35949 28.5451 9.41052 29.1319C10.4616 29.7188 11.6462 30.0247 12.85 30.0201H23.35C24.5537 30.0247 25.7384 29.7188 26.7894 29.1319C27.8405 28.5451 28.7223 27.6972 29.35 26.67L34.2299 18.67C34.9054 17.5687 35.2631 16.3018 35.2631 15.0099C35.2631 13.7179 34.9054 12.4515 34.2299 11.3502L29.35 3.35019C28.7214 2.32158 27.838 1.4725 26.785 0.885595C25.7321 0.298689 24.5454 -0.00625315 23.34 9.7191e-05Z" fill="#FF860A"/>
<path d="M37.43 0.0300293H19.07L9.89001 15.03L19.07 30.03H37.43L46.62 15.03L37.43 0.0300293Z" fill="#FF860A"/>
<path d="M44.01 0.0300293H25.65L16.47 15.03L25.65 30.03H44.01L53.19 15.03L44.01 0.0300293Z" fill="#FF860A"/>
<path d="M57.29 0.0300293H38.93L29.75 15.03L38.93 30.03H57.29L66.47 15.03L57.29 0.0300293Z" fill="#FF860A"/>
<path d="M60.13 0H50.2299C48.9372 7.04537e-05 47.6663 0.332015 46.5387 0.964111C45.4111 1.59621 44.4645 2.50715 43.7899 3.60986L39.2299 11.1099C38.5042 12.296 38.1205 13.6594 38.1205 15.0498C38.1205 16.4403 38.5042 17.8041 39.2299 18.9902L43.7899 26.4399C44.466 27.5413 45.4129 28.4516 46.5402 29.0835C47.6675 29.7154 48.9375 30.0478 50.2299 30.0498H60.13C61.4227 30.0497 62.6938 29.718 63.8214 29.0859C64.949 28.4538 65.8953 27.5427 66.5699 26.4399L71.13 18.9902C71.8556 17.8041 72.2396 16.4403 72.2396 15.0498C72.2396 13.6594 71.8556 12.296 71.13 11.1099L66.5699 3.66016C65.9029 2.54682 64.9595 1.62467 63.8312 0.983398C62.7028 0.342126 61.4279 0.00334835 60.13 0Z" fill="#FF860A"/>
<path d="M26.7699 12.3503H22.83C22.83 12.3503 23.5401 10.1202 23.6901 9.23019C23.804 8.78878 23.7674 8.32188 23.5863 7.90353C23.4052 7.48518 23.0899 7.13917 22.6901 6.92013C22.617 6.87829 22.5358 6.85283 22.452 6.84494C22.3682 6.83704 22.2838 6.84677 22.2042 6.87423C22.1247 6.9017 22.0517 6.9462 21.9906 7.00412C21.9295 7.06203 21.8816 7.13218 21.85 7.21017L20.65 10.0901L19.12 12.51L16.7799 14.1604H15.7799V19.3903H17.13L18.2201 20.4704C18.6905 20.9232 19.3172 21.1774 19.9701 21.1804H25.4701C25.7565 21.1804 26.0312 21.0665 26.2338 20.864C26.4363 20.6614 26.5499 20.3867 26.5499 20.1003C26.5577 19.897 26.5086 19.6955 26.4078 19.5188C26.3071 19.342 26.1587 19.1972 25.9799 19.1003V18.9704H26.0699C26.3564 18.9704 26.6311 18.8566 26.8336 18.654C27.0362 18.4515 27.15 18.1768 27.15 17.8903C27.1412 17.657 27.0561 17.4327 26.9081 17.2522C26.76 17.0716 26.557 16.9447 26.33 16.8903H26.4999C26.6426 16.8904 26.784 16.8618 26.9156 16.8069C27.0473 16.752 27.1668 16.6719 27.2672 16.5705C27.3676 16.4692 27.4469 16.3487 27.5006 16.2165C27.5543 16.0843 27.5813 15.9427 27.58 15.8C27.5808 15.5451 27.4906 15.2985 27.3256 15.1042C27.1606 14.9099 26.9317 14.7809 26.6801 14.7404H26.7699C27.0563 14.7404 27.331 14.6266 27.5336 14.424C27.7361 14.2215 27.85 13.9468 27.85 13.6604V13.6101C27.85 13.3236 27.7361 13.0489 27.5336 12.8464C27.331 12.6439 27.0563 12.53 26.7699 12.53V12.3503Z" fill="white"/>
<path d="M15.48 13.4399H11.6V19.8999H15.48V13.4399Z" fill="white"/>
<path d="M42.596 7.98003C43.8247 7.98003 44.7873 8.1067 45.484 8.36003C46.1807 8.61336 46.6747 9.05036 46.966 9.67103C47.27 10.2917 47.422 11.1594 47.422 12.274C47.422 13.3887 47.2763 14.2564 46.985 14.877C46.7063 15.4977 46.244 15.9347 45.598 16.188C44.952 16.4287 44.078 16.549 42.976 16.549C42.3933 16.549 41.8233 16.5237 41.266 16.473C40.7087 16.4224 40.1893 16.359 39.708 16.283C39.2267 16.207 38.815 16.131 38.473 16.055C38.131 15.9664 37.8967 15.884 37.77 15.808L37.827 14.364C38.5743 14.364 39.347 14.364 40.145 14.364C40.9557 14.364 41.7537 14.364 42.539 14.364C43.0457 14.3514 43.4383 14.288 43.717 14.174C44.0083 14.06 44.211 13.851 44.325 13.547C44.4517 13.243 44.515 12.8187 44.515 12.274C44.515 11.7167 44.4517 11.286 44.325 10.982C44.211 10.678 44.0083 10.469 43.717 10.355C43.4383 10.2284 43.0457 10.165 42.539 10.165C41.3737 10.165 40.373 10.1714 39.537 10.184C38.701 10.1967 38.1373 10.222 37.846 10.26L37.561 8.17003C38.093 8.10669 38.5933 8.06236 39.062 8.03703C39.5307 8.0117 40.0373 7.99903 40.582 7.99903C41.1393 7.98636 41.8107 7.98003 42.596 7.98003ZM40.468 8.17003V21.28H37.561V8.17003H40.468ZM52.0991 8.11303C52.7705 8.11303 53.4545 8.11936 54.1511 8.13203C54.8605 8.13203 55.5508 8.15103 56.2221 8.18903C56.9061 8.21436 57.5395 8.2587 58.1221 8.32203L57.9701 10.412H53.2201C52.8781 10.412 52.6185 10.4944 52.4411 10.659C52.2638 10.8237 52.1751 11.0644 52.1751 11.381V21.28H49.2681V10.792C49.2681 9.98136 49.5278 9.33536 50.0471 8.85403C50.5665 8.36003 51.2505 8.11303 52.0991 8.11303ZM49.6101 13.661H57.2671V15.713H49.6101V13.661Z" fill="white"/>
</svg>
