<svg width="72" height="31" viewBox="0 0 72 31" fill="none" xmlns="http://www.w3.org/2000/svg">
<path d="M22.9799 0.350149H12.4799C11.2761 0.345523 10.0917 0.651265 9.04065 1.23809C7.98962 1.82491 7.10752 2.67284 6.47986 3.7L1.58997 11.7C0.914457 12.8013 0.557007 14.0682 0.557007 15.3602C0.557007 16.6521 0.914457 17.9188 1.58997 19.0201L6.47986 27.0201C7.10752 28.0472 7.98962 28.8952 9.04065 29.482C10.0917 30.0688 11.2761 30.3748 12.4799 30.3702H22.9799C24.1836 30.3748 25.3683 30.0688 26.4193 29.482C27.4703 28.8952 28.3522 28.0472 28.9799 27.0201L33.86 19.0201C34.5355 17.9188 34.8929 16.6521 34.8929 15.3602C34.8929 14.0682 34.5355 12.8013 33.86 11.7L28.9799 3.7C28.3522 2.67284 27.4703 1.82491 26.4193 1.23809C25.3683 0.651265 24.1836 0.345523 22.9799 0.350149Z" fill="#00C7F4"/>
<path d="M37.06 0.359985H18.7L9.53003 15.36L18.7 30.36H37.06L46.25 15.36L37.06 0.359985Z" fill="#00C7F4"/>
<path d="M43.64 0.359985H25.28L16.11 15.36L25.28 30.36H43.64L52.82 15.36L43.64 0.359985Z" fill="#00C7F4"/>
<path d="M56.93 0.359985H38.56L29.39 15.36L38.56 30.36H56.93L66.1 15.36L56.93 0.359985Z" fill="#00C7F4"/>
<path d="M59.7699 0.330078H49.85C48.5577 0.332061 47.2873 0.664716 46.16 1.29663C45.0327 1.92855 44.0861 2.83854 43.41 3.93994L38.85 11.4399C38.1244 12.626 37.7404 13.9894 37.7404 15.3799C37.7404 16.7703 38.1244 18.134 38.85 19.3201L43.41 26.77C44.0846 27.8727 45.031 28.7837 46.1586 29.4158C47.2862 30.0479 48.5573 30.3798 49.85 30.3799H59.7499C61.0428 30.3808 62.3142 30.0494 63.442 29.4172C64.5698 28.785 65.5162 27.8734 66.1901 26.77L70.7499 19.3201C71.4755 18.134 71.8595 16.7703 71.8595 15.3799C71.8595 13.9894 71.4755 12.626 70.7499 11.4399L66.1901 3.98999C65.5233 2.88087 64.5826 1.96172 63.4584 1.3208C62.3341 0.679881 61.064 0.338792 59.7699 0.330078Z" fill="#00C7F4"/>
<path d="M24.92 10.75C24.8634 10.6394 24.7775 10.5464 24.6718 10.4812C24.566 10.416 24.4442 10.3808 24.3199 10.3799H20.12V11.6699H22.9401L20.2699 15.01C20.2152 15.0776 20.1746 15.1552 20.15 15.2385C20.1255 15.3219 20.1175 15.4094 20.1268 15.4958C20.1361 15.5823 20.1622 15.666 20.204 15.7422C20.2457 15.8184 20.3022 15.8856 20.37 15.9399C20.4927 16.0292 20.6384 16.0815 20.7899 16.0901H24.9899V14.8H22.16L24.84 11.46C24.9179 11.3607 24.9667 11.2418 24.9808 11.1165C24.995 10.9911 24.9739 10.8641 24.92 10.75Z" fill="white"/>
<path d="M12.16 15.24H15.9601L12.2899 20.3799C12.19 20.5243 12.1499 20.7019 12.1779 20.8752C12.2058 21.0486 12.2998 21.2044 12.4401 21.3101C12.5544 21.3896 12.6906 21.4315 12.83 21.4299H17.91V20.1001H14.12L17.7699 14.96C17.8198 14.8891 17.8554 14.809 17.8744 14.7244C17.8934 14.6397 17.8956 14.5522 17.8807 14.4668C17.8659 14.3814 17.8342 14.2998 17.7877 14.2266C17.7413 14.1533 17.6809 14.0899 17.61 14.04C17.4987 13.9618 17.3659 13.9198 17.2299 13.9199H12.14L12.16 15.24Z" fill="white"/>
<path d="M15.7 7.29004L14.96 8.76004L13.49 9.50004L14.96 10.23L15.7 11.71L16.44 10.23L17.91 9.50004L16.44 8.76004L15.7 7.29004Z" fill="white"/>
<path d="M21.78 20.55C22.2053 20.55 22.55 20.2053 22.55 19.78C22.55 19.3548 22.2053 19.01 21.78 19.01C21.3547 19.01 21.01 19.3548 21.01 19.78C21.01 20.2053 21.3547 20.55 21.78 20.55Z" fill="white"/>
<path d="M40.025 8.30998C41.1777 8.30998 42.1087 8.43032 42.818 8.67098C43.54 8.89898 44.0657 9.29798 44.395 9.86798C44.737 10.4253 44.908 11.2043 44.908 12.205C44.908 12.813 44.8257 13.3513 44.661 13.82C44.509 14.276 44.2494 14.6433 43.882 14.922C43.5147 15.2007 43.0144 15.378 42.381 15.454V15.549C42.609 15.587 42.8434 15.6757 43.084 15.815C43.3374 15.9543 43.5717 16.1633 43.787 16.442C44.0024 16.708 44.1607 17.069 44.262 17.525L45.402 21.61H42.343L41.336 17.62C41.222 17.1893 41.051 16.8917 40.823 16.727C40.6077 16.5623 40.3037 16.48 39.911 16.48C39.0497 16.48 38.3214 16.48 37.726 16.48C37.1434 16.4673 36.6494 16.4547 36.244 16.442C35.8514 16.4293 35.4967 16.4167 35.18 16.404L35.237 14.295H39.968C40.4747 14.295 40.8737 14.2443 41.165 14.143C41.469 14.029 41.678 13.8327 41.792 13.554C41.9187 13.2753 41.982 12.889 41.982 12.395C41.982 11.8883 41.9187 11.502 41.792 11.236C41.678 10.9573 41.469 10.7673 41.165 10.666C40.8737 10.552 40.4747 10.495 39.968 10.495C38.7774 10.495 37.7704 10.5013 36.947 10.514C36.1237 10.5267 35.56 10.5457 35.256 10.571L34.971 8.49998C35.503 8.43665 36.0034 8.39232 36.472 8.36698C36.9407 8.34165 37.4537 8.32898 38.011 8.32898C38.5684 8.31632 39.2397 8.30998 40.025 8.30998ZM37.84 8.49998V21.61H34.971V8.49998H37.84ZM57.7608 8.49998L54.5308 14.884L58.0078 21.61H55.0438L51.7758 14.884L54.8158 8.49998H57.7608ZM49.3438 8.49998L52.3838 14.884L49.1158 21.61H46.1518L49.6098 14.884L46.3988 8.49998H49.3438ZM53.4858 13.953V15.739H50.5028V13.953H53.4858Z" fill="white"/>
</svg>
