<svg width="72" height="31" viewBox="0 0 72 31" fill="none" xmlns="http://www.w3.org/2000/svg">
<path d="M22.5199 0.550101H12.0199C10.8162 0.545474 9.63175 0.851216 8.58072 1.43804C7.52969 2.02486 6.64759 2.87279 6.01993 3.89995L1.13004 11.9C0.454527 13.0012 0.0968323 14.2682 0.0968323 15.5601C0.0968323 16.8521 0.454527 18.1187 1.13004 19.22L6.01993 27.22C6.64759 28.2472 7.52969 29.0951 8.58072 29.6819C9.63175 30.2688 10.8162 30.5747 12.0199 30.5701H22.5199C23.7237 30.5747 24.9084 30.2688 25.9594 29.6819C27.0104 29.0951 27.8923 28.2472 28.5199 27.22L33.4001 19.22C34.0756 18.1187 34.433 16.8521 34.433 15.5601C34.433 14.2682 34.0756 13.0012 33.4001 11.9L28.5199 3.89995C27.8923 2.87279 27.0104 2.02486 25.9594 1.43804C24.9084 0.851216 23.7237 0.545474 22.5199 0.550101Z" fill="#774B25"/>
<path d="M36.61 0.560059H18.25L9.07001 15.5601L18.25 30.5601H36.61L45.8 15.5601L36.61 0.560059Z" fill="#774B25"/>
<path d="M43.19 0.560059H24.83L15.65 15.5601L24.83 30.5601H43.19L52.37 15.5601L43.19 0.560059Z" fill="#774B25"/>
<path d="M56.47 0.560059H38.11L28.93 15.5601L38.11 30.5601H56.47L65.65 15.5601L56.47 0.560059Z" fill="#774B25"/>
<path d="M59.3099 0.530029H49.41C48.1177 0.532013 46.8474 0.864667 45.7201 1.49658C44.5928 2.1285 43.6461 3.03849 42.9701 4.13989L38.41 11.6399C37.6844 12.826 37.3004 14.1896 37.3004 15.5801C37.3004 16.9705 37.6844 18.3339 38.41 19.52L42.9701 26.97C43.6447 28.0727 44.591 28.9839 45.7186 29.616C46.8462 30.2481 48.1173 30.58 49.41 30.5801H59.3099C60.603 30.5819 61.8749 30.2507 63.0028 29.6184C64.1308 28.9861 65.0767 28.074 65.7499 26.97L70.3099 19.52C71.0355 18.3339 71.4196 16.9705 71.4196 15.5801C71.4196 14.1896 71.0355 12.826 70.3099 11.6399L65.7499 4.18994C65.0814 3.07793 64.1377 2.15695 63.0096 1.51587C61.8816 0.874784 60.6074 0.535317 59.3099 0.530029Z" fill="#774B25"/>
<path d="M39.203 8.51299C39.849 8.51299 40.552 8.55099 41.312 8.62699C42.072 8.69033 42.813 8.82966 43.535 9.04499L43.345 10.964C42.7877 10.9513 42.1353 10.9387 41.388 10.926C40.6407 10.9133 39.906 10.907 39.184 10.907C38.8293 10.907 38.5253 10.9197 38.272 10.945C38.0313 10.9577 37.835 11.0083 37.683 11.097C37.531 11.173 37.4233 11.2933 37.36 11.458C37.2967 11.6227 37.265 11.8507 37.265 12.142C37.265 12.5853 37.3663 12.9083 37.569 13.111C37.7843 13.3137 38.1453 13.4973 38.652 13.662L41.179 14.479C42.2303 14.8337 42.9587 15.315 43.364 15.923C43.7693 16.531 43.972 17.329 43.972 18.317C43.972 19.0643 43.8833 19.685 43.706 20.179C43.5287 20.673 43.25 21.0593 42.87 21.338C42.49 21.6167 41.9897 21.813 41.369 21.927C40.7483 22.0537 39.9883 22.117 39.089 22.117C38.6583 22.117 38.044 22.0853 37.246 22.022C36.448 21.9713 35.536 21.832 34.51 21.604L34.7 19.552C35.4473 19.5647 36.0933 19.5837 36.638 19.609C37.1953 19.6217 37.6703 19.6343 38.063 19.647C38.4557 19.647 38.7977 19.647 39.089 19.647C39.5957 19.647 39.9883 19.6153 40.267 19.552C40.5583 19.4887 40.761 19.362 40.875 19.172C40.989 18.982 41.046 18.7097 41.046 18.355C41.046 18.051 41.0017 17.8103 40.913 17.633C40.837 17.443 40.704 17.2973 40.514 17.196C40.3367 17.082 40.0897 16.9807 39.773 16.892L37.113 15.98C36.1123 15.6127 35.403 15.1313 34.985 14.536C34.567 13.9407 34.358 13.1553 34.358 12.18C34.358 11.42 34.4467 10.8057 34.624 10.337C34.814 9.85566 35.099 9.48199 35.479 9.21599C35.8717 8.94999 36.372 8.76633 36.98 8.66499C37.6007 8.56366 38.3417 8.51299 39.203 8.51299ZM51.1528 8.56999C52.1915 8.56999 53.0655 8.68399 53.7748 8.91199C54.4968 9.12733 55.0731 9.48833 55.5038 9.995C55.9471 10.5017 56.2701 11.192 56.4728 12.066C56.6755 12.9273 56.7768 14.0103 56.7768 15.315C56.7768 16.6197 56.6755 17.709 56.4728 18.583C56.2701 19.4443 55.9471 20.1283 55.5038 20.635C55.0731 21.1417 54.4968 21.509 53.7748 21.737C53.0655 21.9523 52.1915 22.06 51.1528 22.06C50.1521 22.06 49.2338 22.041 48.3978 22.003C47.5618 21.965 46.7638 21.9207 46.0038 21.87L47.2198 19.723C47.7011 19.7483 48.2711 19.7737 48.9298 19.799C49.6011 19.8117 50.3421 19.818 51.1528 19.818C51.7988 19.818 52.3055 19.6913 52.6728 19.438C53.0528 19.172 53.3188 18.7097 53.4708 18.051C53.6355 17.3923 53.7178 16.4803 53.7178 15.315C53.7178 14.1497 53.6355 13.2377 53.4708 12.579C53.3188 11.9203 53.0528 11.458 52.6728 11.192C52.3055 10.926 51.7988 10.793 51.1528 10.793C50.3801 10.793 49.6898 10.7993 49.0818 10.812C48.4738 10.812 47.8785 10.812 47.2958 10.812L46.0038 8.75999C46.7638 8.70933 47.5555 8.66499 48.3788 8.62699C49.2148 8.58899 50.1395 8.56999 51.1528 8.56999ZM48.9108 8.75999V21.87H46.0038V8.75999H48.9108Z" fill="white"/>
<path d="M15.41 22.8501C13.9682 22.8501 12.5588 22.4223 11.36 21.6213C10.1611 20.8203 9.22667 19.6819 8.67491 18.3498C8.12315 17.0177 7.97883 15.5518 8.26012 14.1376C8.5414 12.7235 9.23571 11.4248 10.2552 10.4052C11.2748 9.3857 12.5735 8.6914 13.9877 8.41011C15.4018 8.12882 16.8677 8.27314 18.1998 8.82491C19.5319 9.37667 20.6703 10.3111 21.4713 11.51C22.2723 12.7088 22.7001 14.1182 22.7001 15.56C22.6974 17.4926 21.9284 19.3453 20.5619 20.7119C19.1953 22.0784 17.3426 22.8474 15.41 22.8501ZM15.41 9.65987C14.2431 9.65987 13.1024 10.006 12.1322 10.6543C11.1619 11.3026 10.4056 12.2241 9.95909 13.3022C9.51253 14.3803 9.39575 15.5664 9.6234 16.7109C9.85105 17.8554 10.413 18.9068 11.2381 19.7319C12.0633 20.557 13.1144 21.119 14.2589 21.3466C15.4034 21.5743 16.5897 21.4575 17.6678 21.0109C18.7459 20.5644 19.6672 19.8081 20.3155 18.8378C20.9638 17.8676 21.3099 16.7269 21.3099 15.56C21.3099 13.9952 20.6884 12.4946 19.5819 11.3881C18.4754 10.2817 16.9748 9.65987 15.41 9.65987Z" fill="white"/>
<path d="M17.9899 19.23H12.85C12.7589 19.23 12.6715 19.1946 12.6061 19.1311C12.5408 19.0676 12.5025 18.981 12.4999 18.8899C12.5607 18.1546 12.8959 17.4692 13.4386 16.9695C13.9814 16.4697 14.6923 16.1924 15.4301 16.1924C16.1679 16.1924 16.8785 16.4697 17.4213 16.9695C17.9641 17.4692 18.2992 18.1546 18.36 18.8899C18.3588 18.9367 18.3482 18.983 18.3288 19.0256C18.3093 19.0683 18.2815 19.1065 18.247 19.1382C18.2125 19.1699 18.172 19.1945 18.1278 19.2102C18.0837 19.226 18.0367 19.2327 17.9899 19.23ZM13.2101 18.54H17.61C17.4786 18.0572 17.1919 17.631 16.7943 17.3271C16.3968 17.0233 15.9105 16.8586 15.4101 16.8586C14.9097 16.8586 14.4231 17.0233 14.0255 17.3271C13.628 17.631 13.3415 18.0572 13.2101 18.54Z" fill="white"/>
<path d="M14.16 13.8201L13.5799 14.3501L14.16 14.8701C14.231 14.9461 14.2704 15.0459 14.2704 15.1499C14.2704 15.2539 14.231 15.354 14.16 15.4299C14.1224 15.472 14.0761 15.5056 14.0243 15.5281C13.9725 15.5505 13.9164 15.5614 13.86 15.5601C13.7636 15.5619 13.6703 15.5259 13.6 15.46L12.9601 14.8799L12.3299 15.46C12.256 15.5265 12.1594 15.5624 12.0599 15.5601C11.9813 15.5571 11.9053 15.5309 11.8414 15.4849C11.7775 15.4389 11.7286 15.3749 11.7008 15.3013C11.673 15.2276 11.6678 15.1475 11.6854 15.0708C11.703 14.9941 11.7428 14.9243 11.7999 14.8701L12.37 14.3501L11.7999 13.8201C11.7624 13.7837 11.7326 13.7402 11.7123 13.6921C11.6919 13.644 11.6815 13.5923 11.6815 13.54C11.6815 13.4878 11.6919 13.436 11.7123 13.3879C11.7326 13.3398 11.7624 13.2964 11.7999 13.26C11.8747 13.1867 11.9752 13.1458 12.0799 13.1458C12.1846 13.1458 12.2852 13.1867 12.36 13.26L12.9899 13.8301L13.63 13.26C13.7048 13.1867 13.8053 13.1458 13.91 13.1458C14.0147 13.1458 14.1153 13.1867 14.19 13.26C14.2275 13.2964 14.2573 13.3398 14.2777 13.3879C14.2981 13.436 14.3085 13.4878 14.3085 13.54C14.3085 13.5923 14.2981 13.644 14.2777 13.6921C14.2573 13.7402 14.2275 13.7837 14.19 13.8201H14.16ZM18.42 14.3501L18.9999 13.8201C19.0609 13.7452 19.0929 13.6507 19.0897 13.5542C19.0865 13.4577 19.0484 13.3654 18.9825 13.2947C18.9167 13.224 18.8276 13.1795 18.7316 13.1694C18.6355 13.1594 18.5391 13.1845 18.4601 13.24L17.8299 13.8101L17.19 13.24C17.1153 13.1667 17.0147 13.1257 16.91 13.1257C16.8053 13.1257 16.7048 13.1667 16.63 13.24C16.559 13.3159 16.5194 13.4161 16.5194 13.52C16.5194 13.624 16.559 13.7241 16.63 13.8L17.2101 14.3301L16.63 14.8501C16.559 14.926 16.5194 15.0259 16.5194 15.1299C16.5194 15.2339 16.559 15.334 16.63 15.4099C16.6676 15.452 16.7139 15.4856 16.7657 15.5081C16.8175 15.5305 16.8736 15.5414 16.93 15.54C17.0264 15.5418 17.1197 15.5059 17.19 15.4399L17.8299 14.8601L18.4601 15.4399C18.534 15.5065 18.6304 15.5424 18.7298 15.54C18.7846 15.5399 18.8388 15.5283 18.8888 15.5059C18.9387 15.4835 18.9834 15.4507 19.0199 15.4099C19.0932 15.3351 19.1344 15.2346 19.1344 15.1299C19.1344 15.0252 19.0932 14.9249 19.0199 14.8501L18.44 14.3301L18.42 14.3501Z" fill="white"/>
</svg>
