<svg width="73" height="31" viewBox="0 0 73 31" fill="none" xmlns="http://www.w3.org/2000/svg">
<path d="M23.3 0.0599904H12.85C11.6463 0.0553639 10.4616 0.361106 9.41055 0.94793C8.35952 1.53475 7.47767 2.38268 6.85001 3.40984L1.96011 11.4098C1.2846 12.5111 0.92691 13.778 0.92691 15.07C0.92691 16.362 1.2846 17.6286 1.96011 18.7299L6.85001 26.7299C7.47767 27.7571 8.35952 28.605 9.41055 29.1918C10.4616 29.7786 11.6463 30.0846 12.85 30.08H23.35C24.5538 30.0846 25.7384 29.7786 26.7895 29.1918C27.8405 28.605 28.7223 27.7571 29.35 26.7299L34.2299 18.7299C34.9054 17.6286 35.2631 16.362 35.2631 15.07C35.2631 13.778 34.9054 12.5111 34.2299 11.4098L29.35 3.40984C28.718 2.37538 27.828 1.52296 26.7675 0.935723C25.707 0.348485 24.5121 0.0467111 23.3 0.0599904Z" fill="#F86AFF"/>
<path d="M37.39 0.0699463H19.03L9.85001 15.0699L19.03 30.0699H37.39L46.58 15.0699L37.39 0.0699463Z" fill="#F86AFF"/>
<path d="M43.97 0.0699463H25.61L16.43 15.0699L25.61 30.0699H43.97L53.15 15.0699L43.97 0.0699463Z" fill="#F86AFF"/>
<path d="M57.25 0.0699463H38.89L29.71 15.0699L38.89 30.0699H57.25L66.43 15.0699L57.25 0.0699463Z" fill="#F86AFF"/>
<path d="M60.09 0H50.1901C48.8979 0.00293499 47.628 0.336193 46.5009 0.968018C45.3737 1.59984 44.4266 2.50936 43.7499 3.61011L39.1901 11.1101C38.4645 12.2962 38.0804 13.6596 38.0804 15.05C38.0804 16.4405 38.4645 17.8039 39.1901 18.99L43.7499 26.4399C44.4266 27.5407 45.3737 28.4502 46.5009 29.082C47.628 29.7139 48.8979 30.0471 50.1901 30.05H60.09C61.3827 30.05 62.6538 29.718 63.7814 29.0859C64.909 28.4538 65.8553 27.5427 66.5299 26.4399L71.09 18.99C71.8156 17.8039 72.1996 16.4405 72.1996 15.05C72.1996 13.6596 71.8156 12.2962 71.09 11.1101L66.5299 3.65991C65.8614 2.5479 64.9177 1.62692 63.7897 0.98584C62.6616 0.344755 61.3874 0.00528817 60.09 0Z" fill="#F86AFF"/>
<path d="M38.983 8.19305C39.629 8.19305 40.332 8.23105 41.092 8.30705C41.852 8.37038 42.593 8.50972 43.315 8.72505L43.125 10.644C42.5677 10.6314 41.9154 10.6187 41.168 10.606C40.4207 10.5934 39.686 10.587 38.964 10.587C38.6094 10.587 38.3054 10.5997 38.052 10.625C37.8114 10.6377 37.615 10.6884 37.463 10.777C37.311 10.853 37.2034 10.9734 37.14 11.138C37.0767 11.3027 37.045 11.5307 37.045 11.822C37.045 12.2654 37.1464 12.5884 37.349 12.791C37.5644 12.9937 37.9254 13.1774 38.432 13.342L40.959 14.159C42.0104 14.5137 42.7387 14.995 43.144 15.603C43.5494 16.211 43.752 17.009 43.752 17.997C43.752 18.7444 43.6634 19.365 43.486 19.859C43.3087 20.353 43.03 20.7394 42.65 21.018C42.27 21.2967 41.7697 21.493 41.149 21.607C40.5284 21.7337 39.7684 21.797 38.869 21.797C38.4384 21.797 37.824 21.7654 37.026 21.702C36.228 21.6514 35.316 21.512 34.29 21.284L34.48 19.232C35.2274 19.2447 35.8734 19.2637 36.418 19.289C36.9754 19.3017 37.4504 19.3144 37.843 19.327C38.2357 19.327 38.5777 19.327 38.869 19.327C39.3757 19.327 39.7684 19.2954 40.047 19.232C40.3384 19.1687 40.541 19.042 40.655 18.852C40.769 18.662 40.826 18.3897 40.826 18.035C40.826 17.731 40.7817 17.4904 40.693 17.313C40.617 17.123 40.484 16.9774 40.294 16.876C40.1167 16.762 39.8697 16.6607 39.553 16.572L36.893 15.66C35.8924 15.2927 35.183 14.8114 34.765 14.216C34.347 13.6207 34.138 12.8354 34.138 11.86C34.138 11.1 34.2267 10.4857 34.404 10.017C34.594 9.53571 34.879 9.16205 35.259 8.89605C35.6517 8.63005 36.152 8.44638 36.76 8.34505C37.3807 8.24372 38.1217 8.19305 38.983 8.19305ZM51.0088 8.17405C52.0475 8.17405 52.9278 8.28805 53.6498 8.51605C54.3718 8.73138 54.9482 9.09871 55.3788 9.61805C55.8222 10.1247 56.1452 10.8214 56.3478 11.708C56.5505 12.582 56.6518 13.6777 56.6518 14.995C56.6518 16.3124 56.5505 17.4144 56.3478 18.301C56.1452 19.175 55.8222 19.8717 55.3788 20.391C54.9482 20.8977 54.3718 21.265 53.6498 21.493C52.9278 21.7084 52.0475 21.816 51.0088 21.816C49.9702 21.816 49.0898 21.7084 48.3678 21.493C47.6458 21.265 47.0632 20.8977 46.6198 20.391C46.1765 19.8717 45.8535 19.175 45.6508 18.301C45.4482 17.4144 45.3468 16.3124 45.3468 14.995C45.3468 13.6777 45.4482 12.582 45.6508 11.708C45.8535 10.8214 46.1765 10.1247 46.6198 9.61805C47.0632 9.09871 47.6458 8.73138 48.3678 8.51605C49.0898 8.28805 49.9702 8.17405 51.0088 8.17405ZM51.0088 10.473C50.3375 10.473 49.8118 10.606 49.4318 10.872C49.0645 11.138 48.7985 11.6004 48.6338 12.259C48.4818 12.905 48.4058 13.817 48.4058 14.995C48.4058 16.1604 48.4818 17.0724 48.6338 17.731C48.7985 18.3897 49.0645 18.852 49.4318 19.118C49.8118 19.384 50.3375 19.517 51.0088 19.517C51.6675 19.517 52.1805 19.384 52.5478 19.118C52.9278 18.852 53.1938 18.3897 53.3458 17.731C53.5105 17.0724 53.5928 16.1604 53.5928 14.995C53.5928 13.817 53.5105 12.905 53.3458 12.259C53.1938 11.6004 52.9278 11.138 52.5478 10.872C52.1805 10.606 51.6675 10.473 51.0088 10.473Z" fill="white"/>
<path d="M18.0199 9.45996C17.1876 9.50556 16.3786 9.75173 15.662 10.1775C14.9454 10.6033 14.3425 11.1961 13.9044 11.9053C13.4663 12.6144 13.2061 13.4188 13.1461 14.2502C13.0861 15.0816 13.2282 15.9152 13.5599 16.6799C13.1654 15.7167 13.1345 14.643 13.473 13.6587C13.8115 12.6744 14.4965 11.8468 15.4 11.3301C16.1978 10.8864 17.1111 10.6946 18.0199 10.78C18.1949 10.78 18.3629 10.7104 18.4867 10.5867C18.6105 10.4629 18.68 10.2952 18.68 10.1201C18.68 9.94507 18.6105 9.77709 18.4867 9.65332C18.3629 9.52955 18.1949 9.45996 18.0199 9.45996Z" fill="white"/>
<path d="M18.9401 10.1499C19.9712 10.2906 20.916 10.8014 21.5985 11.5869C22.2811 12.3725 22.6548 13.3793 22.6501 14.4199C22.6427 15.3321 22.3527 16.2195 21.82 16.96C21.7759 17.0351 21.7473 17.1184 21.736 17.2048C21.7247 17.2912 21.731 17.3789 21.7543 17.4629C21.7776 17.5469 21.8175 17.6254 21.8717 17.6936C21.926 17.7618 21.9934 17.8185 22.07 17.8601C22.1428 17.9062 22.2241 17.9368 22.3092 17.9502C22.3943 17.9636 22.4814 17.9593 22.5648 17.9377C22.6483 17.9162 22.7264 17.8779 22.7943 17.825C22.8623 17.772 22.9188 17.7055 22.9601 17.6299C23.338 16.8876 23.531 16.0651 23.5226 15.2322C23.5142 14.3993 23.3046 13.5807 22.9118 12.8462C22.519 12.1117 21.9546 11.4829 21.2665 11.0134C20.5784 10.544 19.7873 10.2477 18.9601 10.1499H18.9401Z" fill="white"/>
<path d="M13.9799 16.8302C13.8686 16.8401 13.7603 16.8704 13.6601 16.92C13.5092 17.0078 13.3992 17.152 13.3542 17.3207C13.3092 17.4893 13.333 17.6689 13.4201 17.8202C13.8749 18.5201 14.4923 19.0993 15.2197 19.5087C15.9471 19.918 16.7628 20.1452 17.5971 20.1708C18.4314 20.1963 19.2594 20.0195 20.0105 19.6554C20.7615 19.2913 21.4134 18.751 21.9101 18.0802C21.2718 18.9006 20.358 19.462 19.3376 19.6605C18.3173 19.8591 17.2594 19.6812 16.3601 19.16C15.5701 18.6925 14.942 17.9947 14.56 17.16C14.5069 17.0538 14.4235 16.9658 14.3203 16.9071C14.217 16.8483 14.0984 16.8216 13.9799 16.8302Z" fill="white"/>
<path d="M18.4899 7.11011C17.2584 7.10932 16.0438 7.39635 14.943 7.94849C13.8422 8.50062 12.8858 9.3025 12.1501 10.29C12.7932 9.45933 13.6131 8.78232 14.5507 8.30835C15.4882 7.83438 16.5197 7.57539 17.57 7.55005C18.8574 7.52313 20.1272 7.8518 21.2399 8.5C22.5259 9.25525 23.5463 10.3907 24.1601 11.75C24.2026 11.8296 24.261 11.8997 24.3317 11.9558C24.4024 12.012 24.4838 12.053 24.571 12.0764C24.6581 12.0998 24.749 12.1052 24.8383 12.092C24.9276 12.0789 25.0133 12.0476 25.09 12C25.2428 11.9064 25.3538 11.7577 25.4003 11.5847C25.4468 11.4117 25.4252 11.2276 25.34 11.0701C24.6472 9.86602 23.6491 8.86591 22.4464 8.17066C21.2438 7.47541 19.879 7.10965 18.4899 7.11011Z" fill="white"/>
<path d="M25.09 12C25.7424 13.575 25.7976 15.3339 25.2453 16.9468C24.6929 18.5596 23.571 19.9156 22.09 20.76C20.7906 21.4957 19.2962 21.8133 17.81 21.6699C17.7195 21.6656 17.6293 21.6805 17.5448 21.7131C17.4604 21.7458 17.3837 21.7956 17.3197 21.8596C17.2557 21.9236 17.2057 22.0003 17.173 22.0847C17.1403 22.1692 17.1258 22.2597 17.13 22.3501C17.1327 22.5287 17.2054 22.6991 17.3327 22.8245C17.4599 22.9498 17.6313 23.02 17.81 23.02C19.1165 23.0206 20.4028 22.6971 21.5536 22.0786C22.7044 21.4601 23.6838 20.5658 24.4042 19.4758C25.1246 18.3859 25.5634 17.1342 25.6813 15.833C25.7992 14.5318 25.5927 13.2217 25.08 12.02L25.09 12Z" fill="white"/>
<path d="M17.1401 22.3501C16.0986 22.2088 15.102 21.8364 14.2231 21.2602C13.3441 20.6841 12.605 19.9186 12.06 19.02C11.3978 17.9182 11.0519 16.6555 11.06 15.3701C11.0773 13.8801 11.5522 12.4312 12.4201 11.22C12.4677 11.1433 12.499 11.0576 12.5121 10.9683C12.5253 10.879 12.5199 10.7881 12.4965 10.7009C12.4731 10.6138 12.4321 10.5323 12.3759 10.4617C12.3197 10.391 12.2497 10.3326 12.1701 10.29C12.0926 10.2453 12.0071 10.2163 11.9184 10.2046C11.8297 10.1929 11.7396 10.1987 11.6532 10.2219C11.5669 10.2451 11.4859 10.2853 11.415 10.3398C11.3441 10.3944 11.2845 10.4625 11.2399 10.54C10.5852 11.6741 10.2223 12.953 10.1838 14.262C10.1452 15.5709 10.4321 16.8689 11.019 18.0395C11.6058 19.2102 12.474 20.2169 13.5458 20.9692C14.6176 21.7216 15.8597 22.1961 17.1601 22.3501H17.1401Z" fill="white"/>
</svg>
