<svg width="70" height="30" viewBox="0 0 70 30" fill="none" xmlns="http://www.w3.org/2000/svg">
<rect width="70" height="30" rx="15" fill="#DCCCDC"/>
<path d="M30.7159 12.0909C30.6307 11.3712 30.285 10.8125 29.679 10.4148C29.0729 10.017 28.3295 9.81818 27.4489 9.81818C26.8049 9.81818 26.2415 9.92235 25.7585 10.1307C25.2803 10.339 24.9063 10.6255 24.6364 10.9901C24.3712 11.3546 24.2386 11.7689 24.2386 12.233C24.2386 12.6212 24.331 12.955 24.5156 13.2344C24.705 13.509 24.9465 13.7386 25.2401 13.9233C25.5336 14.1032 25.8414 14.2524 26.1634 14.3707C26.4853 14.4844 26.7812 14.5767 27.0511 14.6477L28.5284 15.0455C28.9072 15.1449 29.3286 15.2822 29.7926 15.4574C30.2614 15.6326 30.7088 15.8717 31.1349 16.1747C31.5658 16.473 31.9209 16.8565 32.2003 17.3253C32.4796 17.794 32.6193 18.3693 32.6193 19.0511C32.6193 19.8371 32.4134 20.5473 32.0014 21.1818C31.5942 21.8163 30.9976 22.3205 30.2116 22.6946C29.4304 23.0687 28.4811 23.2557 27.3636 23.2557C26.322 23.2557 25.42 23.0876 24.6577 22.7514C23.9001 22.4152 23.3035 21.9465 22.8679 21.3452C22.437 20.7438 22.1932 20.0455 22.1364 19.25H23.9545C24.0019 19.7992 24.1866 20.2538 24.5085 20.6136C24.8352 20.9687 25.2472 21.2339 25.7443 21.4091C26.2462 21.5795 26.786 21.6648 27.3636 21.6648C28.036 21.6648 28.6397 21.5559 29.1747 21.3381C29.7098 21.1155 30.1335 20.8078 30.446 20.4148C30.7585 20.017 30.9148 19.553 30.9148 19.0227C30.9148 18.5398 30.7798 18.1468 30.5099 17.8438C30.2401 17.5407 29.8849 17.2945 29.4446 17.1051C29.0043 16.9157 28.5284 16.75 28.017 16.608L26.2273 16.0966C25.0909 15.7699 24.1913 15.3035 23.5284 14.6974C22.8655 14.0914 22.5341 13.2983 22.5341 12.3182C22.5341 11.5038 22.7543 10.7936 23.1946 10.1875C23.6397 9.5767 24.2363 9.10322 24.9844 8.76705C25.7372 8.42614 26.5777 8.25568 27.5057 8.25568C28.4432 8.25568 29.2765 8.42377 30.0057 8.75994C30.7348 9.09138 31.3125 9.54593 31.7386 10.1236C32.1695 10.7012 32.3968 11.357 32.4205 12.0909H30.7159ZM47.788 15.7273C47.788 17.2614 47.511 18.5871 46.957 19.7045C46.4031 20.822 45.6431 21.6837 44.6772 22.2898C43.7113 22.8958 42.6081 23.1989 41.3675 23.1989C40.127 23.1989 39.0238 22.8958 38.0579 22.2898C37.092 21.6837 36.332 20.822 35.7781 19.7045C35.2241 18.5871 34.9471 17.2614 34.9471 15.7273C34.9471 14.1932 35.2241 12.8674 35.7781 11.75C36.332 10.6326 37.092 9.77083 38.0579 9.16477C39.0238 8.55871 40.127 8.25568 41.3675 8.25568C42.6081 8.25568 43.7113 8.55871 44.6772 9.16477C45.6431 9.77083 46.4031 10.6326 46.957 11.75C47.511 12.8674 47.788 14.1932 47.788 15.7273ZM46.0835 15.7273C46.0835 14.4678 45.8728 13.4048 45.4513 12.5384C45.0347 11.6719 44.4689 11.0161 43.7539 10.571C43.0437 10.1259 42.2482 9.90341 41.3675 9.90341C40.4869 9.90341 39.689 10.1259 38.9741 10.571C38.2638 11.0161 37.698 11.6719 37.2766 12.5384C36.86 13.4048 36.6516 14.4678 36.6516 15.7273C36.6516 16.9867 36.86 18.0497 37.2766 18.9162C37.698 19.7827 38.2638 20.4384 38.9741 20.8835C39.689 21.3286 40.4869 21.5511 41.3675 21.5511C42.2482 21.5511 43.0437 21.3286 43.7539 20.8835C44.4689 20.4384 45.0347 19.7827 45.4513 18.9162C45.8728 18.0497 46.0835 16.9867 46.0835 15.7273Z" fill="white"/>
</svg>
