<svg width="72" height="31" viewBox="0 0 72 31" fill="none" xmlns="http://www.w3.org/2000/svg">
<path d="M22.7499 0.0801298H12.2499C11.0461 0.0755033 9.8617 0.381489 8.81067 0.968313C7.75964 1.55514 6.87754 2.40307 6.24988 3.43023L1.35999 11.4302C0.684477 12.5315 0.327026 13.7979 0.327026 15.0899C0.327026 16.3819 0.684477 17.6488 1.35999 18.7501L6.24988 26.7501C6.87754 27.7772 7.75964 28.6251 8.81067 29.212C9.8617 29.7988 11.0461 30.1048 12.2499 30.1001H22.7499C23.9536 30.1048 25.1383 29.7988 26.1893 29.212C27.2404 28.6251 28.1222 27.7772 28.7499 26.7501L33.63 18.7501C34.3055 17.6488 34.663 16.3819 34.663 15.0899C34.663 13.7979 34.3055 12.5315 33.63 11.4302L28.7499 3.43023C28.1222 2.40307 27.2404 1.55514 26.1893 0.968313C25.1383 0.381489 23.9536 0.0755033 22.7499 0.0801298Z" fill="#F7CE4D"/>
<path d="M36.84 0.0899658H18.48L9.29999 15.09L18.48 30.08H36.84L46.03 15.09L36.84 0.0899658Z" fill="#F7CE4D"/>
<path d="M43.42 0.0899658H25.06L15.88 15.09L25.06 30.08H43.42L52.6 15.09L43.42 0.0899658Z" fill="#F7CE4D"/>
<path d="M56.7 0.0899658H38.34L29.16 15.09L38.34 30.08H56.7L65.88 15.09L56.7 0.0899658Z" fill="#F7CE4D"/>
<path d="M59.5399 0.0600586H49.64C48.3473 0.060129 47.0762 0.391829 45.9486 1.02393C44.821 1.65602 43.8747 2.56721 43.2001 3.66992L38.64 11.1699C37.9144 12.356 37.5304 13.7194 37.5304 15.1099C37.5304 16.5003 37.9144 17.8637 38.64 19.0498L43.2001 26.5C43.8747 27.6027 44.821 28.5139 45.9486 29.146C47.0762 29.7781 48.3473 30.1098 49.64 30.1099H59.5399C60.8326 30.1098 62.1037 29.7781 63.2313 29.146C64.3589 28.5139 65.3053 27.6027 65.9799 26.5L70.5399 19.0498C71.2655 17.8637 71.6495 16.5003 71.6495 15.1099C71.6495 13.7194 71.2655 12.356 70.5399 11.1699L65.9799 3.72021C65.3114 2.60821 64.3677 1.68698 63.2396 1.0459C62.1116 0.404813 60.8374 0.0653468 59.5399 0.0600586Z" fill="#F7CE4D"/>
<path d="M42.823 8.41002V21.52H39.916V8.41002H42.823ZM46.775 8.41002V10.69H35.983V8.41002H46.775ZM53.5497 8.22002C54.5884 8.22002 55.4624 8.33402 56.1717 8.56202C56.8937 8.77735 57.4701 9.13835 57.9007 9.64502C58.3441 10.1517 58.6671 10.842 58.8697 11.716C59.0724 12.5774 59.1737 13.6604 59.1737 14.965C59.1737 16.2697 59.0724 17.359 58.8697 18.233C58.6671 19.0944 58.3441 19.7784 57.9007 20.285C57.4701 20.7917 56.8937 21.159 56.1717 21.387C55.4624 21.6024 54.5884 21.71 53.5497 21.71C52.5491 21.71 51.6307 21.691 50.7947 21.653C49.9587 21.615 49.1607 21.5707 48.4007 21.52L49.6167 19.373C50.0981 19.3984 50.6681 19.4237 51.3267 19.449C51.9981 19.4617 52.7391 19.468 53.5497 19.468C54.1957 19.468 54.7024 19.3414 55.0697 19.088C55.4497 18.822 55.7157 18.3597 55.8677 17.701C56.0324 17.0424 56.1147 16.1304 56.1147 14.965C56.1147 13.7997 56.0324 12.8877 55.8677 12.229C55.7157 11.5704 55.4497 11.108 55.0697 10.842C54.7024 10.576 54.1957 10.443 53.5497 10.443C52.7771 10.443 52.0867 10.4494 51.4787 10.462C50.8707 10.462 50.2754 10.462 49.6927 10.462L48.4007 8.41002C49.1607 8.35935 49.9524 8.31502 50.7757 8.27702C51.6117 8.23902 52.5364 8.22002 53.5497 8.22002ZM51.3077 8.41002V21.52H48.4007V8.41002H51.3077Z" fill="white"/>
<path d="M21.56 11.0001C21.4666 10.9764 21.3861 10.9173 21.3357 10.8351C21.2852 10.7529 21.2688 10.6542 21.29 10.5602C21.3519 10.3252 21.3823 10.0829 21.3801 9.83995C21.4052 9.37595 21.3355 8.91187 21.1753 8.4757C21.015 8.03952 20.7676 7.64068 20.448 7.30333C20.1284 6.96599 19.7433 6.6974 19.3164 6.51378C18.8895 6.33017 18.4297 6.23546 17.9651 6.23546C17.5004 6.23546 17.0406 6.33017 16.6137 6.51378C16.1869 6.6974 15.8017 6.96599 15.4822 7.30333C15.1626 7.64068 14.9151 8.03952 14.7549 8.4757C14.5946 8.91187 14.5249 9.37595 14.55 9.83995C14.5513 10.2845 14.6404 10.7248 14.812 11.1349C14.9836 11.545 15.2344 11.9171 15.55 12.2301C15.5833 12.2627 15.6099 12.3014 15.6279 12.3443C15.6459 12.3873 15.655 12.4335 15.655 12.4801C15.655 12.5267 15.6459 12.5729 15.6279 12.6158C15.6099 12.6588 15.5833 12.6975 15.55 12.7301C15.4844 12.7982 15.3946 12.8376 15.3 12.84C15.2515 12.8401 15.2036 12.8305 15.1589 12.8116C15.1142 12.7927 15.0737 12.765 15.04 12.7301C14.4747 12.1452 14.0947 11.4066 13.9477 10.6066C13.8007 9.80654 13.8934 8.98067 14.2138 8.23302C14.5343 7.48538 15.0683 6.84921 15.749 6.40392C16.4297 5.95863 17.2266 5.72413 18.04 5.73009C19.1363 5.73009 20.188 6.16484 20.9641 6.93908C21.7402 7.71331 22.1775 8.76371 22.1801 9.85997C22.1805 10.1633 22.1435 10.4655 22.07 10.7599C22.0576 10.8126 22.0334 10.8623 21.9992 10.9044C21.9651 10.9465 21.922 10.98 21.873 11.003C21.824 11.0261 21.7705 11.0377 21.7163 11.0372C21.6621 11.0367 21.6086 11.0241 21.56 11.0001Z" fill="white"/>
<path d="M15.27 9.87988C15.2476 9.51216 15.3007 9.1438 15.426 8.79736C15.5513 8.45092 15.7463 8.13403 15.9988 7.86572C16.2512 7.59742 16.5559 7.38345 16.894 7.2373C17.2322 7.09116 17.5967 7.01562 17.9651 7.01562C18.3335 7.01562 18.698 7.09116 19.0361 7.2373C19.3743 7.38345 19.6789 7.59742 19.9314 7.86572C20.1838 8.13403 20.3788 8.45092 20.5041 8.79736C20.6294 9.1438 20.6826 9.51216 20.6602 9.87988C20.6602 9.97536 20.6222 10.0673 20.5547 10.1348C20.4872 10.2023 20.3955 10.2402 20.3 10.2402C20.2046 10.2402 20.1132 10.2023 20.0456 10.1348C19.9781 10.0673 19.9402 9.97536 19.9402 9.87988C19.9402 9.34945 19.7293 8.84089 19.3542 8.46582C18.9792 8.09075 18.4706 7.87988 17.9402 7.87988C17.4097 7.87988 16.9009 8.09075 16.5259 8.46582C16.1508 8.84089 15.9402 9.34945 15.9402 9.87988C15.9489 9.93149 15.9462 9.98468 15.9324 10.0352C15.9185 10.0856 15.8937 10.1324 15.8599 10.1724C15.8261 10.2123 15.784 10.2441 15.7366 10.2661C15.6891 10.2881 15.6375 10.2998 15.5852 10.2998C15.5329 10.2998 15.4811 10.2881 15.4336 10.2661C15.3861 10.2441 15.3441 10.2123 15.3103 10.1724C15.2765 10.1324 15.2516 10.0856 15.2378 10.0352C15.224 9.98468 15.2213 9.93149 15.23 9.87988H15.27Z" fill="white"/>
<path d="M13.2799 16.3198L14.7999 18.7598C15.1661 19.347 15.6295 19.8678 16.1701 20.2998L16.9301 20.9102C16.9706 20.9447 17.0031 20.9873 17.0255 21.0356C17.048 21.084 17.0597 21.1367 17.06 21.1899V21.9199C17.06 22.2064 17.1738 22.4811 17.3764 22.6836C17.5789 22.8861 17.8536 23 18.14 23H22.14C22.2814 23 22.4214 22.9719 22.5519 22.9175C22.6824 22.8631 22.8006 22.7835 22.9 22.6831C22.9995 22.5827 23.0783 22.4635 23.1315 22.3325C23.1847 22.2015 23.2114 22.0613 23.2101 21.9199V21.0898C23.2124 20.9346 23.2463 20.7818 23.31 20.6401L24.1901 18.71C24.4912 18.0366 24.6479 17.3075 24.65 16.5698V13.7402C24.65 13.5081 24.5853 13.2805 24.4633 13.083C24.3412 12.8855 24.1668 12.7259 23.9591 12.6221C23.7515 12.5183 23.5189 12.4743 23.2877 12.4951C23.0565 12.516 22.8358 12.601 22.65 12.7402C22.5394 12.5587 22.3837 12.4086 22.1979 12.3052C22.0121 12.2018 21.8026 12.1482 21.59 12.1499C21.3281 12.1448 21.0717 12.2256 20.86 12.3799C20.7463 12.1989 20.5885 12.05 20.4013 11.9468C20.2141 11.8436 20.0037 11.7895 19.7899 11.79C19.6031 11.7882 19.4183 11.8293 19.2499 11.9102V9.91016C19.2499 9.57598 19.1173 9.25534 18.881 9.01904C18.6447 8.78275 18.3241 8.6499 17.9899 8.6499C17.6557 8.6499 17.3353 8.78275 17.099 9.01904C16.8627 9.25534 16.7299 9.57598 16.7299 9.91016V16.6602L15.4301 15.1401C15.224 14.9037 14.9454 14.7422 14.6378 14.6807C14.3303 14.6192 14.011 14.6608 13.7299 14.7998C13.5966 14.8695 13.479 14.966 13.3844 15.083C13.2898 15.2 13.2204 15.3351 13.1801 15.48C13.1389 15.6259 13.1291 15.7792 13.1515 15.9292C13.1739 16.0792 13.2279 16.2226 13.31 16.3501L13.2799 16.3198ZM13.84 15.6401C13.852 15.5911 13.8756 15.5456 13.9086 15.5073C13.9416 15.4691 13.9831 15.439 14.0299 15.4199C14.1645 15.3498 14.3189 15.3274 14.4679 15.3564C14.6169 15.3855 14.7517 15.4645 14.85 15.5801L16.7899 17.8398C16.8371 17.8972 16.9009 17.9388 16.9726 17.9585C17.0442 17.9782 17.1202 17.9754 17.1901 17.9502C17.2577 17.9226 17.3157 17.8754 17.3566 17.8149C17.3975 17.7544 17.4196 17.6829 17.4201 17.6099V9.87988C17.4201 9.73667 17.477 9.59932 17.5783 9.49805C17.6795 9.39678 17.8169 9.33984 17.9601 9.33984C18.1033 9.33984 18.2407 9.39678 18.3419 9.49805C18.4432 9.59932 18.4999 9.73667 18.4999 9.87988V15.0898C18.4999 15.1853 18.5379 15.2772 18.6054 15.3447C18.6729 15.4122 18.7645 15.4502 18.86 15.4502C18.9555 15.4502 19.0471 15.4122 19.1146 15.3447C19.1822 15.2772 19.2201 15.1853 19.2201 15.0898V13C19.2201 12.8568 19.2768 12.7194 19.3781 12.6182C19.4793 12.5169 19.6167 12.46 19.7599 12.46C19.9031 12.46 20.0405 12.5169 20.1417 12.6182C20.243 12.7194 20.2999 12.8568 20.2999 13V15.0698C20.2999 15.1171 20.3092 15.1643 20.3273 15.208C20.3454 15.2517 20.372 15.2913 20.4054 15.3247C20.4388 15.3581 20.4784 15.3847 20.5221 15.4028C20.5658 15.4209 20.6128 15.4302 20.6601 15.4302C20.7073 15.4302 20.7541 15.4209 20.7978 15.4028C20.8414 15.3847 20.881 15.3581 20.9145 15.3247C20.9479 15.2913 20.9745 15.2517 20.9926 15.208C21.0107 15.1643 21.0199 15.1171 21.0199 15.0698V13.3599C21.0225 13.2184 21.0806 13.0835 21.1815 12.9844C21.2825 12.8853 21.4185 12.8301 21.56 12.8301C21.7015 12.8301 21.8374 12.8853 21.9384 12.9844C22.0394 13.0835 22.0974 13.2184 22.1 13.3599V15.0698C22.1 15.1653 22.138 15.2572 22.2055 15.3247C22.273 15.3922 22.3646 15.4302 22.4601 15.4302C22.5556 15.4302 22.647 15.3922 22.7145 15.3247C22.782 15.2572 22.82 15.1653 22.82 15.0698V13.7202C22.8095 13.6438 22.8155 13.5661 22.8375 13.4922C22.8596 13.4183 22.8975 13.3496 22.9481 13.2915C22.9988 13.2334 23.0613 13.1872 23.1315 13.1553C23.2017 13.1234 23.2778 13.1064 23.3549 13.1064C23.432 13.1064 23.5083 13.1234 23.5785 13.1553C23.6487 13.1872 23.7112 13.2334 23.7619 13.2915C23.8126 13.3496 23.8504 13.4183 23.8725 13.4922C23.8945 13.5661 23.9005 13.6438 23.89 13.7202V16.5498C23.8936 17.1851 23.7569 17.8137 23.4899 18.3901L22.62 20.3198C22.5128 20.5552 22.4583 20.8112 22.4601 21.0698V21.8999C22.4601 21.9954 22.4222 22.0873 22.3546 22.1548C22.2871 22.2223 22.1955 22.2598 22.1 22.2598H18.1C18.0045 22.2598 17.9129 22.2223 17.8454 22.1548C17.7778 22.0873 17.7399 21.9954 17.7399 21.8999V21.1699C17.7463 21.008 17.7134 20.847 17.6437 20.7007C17.574 20.5544 17.4697 20.4272 17.34 20.3301L16.58 19.7202C16.1004 19.3409 15.6909 18.8803 15.37 18.3599L13.85 15.9102C13.8205 15.8687 13.8005 15.8207 13.7919 15.7705C13.7832 15.7203 13.786 15.6691 13.7999 15.6201L13.84 15.6401Z" fill="white"/>
</svg>
