<svg width="32" height="14" viewBox="0 0 32 14" fill="none" xmlns="http://www.w3.org/2000/svg">
<rect width="32" height="14" rx="7" fill="#B8E0D3"/>
<path d="M15.3813 3.188C15.9213 3.38 16.1733 3.86 15.9813 4.424L13.9773 10.34C13.8453 10.76 13.4613 11.036 13.0173 11.036C12.5493 11.036 12.2133 10.784 12.0453 10.328L10.9413 7.316L9.8493 10.328C9.6813 10.784 9.3453 11.036 8.8653 11.036C8.4213 11.036 8.0373 10.76 7.9173 10.34L5.9133 4.424C5.7213 3.86 5.9733 3.368 6.5133 3.188C7.0533 3.008 7.5693 3.212 7.7373 3.752L8.9253 8.072L10.0053 4.58C10.1253 4.172 10.5093 3.896 10.9413 3.896C11.3853 3.896 11.7693 4.172 11.8893 4.568L12.9573 8.084L14.1813 3.728C14.3613 3.188 14.8293 3.008 15.3813 3.188ZM17.9531 3.116C18.5171 3.116 18.9131 3.548 18.9131 4.112V10.004C18.9131 10.568 18.5171 11 17.9531 11C17.3891 11 16.9931 10.568 16.9931 10.004V4.112C16.9931 3.548 17.3891 3.116 17.9531 3.116ZM23.2289 3.116C25.2089 3.116 26.1689 4.568 26.1689 5.972C26.1689 7.544 25.0289 8.864 23.2889 8.864H22.0409V10.004C22.0409 10.568 21.6449 11 21.0809 11C20.5169 11 20.1209 10.568 20.1209 10.004V4.112C20.1209 3.548 20.5169 3.116 21.0809 3.116H23.2289ZM23.0129 7.076C23.9729 7.076 24.2489 6.584 24.2489 5.972C24.2489 5.36 23.9609 4.892 23.0729 4.892H22.0409V7.076H23.0129Z" fill="#394642"/>
</svg>
