<svg width="90" height="14" viewBox="0 0 90 14" fill="none" xmlns="http://www.w3.org/2000/svg">
<rect width="90" height="14" rx="7" fill="#B8E0D3"/>
<path d="M44.3813 3.188C44.9213 3.38 45.1733 3.86 44.9813 4.424L42.9773 10.34C42.8453 10.76 42.4613 11.036 42.0173 11.036C41.5493 11.036 41.2133 10.784 41.0453 10.328L39.9413 7.316L38.8493 10.328C38.6813 10.784 38.3453 11.036 37.8653 11.036C37.4213 11.036 37.0373 10.76 36.9173 10.34L34.9133 4.424C34.7213 3.86 34.9733 3.368 35.5133 3.188C36.0533 3.008 36.5693 3.212 36.7373 3.752L37.9253 8.072L39.0053 4.58C39.1253 4.172 39.5093 3.896 39.9413 3.896C40.3853 3.896 40.7693 4.172 40.8893 4.568L41.9573 8.084L43.1813 3.728C43.3613 3.188 43.8293 3.008 44.3813 3.188ZM46.9531 3.116C47.5171 3.116 47.9131 3.548 47.9131 4.112V10.004C47.9131 10.568 47.5171 11 46.9531 11C46.3891 11 45.9931 10.568 45.9931 10.004V4.112C45.9931 3.548 46.3891 3.116 46.9531 3.116ZM52.2289 3.116C54.2089 3.116 55.1689 4.568 55.1689 5.972C55.1689 7.544 54.0289 8.864 52.2889 8.864H51.0409V10.004C51.0409 10.568 50.6449 11 50.0809 11C49.5169 11 49.1209 10.568 49.1209 10.004V4.112C49.1209 3.548 49.5169 3.116 50.0809 3.116H52.2289ZM52.0129 7.076C52.9729 7.076 53.2489 6.584 53.2489 5.972C53.2489 5.36 52.9609 4.892 52.0729 4.892H51.0409V7.076H52.0129Z" fill="#394642"/>
</svg>
