<svg width="76" height="14" viewBox="0 0 76 14" fill="none" xmlns="http://www.w3.org/2000/svg">
<rect width="76" height="14" rx="7" fill="black"/>
<path d="M12.4441 6.296C12.9601 6.296 13.2601 6.548 13.2601 7.088V8.048C13.2601 10.088 11.4721 11.096 9.64813 11.096C7.57213 11.096 5.74813 9.584 5.74813 7.1C5.74813 4.652 7.47613 3.02 9.74413 3.02C10.8841 3.02 11.8321 3.428 12.2521 3.836C12.6841 4.232 12.6721 4.7 12.3841 5.096C12.0601 5.54 11.5441 5.54 11.1241 5.264C10.8001 5.036 10.3201 4.772 9.70813 4.772C8.49612 4.772 7.69213 5.672 7.69213 7.064C7.69213 8.504 8.62813 9.344 9.82813 9.344C10.8001 9.344 11.4121 8.792 11.4121 7.976V7.88H10.5721C10.0801 7.88 9.69613 7.628 9.69613 7.088C9.69613 6.548 10.0801 6.296 10.5721 6.296H12.4441ZM20.3788 9.488C20.6788 9.944 20.5828 10.508 20.1508 10.82C19.7068 11.132 19.1308 11.036 18.8068 10.568L18.0148 9.416C17.7748 9.056 17.4388 8.492 16.9228 8.492H16.2148V10.004C16.2148 10.568 15.8188 11 15.2548 11C14.6908 11 14.2948 10.568 14.2948 10.004V4.112C14.2948 3.548 14.6908 3.116 15.2548 3.116H17.6068C19.5148 3.116 20.4388 4.34 20.4388 5.684C20.4388 6.56 20.0668 7.46 19.2148 7.952C19.4068 8.12 19.5628 8.288 19.6948 8.492L20.3788 9.488ZM17.3308 6.944C18.2668 6.944 18.5428 6.452 18.5428 5.9C18.5428 5.348 18.2548 4.868 17.3908 4.868H16.2148V6.944H17.3308ZM28.3641 9.656C28.5921 10.184 28.3521 10.712 27.8361 10.928C27.3201 11.144 26.7801 10.892 26.5761 10.352L26.3121 9.68H23.3601L23.1081 10.352C22.9041 10.892 22.3641 11.144 21.8481 10.928C21.3201 10.712 21.0921 10.184 21.3201 9.656L23.9001 3.704C24.1041 3.248 24.4401 3.02 24.8361 3.02C25.2441 3.02 25.5801 3.248 25.7841 3.704L28.3641 9.656ZM23.9601 8.132H25.7241L24.8361 5.828L23.9601 8.132ZM34.1915 3.2C34.7075 3.416 34.9115 3.956 34.7075 4.484L32.2955 10.448C32.1395 10.832 31.8275 11.048 31.3955 11.048C30.9635 11.048 30.6515 10.832 30.4955 10.448L28.0835 4.484C27.8795 3.956 28.0955 3.416 28.6115 3.2C29.1275 2.984 29.7035 3.176 29.8715 3.704L31.3955 8.084L32.9195 3.728C33.0995 3.176 33.6635 2.972 34.1915 3.2ZM40.1092 9.188C40.6732 9.188 41.0692 9.56 41.0692 10.1C41.0692 10.628 40.6732 11 40.1092 11H36.6532C36.0892 11 35.6932 10.568 35.6932 10.004V4.112C35.6932 3.548 36.0892 3.116 36.6532 3.116H40.0492C40.6132 3.116 41.0092 3.488 41.0092 4.028C41.0092 4.556 40.6132 4.928 40.0492 4.928H37.5652V6.164H39.4732C39.9892 6.164 40.3732 6.512 40.3732 7.016C40.3732 7.508 39.9892 7.856 39.4732 7.856H37.5652V9.188H40.1092ZM47.2528 3.116C47.8168 3.116 48.2128 3.548 48.2128 4.112V4.892C48.2128 6.5 47.3968 7.7 46.0048 8.084V10.004C46.0048 10.568 45.6088 11 45.0448 11C44.4808 11 44.0848 10.568 44.0848 10.004V8.084C42.6928 7.7 41.8768 6.5 41.8768 4.892V4.112C41.8768 3.548 42.2607 3.116 42.8368 3.116C43.4008 3.116 43.7968 3.548 43.7968 4.112V4.928C43.7968 5.876 44.1928 6.452 45.0448 6.452C45.8968 6.452 46.2928 5.876 46.2928 4.928V4.112C46.2928 3.548 46.6888 3.116 47.2528 3.116ZM55.2703 9.656C55.4983 10.184 55.2583 10.712 54.7423 10.928C54.2263 11.144 53.6863 10.892 53.4823 10.352L53.2183 9.68H50.2663L50.0143 10.352C49.8103 10.892 49.2703 11.144 48.7543 10.928C48.2263 10.712 47.9983 10.184 48.2263 9.656L50.8063 3.704C51.0103 3.248 51.3463 3.02 51.7423 3.02C52.1503 3.02 52.4863 3.248 52.6903 3.704L55.2703 9.656ZM50.8663 8.132H52.6303L51.7423 5.828L50.8663 8.132ZM62.2498 9.488C62.5498 9.944 62.4538 10.508 62.0218 10.82C61.5778 11.132 61.0018 11.036 60.6778 10.568L59.8858 9.416C59.6458 9.056 59.3098 8.492 58.7938 8.492H58.0858V10.004C58.0858 10.568 57.6898 11 57.1258 11C56.5618 11 56.1658 10.568 56.1658 10.004V4.112C56.1658 3.548 56.5618 3.116 57.1258 3.116H59.4778C61.3858 3.116 62.3098 4.34 62.3098 5.684C62.3098 6.56 61.9378 7.46 61.0858 7.952C61.2778 8.12 61.4338 8.288 61.5658 8.492L62.2498 9.488ZM59.2018 6.944C60.1378 6.944 60.4138 6.452 60.4138 5.9C60.4138 5.348 60.1258 4.868 59.2618 4.868H58.0858V6.944H59.2018ZM66.3712 3.116C68.8312 3.116 70.2352 4.724 70.2352 7.028C70.2352 9.296 68.9032 11 66.4432 11H64.4032C63.8392 11 63.4432 10.568 63.4432 10.004V4.112C63.4432 3.548 63.8392 3.116 64.4032 3.116H66.3712ZM66.4432 9.188C67.8832 9.188 68.3032 8.192 68.3032 7.028C68.3032 5.816 67.8232 4.928 66.3712 4.928H65.3512V9.188H66.4432Z" fill="#5C7069"/>
</svg>
