<svg width="90" height="14" viewBox="0 0 90 14" fill="none" xmlns="http://www.w3.org/2000/svg">
<rect width="90" height="14" rx="7" fill="black"/>
<path d="M19.4441 6.296C19.9601 6.296 20.2601 6.548 20.2601 7.088V8.048C20.2601 10.088 18.4721 11.096 16.6481 11.096C14.5721 11.096 12.7481 9.584 12.7481 7.1C12.7481 4.652 14.4761 3.02 16.7441 3.02C17.8841 3.02 18.8321 3.428 19.2521 3.836C19.6841 4.232 19.6721 4.7 19.3841 5.096C19.0601 5.54 18.5441 5.54 18.1241 5.264C17.8001 5.036 17.3201 4.772 16.7081 4.772C15.4961 4.772 14.6921 5.672 14.6921 7.064C14.6921 8.504 15.6281 9.344 16.8281 9.344C17.8001 9.344 18.4121 8.792 18.4121 7.976V7.88H17.5721C17.0801 7.88 16.6961 7.628 16.6961 7.088C16.6961 6.548 17.0801 6.296 17.5721 6.296H19.4441ZM27.3788 9.488C27.6788 9.944 27.5828 10.508 27.1508 10.82C26.7068 11.132 26.1308 11.036 25.8068 10.568L25.0148 9.416C24.7748 9.056 24.4388 8.492 23.9228 8.492H23.2148V10.004C23.2148 10.568 22.8188 11 22.2548 11C21.6908 11 21.2948 10.568 21.2948 10.004V4.112C21.2948 3.548 21.6908 3.116 22.2548 3.116H24.6068C26.5148 3.116 27.4388 4.34 27.4388 5.684C27.4388 6.56 27.0668 7.46 26.2148 7.952C26.4068 8.12 26.5628 8.288 26.6948 8.492L27.3788 9.488ZM24.3308 6.944C25.2668 6.944 25.5428 6.452 25.5428 5.9C25.5428 5.348 25.2548 4.868 24.3908 4.868H23.2148V6.944H24.3308ZM35.3641 9.656C35.5921 10.184 35.3521 10.712 34.8361 10.928C34.3201 11.144 33.7801 10.892 33.5761 10.352L33.3121 9.68H30.3601L30.1081 10.352C29.9041 10.892 29.3641 11.144 28.8481 10.928C28.3201 10.712 28.0921 10.184 28.3201 9.656L30.9001 3.704C31.1041 3.248 31.4401 3.02 31.8361 3.02C32.2441 3.02 32.5801 3.248 32.7841 3.704L35.3641 9.656ZM30.9601 8.132H32.7241L31.8361 5.828L30.9601 8.132ZM41.1915 3.2C41.7075 3.416 41.9115 3.956 41.7075 4.484L39.2955 10.448C39.1395 10.832 38.8275 11.048 38.3955 11.048C37.9635 11.048 37.6515 10.832 37.4955 10.448L35.0835 4.484C34.8795 3.956 35.0955 3.416 35.6115 3.2C36.1275 2.984 36.7035 3.176 36.8715 3.704L38.3955 8.084L39.9195 3.728C40.0995 3.176 40.6635 2.972 41.1915 3.2ZM47.1092 9.188C47.6732 9.188 48.0692 9.56 48.0692 10.1C48.0692 10.628 47.6732 11 47.1092 11H43.6532C43.0892 11 42.6932 10.568 42.6932 10.004V4.112C42.6932 3.548 43.0892 3.116 43.6532 3.116H47.0492C47.6132 3.116 48.0092 3.488 48.0092 4.028C48.0092 4.556 47.6132 4.928 47.0492 4.928H44.5652V6.164H46.4732C46.9892 6.164 47.3732 6.512 47.3732 7.016C47.3732 7.508 46.9892 7.856 46.4732 7.856H44.5652V9.188H47.1092ZM54.2528 3.116C54.8168 3.116 55.2128 3.548 55.2128 4.112V4.892C55.2128 6.5 54.3968 7.7 53.0048 8.084V10.004C53.0048 10.568 52.6088 11 52.0448 11C51.4808 11 51.0848 10.568 51.0848 10.004V8.084C49.6928 7.7 48.8768 6.5 48.8768 4.892V4.112C48.8768 3.548 49.2607 3.116 49.8368 3.116C50.4008 3.116 50.7968 3.548 50.7968 4.112V4.928C50.7968 5.876 51.1928 6.452 52.0448 6.452C52.8968 6.452 53.2928 5.876 53.2928 4.928V4.112C53.2928 3.548 53.6888 3.116 54.2528 3.116ZM62.2703 9.656C62.4983 10.184 62.2583 10.712 61.7423 10.928C61.2263 11.144 60.6863 10.892 60.4823 10.352L60.2183 9.68H57.2663L57.0143 10.352C56.8103 10.892 56.2703 11.144 55.7543 10.928C55.2263 10.712 54.9983 10.184 55.2263 9.656L57.8063 3.704C58.0103 3.248 58.3463 3.02 58.7423 3.02C59.1503 3.02 59.4863 3.248 59.6903 3.704L62.2703 9.656ZM57.8663 8.132H59.6303L58.7423 5.828L57.8663 8.132ZM69.2498 9.488C69.5498 9.944 69.4538 10.508 69.0218 10.82C68.5778 11.132 68.0018 11.036 67.6778 10.568L66.8858 9.416C66.6458 9.056 66.3098 8.492 65.7938 8.492H65.0858V10.004C65.0858 10.568 64.6898 11 64.1258 11C63.5618 11 63.1658 10.568 63.1658 10.004V4.112C63.1658 3.548 63.5618 3.116 64.1258 3.116H66.4778C68.3858 3.116 69.3098 4.34 69.3098 5.684C69.3098 6.56 68.9378 7.46 68.0858 7.952C68.2778 8.12 68.4338 8.288 68.5658 8.492L69.2498 9.488ZM66.2018 6.944C67.1378 6.944 67.4138 6.452 67.4138 5.9C67.4138 5.348 67.1258 4.868 66.2618 4.868H65.0858V6.944H66.2018ZM73.3712 3.116C75.8312 3.116 77.2352 4.724 77.2352 7.028C77.2352 9.296 75.9032 11 73.4432 11H71.4032C70.8392 11 70.4432 10.568 70.4432 10.004V4.112C70.4432 3.548 70.8392 3.116 71.4032 3.116H73.3712ZM73.4432 9.188C74.8832 9.188 75.3032 8.192 75.3032 7.028C75.3032 5.816 74.8232 4.928 73.3712 4.928H72.3512V9.188H73.4432Z" fill="#5C7069"/>
</svg>
