<svg width="58" height="14" viewBox="0 0 58 14" fill="none" xmlns="http://www.w3.org/2000/svg">
<rect width="58" height="14" rx="7" fill="#CCA633"/>
<path d="M8.37931 3.116C10.3593 3.116 11.3193 4.568 11.3193 5.972C11.3193 7.544 10.1793 8.864 8.43931 8.864H7.19131V10.004C7.19131 10.568 6.79531 11 6.23131 11C5.66731 11 5.27131 10.568 5.27131 10.004V4.112C5.27131 3.548 5.66731 3.116 6.23131 3.116H8.37931ZM8.16331 7.076C9.12331 7.076 9.39931 6.584 9.39931 5.972C9.39931 5.36 9.11131 4.892 8.22331 4.892H7.19131V7.076H8.16331ZM16.6131 9.188C17.1771 9.188 17.5731 9.56 17.5731 10.1C17.5731 10.628 17.1771 11 16.6131 11H13.1571C12.5931 11 12.1971 10.568 12.1971 10.004V4.112C12.1971 3.548 12.5931 3.116 13.1571 3.116H16.5531C17.1171 3.116 17.5131 3.488 17.5131 4.028C17.5131 4.556 17.1171 4.928 16.5531 4.928H14.0691V6.164H15.9771C16.4931 6.164 16.8771 6.512 16.8771 7.016C16.8771 7.508 16.4931 7.856 15.9771 7.856H14.0691V9.188H16.6131ZM24.4167 3.116C24.9807 3.116 25.3767 3.548 25.3767 4.112V10.004C25.3767 10.568 24.9807 11 24.4167 11C24.0927 11 23.8407 10.88 23.6607 10.664L20.4687 6.692V10.004C20.4687 10.568 20.0727 11 19.5087 11C18.9447 11 18.5487 10.568 18.5487 10.004V4.112C18.5487 3.548 18.9447 3.116 19.5087 3.116C19.8567 3.116 20.0847 3.272 20.3247 3.56L23.4567 7.568V4.112C23.4567 3.548 23.8527 3.116 24.4167 3.116ZM29.4571 3.116C31.9171 3.116 33.3211 4.724 33.3211 7.028C33.3211 9.296 31.9891 11 29.5291 11H27.4891C26.9251 11 26.5291 10.568 26.5291 10.004V4.112C26.5291 3.548 26.9251 3.116 27.4891 3.116H29.4571ZM29.5291 9.188C30.9691 9.188 31.3891 8.192 31.3891 7.028C31.3891 5.816 30.9091 4.928 29.4571 4.928H28.4371V9.188H29.5291ZM35.3418 3.116C35.9058 3.116 36.3018 3.548 36.3018 4.112V10.004C36.3018 10.568 35.9058 11 35.3418 11C34.7778 11 34.3818 10.568 34.3818 10.004V4.112C34.3818 3.548 34.7778 3.116 35.3418 3.116ZM43.3776 3.116C43.9416 3.116 44.3376 3.548 44.3376 4.112V10.004C44.3376 10.568 43.9416 11 43.3776 11C43.0536 11 42.8016 10.88 42.6216 10.664L39.4296 6.692V10.004C39.4296 10.568 39.0336 11 38.4696 11C37.9056 11 37.5096 10.568 37.5096 10.004V4.112C37.5096 3.548 37.9056 3.116 38.4696 3.116C38.8176 3.116 39.0456 3.272 39.2856 3.56L42.4176 7.568V4.112C42.4176 3.548 42.8136 3.116 43.3776 3.116ZM52.0301 6.296C52.5461 6.296 52.8461 6.548 52.8461 7.088V8.048C52.8461 10.088 51.0581 11.096 49.2341 11.096C47.1581 11.096 45.3341 9.584 45.3341 7.1C45.3341 4.652 47.0621 3.02 49.3301 3.02C50.4701 3.02 51.4181 3.428 51.8381 3.836C52.2701 4.232 52.2581 4.7 51.9701 5.096C51.6461 5.54 51.1301 5.54 50.7101 5.264C50.3861 5.036 49.9061 4.772 49.2941 4.772C48.0821 4.772 47.2781 5.672 47.2781 7.064C47.2781 8.504 48.2141 9.344 49.4141 9.344C50.3861 9.344 50.9981 8.792 50.9981 7.976V7.88H50.1581C49.6661 7.88 49.2821 7.628 49.2821 7.088C49.2821 6.548 49.6661 6.296 50.1581 6.296H52.0301Z" fill="#394642"/>
</svg>
