<svg width="90" height="14" viewBox="0 0 90 14" fill="none" xmlns="http://www.w3.org/2000/svg">
<rect width="90" height="14" rx="7" fill="#CCA633"/>
<path d="M24.3793 3.116C26.3593 3.116 27.3193 4.568 27.3193 5.972C27.3193 7.544 26.1793 8.864 24.4393 8.864H23.1913V10.004C23.1913 10.568 22.7953 11 22.2313 11C21.6673 11 21.2713 10.568 21.2713 10.004V4.112C21.2713 3.548 21.6673 3.116 22.2313 3.116H24.3793ZM24.1633 7.076C25.1233 7.076 25.3993 6.584 25.3993 5.972C25.3993 5.36 25.1113 4.892 24.2233 4.892H23.1913V7.076H24.1633ZM32.6131 9.188C33.1771 9.188 33.5731 9.56 33.5731 10.1C33.5731 10.628 33.1771 11 32.6131 11H29.1571C28.5931 11 28.1971 10.568 28.1971 10.004V4.112C28.1971 3.548 28.5931 3.116 29.1571 3.116H32.5531C33.1171 3.116 33.5131 3.488 33.5131 4.028C33.5131 4.556 33.1171 4.928 32.5531 4.928H30.0691V6.164H31.9771C32.4931 6.164 32.8771 6.512 32.8771 7.016C32.8771 7.508 32.4931 7.856 31.9771 7.856H30.0691V9.188H32.6131ZM40.4167 3.116C40.9807 3.116 41.3767 3.548 41.3767 4.112V10.004C41.3767 10.568 40.9807 11 40.4167 11C40.0927 11 39.8407 10.88 39.6607 10.664L36.4687 6.692V10.004C36.4687 10.568 36.0727 11 35.5087 11C34.9447 11 34.5487 10.568 34.5487 10.004V4.112C34.5487 3.548 34.9447 3.116 35.5087 3.116C35.8567 3.116 36.0847 3.272 36.3247 3.56L39.4567 7.568V4.112C39.4567 3.548 39.8527 3.116 40.4167 3.116ZM45.4571 3.116C47.9171 3.116 49.3211 4.724 49.3211 7.028C49.3211 9.296 47.9891 11 45.5291 11H43.4891C42.9251 11 42.5291 10.568 42.5291 10.004V4.112C42.5291 3.548 42.9251 3.116 43.4891 3.116H45.4571ZM45.5291 9.188C46.9691 9.188 47.3891 8.192 47.3891 7.028C47.3891 5.816 46.9091 4.928 45.4571 4.928H44.4371V9.188H45.5291ZM51.3418 3.116C51.9058 3.116 52.3018 3.548 52.3018 4.112V10.004C52.3018 10.568 51.9058 11 51.3418 11C50.7778 11 50.3818 10.568 50.3818 10.004V4.112C50.3818 3.548 50.7778 3.116 51.3418 3.116ZM59.3776 3.116C59.9416 3.116 60.3376 3.548 60.3376 4.112V10.004C60.3376 10.568 59.9416 11 59.3776 11C59.0536 11 58.8016 10.88 58.6216 10.664L55.4296 6.692V10.004C55.4296 10.568 55.0336 11 54.4696 11C53.9056 11 53.5096 10.568 53.5096 10.004V4.112C53.5096 3.548 53.9056 3.116 54.4696 3.116C54.8176 3.116 55.0456 3.272 55.2856 3.56L58.4176 7.568V4.112C58.4176 3.548 58.8136 3.116 59.3776 3.116ZM68.0301 6.296C68.5461 6.296 68.8461 6.548 68.8461 7.088V8.048C68.8461 10.088 67.0581 11.096 65.2341 11.096C63.1581 11.096 61.3341 9.584 61.3341 7.1C61.3341 4.652 63.0621 3.02 65.3301 3.02C66.4701 3.02 67.4181 3.428 67.8381 3.836C68.2701 4.232 68.2581 4.7 67.9701 5.096C67.6461 5.54 67.1301 5.54 66.7101 5.264C66.3861 5.036 65.9061 4.772 65.2941 4.772C64.0821 4.772 63.2781 5.672 63.2781 7.064C63.2781 8.504 64.2141 9.344 65.4141 9.344C66.3861 9.344 66.9981 8.792 66.9981 7.976V7.88H66.1581C65.6661 7.88 65.2821 7.628 65.2821 7.088C65.2821 6.548 65.6661 6.296 66.1581 6.296H68.0301Z" fill="#394642"/>
</svg>
