<svg width="56" height="14" viewBox="0 0 56 14" fill="none" xmlns="http://www.w3.org/2000/svg">
<rect width="56" height="14" rx="7" fill="#A3FF55"/>
<path d="M12.4002 9.488C12.7002 9.944 12.6042 10.508 12.1722 10.82C11.7282 11.132 11.1522 11.036 10.8282 10.568L10.0362 9.416C9.79623 9.056 9.46023 8.492 8.94423 8.492H8.23623V10.004C8.23623 10.568 7.84023 11 7.27623 11C6.71223 11 6.31623 10.568 6.31623 10.004V4.112C6.31623 3.548 6.71223 3.116 7.27623 3.116H9.62823C11.5362 3.116 12.4602 4.34 12.4602 5.684C12.4602 6.56 12.0882 7.46 11.2362 7.952C11.4282 8.12 11.5842 8.288 11.7162 8.492L12.4002 9.488ZM9.35223 6.944C10.2882 6.944 10.5642 6.452 10.5642 5.9C10.5642 5.348 10.2762 4.868 9.41223 4.868H8.23623V6.944H9.35223ZM20.3856 9.656C20.6136 10.184 20.3736 10.712 19.8576 10.928C19.3416 11.144 18.8016 10.892 18.5976 10.352L18.3336 9.68H15.3816L15.1296 10.352C14.9256 10.892 14.3856 11.144 13.8696 10.928C13.3416 10.712 13.1136 10.184 13.3416 9.656L15.9216 3.704C16.1256 3.248 16.4616 3.02 16.8576 3.02C17.2656 3.02 17.6016 3.248 17.8056 3.704L20.3856 9.656ZM15.9816 8.132H17.7456L16.8576 5.828L15.9816 8.132ZM27.1491 3.116C27.7131 3.116 28.1091 3.548 28.1091 4.112V10.004C28.1091 10.568 27.7131 11 27.1491 11C26.8251 11 26.5731 10.88 26.3931 10.664L23.2011 6.692V10.004C23.2011 10.568 22.8051 11 22.2411 11C21.6771 11 21.2811 10.568 21.2811 10.004V4.112C21.2811 3.548 21.6771 3.116 22.2411 3.116C22.5891 3.116 22.8171 3.272 23.0571 3.56L26.1891 7.568V4.112C26.1891 3.548 26.5851 3.116 27.1491 3.116ZM35.7055 9.764C35.9095 10.34 35.5735 10.832 35.0335 10.964C34.5295 11.084 34.0615 10.796 33.8575 10.256L33.2935 8.924C33.0415 8.348 32.7775 7.964 31.9255 7.964H31.1815V10.004C31.1815 10.568 30.7855 11 30.2215 11C29.6575 11 29.2615 10.568 29.2615 10.004V4.112C29.2615 3.548 29.6575 3.116 30.2215 3.116C30.7855 3.116 31.1815 3.548 31.1815 4.112V6.164H31.7335C32.4415 6.164 32.7175 5.876 32.9935 5.192L33.5455 3.86C33.7495 3.32 34.1935 3.008 34.7335 3.164C35.2735 3.308 35.5975 3.8 35.3935 4.352L34.8295 5.732C34.6015 6.224 34.2655 6.62 33.7375 6.8C34.4455 7.112 34.8655 7.736 35.1415 8.408L35.7055 9.764ZM41.0955 9.188C41.6595 9.188 42.0555 9.56 42.0555 10.1C42.0555 10.628 41.6595 11 41.0955 11H37.6395C37.0755 11 36.6795 10.568 36.6795 10.004V4.112C36.6795 3.548 37.0755 3.116 37.6395 3.116H41.0355C41.5995 3.116 41.9955 3.488 41.9955 4.028C41.9955 4.556 41.5995 4.928 41.0355 4.928H38.5515V6.164H40.4595C40.9755 6.164 41.3595 6.512 41.3595 7.016C41.3595 7.508 40.9755 7.856 40.4595 7.856H38.5515V9.188H41.0955ZM45.9591 3.116C48.4191 3.116 49.8231 4.724 49.8231 7.028C49.8231 9.296 48.4911 11 46.0311 11H43.9911C43.4271 11 43.0311 10.568 43.0311 10.004V4.112C43.0311 3.548 43.4271 3.116 43.9911 3.116H45.9591ZM46.0311 9.188C47.4711 9.188 47.8911 8.192 47.8911 7.028C47.8911 5.816 47.4111 4.928 45.9591 4.928H44.9391V9.188H46.0311Z" fill="#394642"/>
</svg>
