<svg width="90" height="14" viewBox="0 0 90 14" fill="none" xmlns="http://www.w3.org/2000/svg">
<rect width="90" height="14" rx="7" fill="#A3FF55"/>
<path d="M29.4002 9.488C29.7002 9.944 29.6042 10.508 29.1722 10.82C28.7282 11.132 28.1522 11.036 27.8282 10.568L27.0362 9.416C26.7962 9.056 26.4602 8.492 25.9442 8.492H25.2362V10.004C25.2362 10.568 24.8402 11 24.2762 11C23.7122 11 23.3162 10.568 23.3162 10.004V4.112C23.3162 3.548 23.7122 3.116 24.2762 3.116H26.6282C28.5362 3.116 29.4602 4.34 29.4602 5.684C29.4602 6.56 29.0882 7.46 28.2362 7.952C28.4282 8.12 28.5842 8.288 28.7162 8.492L29.4002 9.488ZM26.3522 6.944C27.2882 6.944 27.5642 6.452 27.5642 5.9C27.5642 5.348 27.2762 4.868 26.4122 4.868H25.2362V6.944H26.3522ZM37.3856 9.656C37.6136 10.184 37.3736 10.712 36.8576 10.928C36.3416 11.144 35.8016 10.892 35.5976 10.352L35.3336 9.68H32.3816L32.1296 10.352C31.9256 10.892 31.3856 11.144 30.8696 10.928C30.3416 10.712 30.1136 10.184 30.3416 9.656L32.9216 3.704C33.1256 3.248 33.4616 3.02 33.8576 3.02C34.2656 3.02 34.6016 3.248 34.8056 3.704L37.3856 9.656ZM32.9816 8.132H34.7456L33.8576 5.828L32.9816 8.132ZM44.1491 3.116C44.7131 3.116 45.1091 3.548 45.1091 4.112V10.004C45.1091 10.568 44.7131 11 44.1491 11C43.8251 11 43.5731 10.88 43.3931 10.664L40.2011 6.692V10.004C40.2011 10.568 39.8051 11 39.2411 11C38.6771 11 38.2811 10.568 38.2811 10.004V4.112C38.2811 3.548 38.6771 3.116 39.2411 3.116C39.5891 3.116 39.8171 3.272 40.0571 3.56L43.1891 7.568V4.112C43.1891 3.548 43.5851 3.116 44.1491 3.116ZM52.7055 9.764C52.9095 10.34 52.5735 10.832 52.0335 10.964C51.5295 11.084 51.0615 10.796 50.8575 10.256L50.2935 8.924C50.0415 8.348 49.7775 7.964 48.9255 7.964H48.1815V10.004C48.1815 10.568 47.7855 11 47.2215 11C46.6575 11 46.2615 10.568 46.2615 10.004V4.112C46.2615 3.548 46.6575 3.116 47.2215 3.116C47.7855 3.116 48.1815 3.548 48.1815 4.112V6.164H48.7335C49.4415 6.164 49.7175 5.876 49.9935 5.192L50.5455 3.86C50.7495 3.32 51.1935 3.008 51.7335 3.164C52.2735 3.308 52.5975 3.8 52.3935 4.352L51.8295 5.732C51.6015 6.224 51.2655 6.62 50.7375 6.8C51.4455 7.112 51.8655 7.736 52.1415 8.408L52.7055 9.764ZM58.0955 9.188C58.6595 9.188 59.0555 9.56 59.0555 10.1C59.0555 10.628 58.6595 11 58.0955 11H54.6395C54.0755 11 53.6795 10.568 53.6795 10.004V4.112C53.6795 3.548 54.0755 3.116 54.6395 3.116H58.0355C58.5995 3.116 58.9955 3.488 58.9955 4.028C58.9955 4.556 58.5995 4.928 58.0355 4.928H55.5515V6.164H57.4595C57.9755 6.164 58.3595 6.512 58.3595 7.016C58.3595 7.508 57.9755 7.856 57.4595 7.856H55.5515V9.188H58.0955ZM62.9591 3.116C65.4191 3.116 66.8231 4.724 66.8231 7.028C66.8231 9.296 65.4911 11 63.0311 11H60.9911C60.4271 11 60.0311 10.568 60.0311 10.004V4.112C60.0311 3.548 60.4271 3.116 60.9911 3.116H62.9591ZM63.0311 9.188C64.4711 9.188 64.8911 8.192 64.8911 7.028C64.8911 5.816 64.4111 4.928 62.9591 4.928H61.9391V9.188H63.0311Z" fill="#394642"/>
</svg>
