<svg width="90" height="14" viewBox="0 0 90 14" fill="none" xmlns="http://www.w3.org/2000/svg">
<rect width="90" height="14" rx="7" fill="#C1FF8C"/>
<path d="M22.9071 9.656C23.1351 10.184 22.8951 10.712 22.3791 10.928C21.8631 11.144 21.3231 10.892 21.1191 10.352L20.8551 9.68H17.9031L17.6511 10.352C17.4471 10.892 16.9071 11.144 16.3911 10.928C15.8631 10.712 15.6351 10.184 15.8631 9.656L18.4431 3.704C18.6471 3.248 18.9831 3.02 19.3791 3.02C19.7871 3.02 20.1231 3.248 20.3271 3.704L22.9071 9.656ZM18.5031 8.132H20.2671L19.3791 5.828L18.5031 8.132ZM26.9106 3.116C28.8906 3.116 29.8506 4.568 29.8506 5.972C29.8506 7.544 28.7106 8.864 26.9706 8.864H25.7226V10.004C25.7226 10.568 25.3266 11 24.7626 11C24.1986 11 23.8026 10.568 23.8026 10.004V4.112C23.8026 3.548 24.1986 3.116 24.7626 3.116H26.9106ZM26.6946 7.076C27.6546 7.076 27.9306 6.584 27.9306 5.972C27.9306 5.36 27.6426 4.892 26.7546 4.892H25.7226V7.076H26.6946ZM33.8363 3.116C35.8163 3.116 36.7763 4.568 36.7763 5.972C36.7763 7.544 35.6363 8.864 33.8963 8.864H32.6483V10.004C32.6483 10.568 32.2523 11 31.6883 11C31.1243 11 30.7283 10.568 30.7283 10.004V4.112C30.7283 3.548 31.1243 3.116 31.6883 3.116H33.8363ZM33.6203 7.076C34.5803 7.076 34.8563 6.584 34.8563 5.972C34.8563 5.36 34.5683 4.892 33.6803 4.892H32.6483V7.076H33.6203ZM43.7381 9.488C44.0381 9.944 43.9421 10.508 43.5101 10.82C43.0661 11.132 42.4901 11.036 42.1661 10.568L41.3741 9.416C41.1341 9.056 40.7981 8.492 40.2821 8.492H39.5741V10.004C39.5741 10.568 39.1781 11 38.6141 11C38.0501 11 37.6541 10.568 37.6541 10.004V4.112C37.6541 3.548 38.0501 3.116 38.6141 3.116H40.9661C42.8741 3.116 43.7981 4.34 43.7981 5.684C43.7981 6.56 43.4261 7.46 42.5741 7.952C42.7661 8.12 42.9221 8.288 43.0541 8.492L43.7381 9.488ZM40.6901 6.944C41.6261 6.944 41.9021 6.452 41.9021 5.9C41.9021 5.348 41.6141 4.868 40.7501 4.868H39.5741V6.944H40.6901ZM48.5622 11.096C46.1982 11.096 44.4942 9.428 44.4942 7.076C44.4942 4.712 46.1982 3.02 48.5622 3.02C50.9262 3.02 52.6302 4.712 52.6302 7.076C52.6302 9.428 50.9382 11.096 48.5622 11.096ZM48.5622 9.272C49.8462 9.272 50.6862 8.348 50.6862 7.076C50.6862 5.792 49.8462 4.844 48.5622 4.844C47.2902 4.844 46.4382 5.792 46.4382 7.076C46.4382 8.348 47.2902 9.272 48.5622 9.272ZM59.379 3.2C59.895 3.416 60.099 3.956 59.895 4.484L57.483 10.448C57.327 10.832 57.015 11.048 56.583 11.048C56.151 11.048 55.839 10.832 55.683 10.448L53.271 4.484C53.067 3.956 53.283 3.416 53.799 3.2C54.315 2.984 54.891 3.176 55.059 3.704L56.583 8.084L58.107 3.728C58.287 3.176 58.851 2.972 59.379 3.2ZM65.2967 9.188C65.8607 9.188 66.2567 9.56 66.2567 10.1C66.2567 10.628 65.8607 11 65.2967 11H61.8407C61.2767 11 60.8807 10.568 60.8807 10.004V4.112C60.8807 3.548 61.2767 3.116 61.8407 3.116H65.2367C65.8007 3.116 66.1967 3.488 66.1967 4.028C66.1967 4.556 65.8007 4.928 65.2367 4.928H62.7527V6.164H64.6607C65.1767 6.164 65.5607 6.512 65.5607 7.016C65.5607 7.508 65.1767 7.856 64.6607 7.856H62.7527V9.188H65.2967ZM70.1603 3.116C72.6203 3.116 74.0243 4.724 74.0243 7.028C74.0243 9.296 72.6923 11 70.2323 11H68.1923C67.6283 11 67.2323 10.568 67.2323 10.004V4.112C67.2323 3.548 67.6283 3.116 68.1923 3.116H70.1603ZM70.2323 9.188C71.6723 9.188 72.0923 8.192 72.0923 7.028C72.0923 5.816 71.6123 4.928 70.1603 4.928H69.1403V9.188H70.2323Z" fill="#394642"/>
</svg>
