<svg width="68" height="14" viewBox="0 0 68 14" fill="none" xmlns="http://www.w3.org/2000/svg">
<rect width="68" height="14" rx="7" fill="#FFD966"/>
<path d="M13.0631 9.656L13.5191 10.112C13.9151 10.508 13.9271 11.072 13.5431 11.456C13.1591 11.828 12.5951 11.816 12.2111 11.432L11.5631 10.772C11.0471 10.988 10.4831 11.096 9.85909 11.096C7.49509 11.096 5.79109 9.428 5.79109 7.076C5.79109 4.712 7.49509 3.02 9.85909 3.02C12.2231 3.02 13.9271 4.712 13.9271 7.076C13.9271 8.084 13.6151 8.972 13.0631 9.656ZM7.73509 7.076C7.73509 8.348 8.58709 9.272 9.85909 9.272C11.1431 9.272 11.9831 8.348 11.9831 7.076C11.9831 5.792 11.1431 4.844 9.85909 4.844C8.58709 4.844 7.73509 5.792 7.73509 7.076ZM20.7314 3.116C21.2954 3.116 21.6914 3.548 21.6914 4.112V7.76C21.6914 9.98 20.2394 11.084 18.2954 11.096C16.3754 11.108 14.9114 9.992 14.9114 7.76V4.112C14.9114 3.548 15.2954 3.116 15.8714 3.116C16.4354 3.116 16.8314 3.548 16.8314 4.112V7.64C16.8314 8.876 17.4194 9.332 18.2954 9.332C19.1714 9.332 19.7714 8.876 19.7714 7.64V4.112C19.7714 3.548 20.1674 3.116 20.7314 3.116ZM29.6141 9.656C29.8421 10.184 29.6021 10.712 29.0861 10.928C28.5701 11.144 28.0301 10.892 27.8261 10.352L27.5621 9.68H24.6101L24.3581 10.352C24.1541 10.892 23.6141 11.144 23.0981 10.928C22.5701 10.712 22.3421 10.184 22.5701 9.656L25.1501 3.704C25.3541 3.248 25.6901 3.02 26.0861 3.02C26.4941 3.02 26.8301 3.248 27.0341 3.704L29.6141 9.656ZM25.2101 8.132H26.9741L26.0861 5.828L25.2101 8.132ZM34.7936 9.188C35.3576 9.188 35.7536 9.56 35.7536 10.1C35.7536 10.628 35.3576 11 34.7936 11H31.4576C30.9296 11 30.5096 10.58 30.5096 10.004V4.112C30.5096 3.548 30.9056 3.116 31.4696 3.116C32.0336 3.116 32.4296 3.548 32.4296 4.112V9.188H34.7936ZM37.6231 3.116C38.1871 3.116 38.5831 3.548 38.5831 4.112V10.004C38.5831 10.568 38.1871 11 37.6231 11C37.0591 11 36.6631 10.568 36.6631 10.004V4.112C36.6631 3.548 37.0591 3.116 37.6231 3.116ZM44.0388 4.928H41.7108V6.32H43.3788C43.9428 6.32 44.3628 6.656 44.3628 7.22C44.3628 7.772 43.9428 8.108 43.3788 8.108H41.7108V10.004C41.7108 10.568 41.3148 11 40.7508 11C40.1868 11 39.7908 10.568 39.7908 10.004V4.112C39.7908 3.548 40.1868 3.116 40.7508 3.116H44.0388C44.6028 3.116 44.9988 3.5 44.9988 4.028C44.9988 4.568 44.6028 4.928 44.0388 4.928ZM46.8809 3.116C47.4449 3.116 47.8409 3.548 47.8409 4.112V10.004C47.8409 10.568 47.4449 11 46.8809 11C46.3169 11 45.9209 10.568 45.9209 10.004V4.112C45.9209 3.548 46.3169 3.116 46.8809 3.116ZM53.4647 9.188C54.0287 9.188 54.4247 9.56 54.4247 10.1C54.4247 10.628 54.0287 11 53.4647 11H50.0087C49.4447 11 49.0487 10.568 49.0487 10.004V4.112C49.0487 3.548 49.4447 3.116 50.0087 3.116H53.4047C53.9687 3.116 54.3647 3.488 54.3647 4.028C54.3647 4.556 53.9687 4.928 53.4047 4.928H50.9207V6.164H52.8287C53.3447 6.164 53.7287 6.512 53.7287 7.016C53.7287 7.508 53.3447 7.856 52.8287 7.856H50.9207V9.188H53.4647ZM58.3282 3.116C60.7882 3.116 62.1922 4.724 62.1922 7.028C62.1922 9.296 60.8602 11 58.4002 11H56.3602C55.7962 11 55.4002 10.568 55.4002 10.004V4.112C55.4002 3.548 55.7962 3.116 56.3602 3.116H58.3282ZM58.4002 9.188C59.8402 9.188 60.2602 8.192 60.2602 7.028C60.2602 5.816 59.7802 4.928 58.3282 4.928H57.3082V9.188H58.4002Z" fill="#394642"/>
</svg>
