<svg width="90" height="14" viewBox="0 0 90 14" fill="none" xmlns="http://www.w3.org/2000/svg">
<rect width="90" height="14" rx="7" fill="#FFD966"/>
<path d="M24.0631 9.656L24.5191 10.112C24.9151 10.508 24.9271 11.072 24.5431 11.456C24.1591 11.828 23.5951 11.816 23.2111 11.432L22.5631 10.772C22.0471 10.988 21.4831 11.096 20.8591 11.096C18.4951 11.096 16.7911 9.428 16.7911 7.076C16.7911 4.712 18.4951 3.02 20.8591 3.02C23.2231 3.02 24.9271 4.712 24.9271 7.076C24.9271 8.084 24.6151 8.972 24.0631 9.656ZM18.7351 7.076C18.7351 8.348 19.5871 9.272 20.8591 9.272C22.1431 9.272 22.9831 8.348 22.9831 7.076C22.9831 5.792 22.1431 4.844 20.8591 4.844C19.5871 4.844 18.7351 5.792 18.7351 7.076ZM31.7314 3.116C32.2954 3.116 32.6914 3.548 32.6914 4.112V7.76C32.6914 9.98 31.2394 11.084 29.2954 11.096C27.3754 11.108 25.9114 9.992 25.9114 7.76V4.112C25.9114 3.548 26.2954 3.116 26.8714 3.116C27.4354 3.116 27.8314 3.548 27.8314 4.112V7.64C27.8314 8.876 28.4194 9.332 29.2954 9.332C30.1714 9.332 30.7714 8.876 30.7714 7.64V4.112C30.7714 3.548 31.1674 3.116 31.7314 3.116ZM40.6141 9.656C40.8421 10.184 40.6021 10.712 40.0861 10.928C39.5701 11.144 39.0301 10.892 38.8261 10.352L38.5621 9.68H35.6101L35.3581 10.352C35.1541 10.892 34.6141 11.144 34.0981 10.928C33.5701 10.712 33.3421 10.184 33.5701 9.656L36.1501 3.704C36.3541 3.248 36.6901 3.02 37.0861 3.02C37.4941 3.02 37.8301 3.248 38.0341 3.704L40.6141 9.656ZM36.2101 8.132H37.9741L37.0861 5.828L36.2101 8.132ZM45.7936 9.188C46.3576 9.188 46.7536 9.56 46.7536 10.1C46.7536 10.628 46.3576 11 45.7936 11H42.4576C41.9296 11 41.5096 10.58 41.5096 10.004V4.112C41.5096 3.548 41.9056 3.116 42.4696 3.116C43.0336 3.116 43.4296 3.548 43.4296 4.112V9.188H45.7936ZM48.6231 3.116C49.1871 3.116 49.5831 3.548 49.5831 4.112V10.004C49.5831 10.568 49.1871 11 48.6231 11C48.0591 11 47.6631 10.568 47.6631 10.004V4.112C47.6631 3.548 48.0591 3.116 48.6231 3.116ZM55.0388 4.928H52.7108V6.32H54.3788C54.9428 6.32 55.3628 6.656 55.3628 7.22C55.3628 7.772 54.9428 8.108 54.3788 8.108H52.7108V10.004C52.7108 10.568 52.3148 11 51.7508 11C51.1868 11 50.7908 10.568 50.7908 10.004V4.112C50.7908 3.548 51.1868 3.116 51.7508 3.116H55.0388C55.6028 3.116 55.9988 3.5 55.9988 4.028C55.9988 4.568 55.6028 4.928 55.0388 4.928ZM57.8809 3.116C58.4449 3.116 58.8409 3.548 58.8409 4.112V10.004C58.8409 10.568 58.4449 11 57.8809 11C57.3169 11 56.9209 10.568 56.9209 10.004V4.112C56.9209 3.548 57.3169 3.116 57.8809 3.116ZM64.4647 9.188C65.0287 9.188 65.4247 9.56 65.4247 10.1C65.4247 10.628 65.0287 11 64.4647 11H61.0087C60.4447 11 60.0487 10.568 60.0487 10.004V4.112C60.0487 3.548 60.4447 3.116 61.0087 3.116H64.4047C64.9687 3.116 65.3647 3.488 65.3647 4.028C65.3647 4.556 64.9687 4.928 64.4047 4.928H61.9207V6.164H63.8287C64.3447 6.164 64.7287 6.512 64.7287 7.016C64.7287 7.508 64.3447 7.856 63.8287 7.856H61.9207V9.188H64.4647ZM69.3282 3.116C71.7882 3.116 73.1922 4.724 73.1922 7.028C73.1922 9.296 71.8602 11 69.4002 11H67.3602C66.7962 11 66.4002 10.568 66.4002 10.004V4.112C66.4002 3.548 66.7962 3.116 67.3602 3.116H69.3282ZM69.4002 9.188C70.8402 9.188 71.2602 8.192 71.2602 7.028C71.2602 5.816 70.7802 4.928 69.3282 4.928H68.3082V9.188H69.4002Z" fill="#394642"/>
</svg>
