<svg width="50" height="14" viewBox="0 0 50 14" fill="none" xmlns="http://www.w3.org/2000/svg">
<rect width="50" height="14" rx="7" fill="#FF66AB"/>
<path d="M11.9713 9.188C12.5353 9.188 12.9313 9.56 12.9313 10.1C12.9313 10.628 12.5353 11 11.9713 11H8.63533C8.10733 11 7.68733 10.58 7.68733 10.004V4.112C7.68733 3.548 8.08333 3.116 8.64733 3.116C9.21133 3.116 9.60733 3.548 9.60733 4.112V9.188H11.9713ZM16.99 11.096C14.626 11.096 12.922 9.428 12.922 7.076C12.922 4.712 14.626 3.02 16.99 3.02C19.354 3.02 21.058 4.712 21.058 7.076C21.058 9.428 19.366 11.096 16.99 11.096ZM16.99 9.272C18.274 9.272 19.114 8.348 19.114 7.076C19.114 5.792 18.274 4.844 16.99 4.844C15.718 4.844 14.866 5.792 14.866 7.076C14.866 8.348 15.718 9.272 16.99 9.272ZM27.8067 3.2C28.3227 3.416 28.5267 3.956 28.3227 4.484L25.9107 10.448C25.7547 10.832 25.4427 11.048 25.0107 11.048C24.5787 11.048 24.2667 10.832 24.1107 10.448L21.6987 4.484C21.4947 3.956 21.7107 3.416 22.2267 3.2C22.7427 2.984 23.3187 3.176 23.4867 3.704L25.0107 8.084L26.5347 3.728C26.7147 3.176 27.2787 2.972 27.8067 3.2ZM33.7244 9.188C34.2884 9.188 34.6844 9.56 34.6844 10.1C34.6844 10.628 34.2884 11 33.7244 11H30.2684C29.7044 11 29.3084 10.568 29.3084 10.004V4.112C29.3084 3.548 29.7044 3.116 30.2684 3.116H33.6644C34.2284 3.116 34.6244 3.488 34.6244 4.028C34.6244 4.556 34.2284 4.928 33.6644 4.928H31.1804V6.164H33.0884C33.6044 6.164 33.9884 6.512 33.9884 7.016C33.9884 7.508 33.6044 7.856 33.0884 7.856H31.1804V9.188H33.7244ZM38.588 3.116C41.048 3.116 42.452 4.724 42.452 7.028C42.452 9.296 41.12 11 38.66 11H36.62C36.056 11 35.66 10.568 35.66 10.004V4.112C35.66 3.548 36.056 3.116 36.62 3.116H38.588ZM38.66 9.188C40.1 9.188 40.52 8.192 40.52 7.028C40.52 5.816 40.04 4.928 38.588 4.928H37.568V9.188H38.66Z" fill="#394642"/>
</svg>
