<svg width="90" height="14" viewBox="0 0 90 14" fill="none" xmlns="http://www.w3.org/2000/svg">
<rect width="90" height="14" rx="7" fill="#FF66AB"/>
<path d="M31.9713 9.188C32.5353 9.188 32.9313 9.56 32.9313 10.1C32.9313 10.628 32.5353 11 31.9713 11H28.6353C28.1073 11 27.6873 10.58 27.6873 10.004V4.112C27.6873 3.548 28.0833 3.116 28.6473 3.116C29.2113 3.116 29.6073 3.548 29.6073 4.112V9.188H31.9713ZM36.99 11.096C34.626 11.096 32.922 9.428 32.922 7.076C32.922 4.712 34.626 3.02 36.99 3.02C39.354 3.02 41.058 4.712 41.058 7.076C41.058 9.428 39.366 11.096 36.99 11.096ZM36.99 9.272C38.274 9.272 39.114 8.348 39.114 7.076C39.114 5.792 38.274 4.844 36.99 4.844C35.718 4.844 34.866 5.792 34.866 7.076C34.866 8.348 35.718 9.272 36.99 9.272ZM47.8067 3.2C48.3227 3.416 48.5267 3.956 48.3227 4.484L45.9107 10.448C45.7547 10.832 45.4427 11.048 45.0107 11.048C44.5787 11.048 44.2667 10.832 44.1107 10.448L41.6987 4.484C41.4947 3.956 41.7107 3.416 42.2267 3.2C42.7427 2.984 43.3187 3.176 43.4867 3.704L45.0107 8.084L46.5347 3.728C46.7147 3.176 47.2787 2.972 47.8067 3.2ZM53.7244 9.188C54.2884 9.188 54.6844 9.56 54.6844 10.1C54.6844 10.628 54.2884 11 53.7244 11H50.2684C49.7044 11 49.3084 10.568 49.3084 10.004V4.112C49.3084 3.548 49.7044 3.116 50.2684 3.116H53.6644C54.2284 3.116 54.6244 3.488 54.6244 4.028C54.6244 4.556 54.2284 4.928 53.6644 4.928H51.1804V6.164H53.0884C53.6044 6.164 53.9884 6.512 53.9884 7.016C53.9884 7.508 53.6044 7.856 53.0884 7.856H51.1804V9.188H53.7244ZM58.588 3.116C61.048 3.116 62.452 4.724 62.452 7.028C62.452 9.296 61.12 11 58.66 11H56.62C56.056 11 55.66 10.568 55.66 10.004V4.112C55.66 3.548 56.056 3.116 56.62 3.116H58.588ZM58.66 9.188C60.1 9.188 60.52 8.192 60.52 7.028C60.52 5.816 60.04 4.928 58.588 4.928H57.568V9.188H58.66Z" fill="#394642"/>
</svg>
