<svg width="90" height="14" viewBox="0 0 90 14" fill="none" xmlns="http://www.w3.org/2000/svg">
<rect width="90" height="14" rx="7" fill="#B8E0D3"/>
<path d="M21.1786 3.116C21.7426 3.116 22.1386 3.548 22.1386 4.112V7.76C22.1386 9.98 20.6866 11.084 18.7426 11.096C16.8226 11.108 15.3586 9.992 15.3586 7.76V4.112C15.3586 3.548 15.7426 3.116 16.3186 3.116C16.8826 3.116 17.2786 3.548 17.2786 4.112V7.64C17.2786 8.876 17.8666 9.332 18.7426 9.332C19.6186 9.332 20.2186 8.876 20.2186 7.64V4.112C20.2186 3.548 20.6146 3.116 21.1786 3.116ZM29.1374 3.116C29.7014 3.116 30.0974 3.548 30.0974 4.112V10.004C30.0974 10.568 29.7014 11 29.1374 11C28.8134 11 28.5614 10.88 28.3814 10.664L25.1894 6.692V10.004C25.1894 10.568 24.7934 11 24.2294 11C23.6654 11 23.2694 10.568 23.2694 10.004V4.112C23.2694 3.548 23.6654 3.116 24.2294 3.116C24.5774 3.116 24.8054 3.272 25.0454 3.56L28.1774 7.568V4.112C28.1774 3.548 28.5734 3.116 29.1374 3.116ZM37.3338 9.488C37.6338 9.944 37.5378 10.508 37.1058 10.82C36.6618 11.132 36.0858 11.036 35.7618 10.568L34.9698 9.416C34.7298 9.056 34.3938 8.492 33.8778 8.492H33.1698V10.004C33.1698 10.568 32.7738 11 32.2098 11C31.6458 11 31.2498 10.568 31.2498 10.004V4.112C31.2498 3.548 31.6458 3.116 32.2098 3.116H34.5618C36.4698 3.116 37.3938 4.34 37.3938 5.684C37.3938 6.56 37.0218 7.46 36.1698 7.952C36.3618 8.12 36.5178 8.288 36.6498 8.492L37.3338 9.488ZM34.2858 6.944C35.2218 6.944 35.4978 6.452 35.4978 5.9C35.4978 5.348 35.2098 4.868 34.3458 4.868H33.1698V6.944H34.2858ZM45.3192 9.656C45.5472 10.184 45.3072 10.712 44.7912 10.928C44.2752 11.144 43.7352 10.892 43.5312 10.352L43.2672 9.68H40.3152L40.0632 10.352C39.8592 10.892 39.3192 11.144 38.8032 10.928C38.2752 10.712 38.0472 10.184 38.2752 9.656L40.8552 3.704C41.0592 3.248 41.3952 3.02 41.7912 3.02C42.1992 3.02 42.5352 3.248 42.7392 3.704L45.3192 9.656ZM40.9152 8.132H42.6792L41.7912 5.828L40.9152 8.132ZM52.0827 3.116C52.6467 3.116 53.0427 3.548 53.0427 4.112V10.004C53.0427 10.568 52.6467 11 52.0827 11C51.7587 11 51.5067 10.88 51.3267 10.664L48.1347 6.692V10.004C48.1347 10.568 47.7387 11 47.1747 11C46.6107 11 46.2147 10.568 46.2147 10.004V4.112C46.2147 3.548 46.6107 3.116 47.1747 3.116C47.5227 3.116 47.7507 3.272 47.9907 3.56L51.1227 7.568V4.112C51.1227 3.548 51.5187 3.116 52.0827 3.116ZM60.6391 9.764C60.8431 10.34 60.5071 10.832 59.9671 10.964C59.4631 11.084 58.9951 10.796 58.7911 10.256L58.2271 8.924C57.9751 8.348 57.7111 7.964 56.8591 7.964H56.1151V10.004C56.1151 10.568 55.7191 11 55.1551 11C54.5911 11 54.1951 10.568 54.1951 10.004V4.112C54.1951 3.548 54.5911 3.116 55.1551 3.116C55.7191 3.116 56.1151 3.548 56.1151 4.112V6.164H56.6671C57.3751 6.164 57.6511 5.876 57.9271 5.192L58.4791 3.86C58.6831 3.32 59.1271 3.008 59.6671 3.164C60.2071 3.308 60.5311 3.8 60.3271 4.352L59.7631 5.732C59.5351 6.224 59.1991 6.62 58.6711 6.8C59.3791 7.112 59.7991 7.736 60.0751 8.408L60.6391 9.764ZM66.0291 9.188C66.5931 9.188 66.9891 9.56 66.9891 10.1C66.9891 10.628 66.5931 11 66.0291 11H62.5731C62.0091 11 61.6131 10.568 61.6131 10.004V4.112C61.6131 3.548 62.0091 3.116 62.5731 3.116H65.9691C66.5331 3.116 66.9291 3.488 66.9291 4.028C66.9291 4.556 66.5331 4.928 65.9691 4.928H63.4851V6.164H65.3931C65.9091 6.164 66.2931 6.512 66.2931 7.016C66.2931 7.508 65.9091 7.856 65.3931 7.856H63.4851V9.188H66.0291ZM70.8927 3.116C73.3527 3.116 74.7567 4.724 74.7567 7.028C74.7567 9.296 73.4247 11 70.9647 11H68.9247C68.3607 11 67.9647 10.568 67.9647 10.004V4.112C67.9647 3.548 68.3607 3.116 68.9247 3.116H70.8927ZM70.9647 9.188C72.4047 9.188 72.8247 8.192 72.8247 7.028C72.8247 5.816 72.3447 4.928 70.8927 4.928H69.8727V9.188H70.9647Z" fill="#394642"/>
</svg>
