<svg width="70" height="30" viewBox="0 0 70 30" fill="none" xmlns="http://www.w3.org/2000/svg">
<rect width="70" height="30" rx="15" fill="#93ACCE"/>
<path d="M28.25 23H23.7614V8.45455H28.4489C29.8598 8.45455 31.0672 8.74574 32.071 9.32812C33.0748 9.90578 33.8442 10.7367 34.3793 11.821C34.9143 12.9006 35.1818 14.1932 35.1818 15.6989C35.1818 17.214 34.9119 18.5185 34.3722 19.6122C33.8324 20.7012 33.0464 21.5393 32.0142 22.1264C30.982 22.7088 29.7273 23 28.25 23ZM25.5227 21.4375H28.1364C29.339 21.4375 30.3357 21.2055 31.1264 20.7415C31.9171 20.2775 32.5066 19.617 32.8949 18.7599C33.2831 17.9029 33.4773 16.8826 33.4773 15.6989C33.4773 14.5246 33.2855 13.5137 32.902 12.6662C32.5185 11.8139 31.9455 11.1605 31.1832 10.706C30.4209 10.2467 29.4716 10.017 28.3352 10.017H25.5227V21.4375ZM36.7354 10.017V8.45455H47.6445V10.017H43.0707V23H41.3093V10.017H36.7354Z" fill="white"/>
</svg>
