<svg width="70" height="30" viewBox="0 0 70 30" fill="none" xmlns="http://www.w3.org/2000/svg">
<rect width="70" height="30" rx="15" fill="#DF89B4"/>
<path d="M23.7614 23V8.45455H25.5227V14.9318H33.2784V8.45455H35.0398V23H33.2784V16.4943H25.5227V23H23.7614ZM38.5661 23V8.45455H43.4808C44.6172 8.45455 45.55 8.64867 46.2791 9.03693C47.0083 9.42045 47.5481 9.94839 47.8984 10.6207C48.2488 11.2931 48.424 12.0578 48.424 12.9148C48.424 13.7718 48.2488 14.5317 47.8984 15.1946C47.5481 15.8575 47.0107 16.3783 46.2862 16.7571C45.5618 17.1312 44.6361 17.3182 43.5092 17.3182H39.532V15.7273H43.4524C44.2289 15.7273 44.8539 15.6136 45.3274 15.3864C45.8056 15.1591 46.1513 14.8371 46.3643 14.4205C46.5821 13.9991 46.6911 13.4972 46.6911 12.9148C46.6911 12.3324 46.5821 11.8234 46.3643 11.3878C46.1465 10.9522 45.7985 10.616 45.3203 10.3793C44.8421 10.1378 44.21 10.017 43.424 10.017H40.3274V23H38.5661ZM45.4126 16.4659L48.9922 23H46.9467L43.424 16.4659H45.4126Z" fill="white"/>
</svg>
