<svg width="70" height="30" viewBox="0 0 70 30" fill="none" xmlns="http://www.w3.org/2000/svg">
<rect width="70" height="30" rx="15" fill="#9DC2C2"/>
<path d="M23.7614 23V8.45455H28.6761C29.8125 8.45455 30.7453 8.64867 31.4744 9.03693C32.2036 9.42045 32.7434 9.94839 33.0938 10.6207C33.4441 11.2931 33.6193 12.0578 33.6193 12.9148C33.6193 13.7718 33.4441 14.5317 33.0938 15.1946C32.7434 15.8575 32.206 16.3783 31.4815 16.7571C30.7571 17.1312 29.8314 17.3182 28.7045 17.3182H24.7273V15.7273H28.6477C29.4242 15.7273 30.0492 15.6136 30.5227 15.3864C31.0009 15.1591 31.3466 14.8371 31.5597 14.4205C31.7775 13.9991 31.8864 13.4972 31.8864 12.9148C31.8864 12.3324 31.7775 11.8234 31.5597 11.3878C31.3419 10.9522 30.9938 10.616 30.5156 10.3793C30.0374 10.1378 29.4053 10.017 28.6193 10.017H25.5227V23H23.7614ZM30.608 16.4659L34.1875 23H32.142L28.6193 16.4659H30.608ZM37.4066 8.45455L41.1566 14.5057H41.2702L45.0202 8.45455H47.0941L42.5202 15.7273L47.0941 23H45.0202L41.2702 17.0625H41.1566L37.4066 23H35.3327L40.0202 15.7273L35.3327 8.45455H37.4066Z" fill="white"/>
</svg>
