<svg width="70" height="30" viewBox="0 0 70 30" fill="none" xmlns="http://www.w3.org/2000/svg">
<rect width="70" height="30" rx="15" fill="#D9AEAE"/>
<path d="M31.7159 12.0909C31.6307 11.3712 31.285 10.8125 30.679 10.4148C30.0729 10.017 29.3295 9.81818 28.4489 9.81818C27.8049 9.81818 27.2415 9.92235 26.7585 10.1307C26.2803 10.339 25.9063 10.6255 25.6364 10.9901C25.3712 11.3546 25.2386 11.7689 25.2386 12.233C25.2386 12.6212 25.331 12.955 25.5156 13.2344C25.705 13.509 25.9465 13.7386 26.2401 13.9233C26.5336 14.1032 26.8414 14.2524 27.1634 14.3707C27.4853 14.4844 27.7812 14.5767 28.0511 14.6477L29.5284 15.0455C29.9072 15.1449 30.3286 15.2822 30.7926 15.4574C31.2614 15.6326 31.7088 15.8717 32.1349 16.1747C32.5658 16.473 32.9209 16.8565 33.2003 17.3253C33.4796 17.794 33.6193 18.3693 33.6193 19.0511C33.6193 19.8371 33.4134 20.5473 33.0014 21.1818C32.5942 21.8163 31.9976 22.3205 31.2116 22.6946C30.4304 23.0687 29.4811 23.2557 28.3636 23.2557C27.322 23.2557 26.42 23.0876 25.6577 22.7514C24.9001 22.4152 24.3035 21.9465 23.8679 21.3452C23.437 20.7438 23.1932 20.0455 23.1364 19.25H24.9545C25.0019 19.7992 25.1866 20.2538 25.5085 20.6136C25.8352 20.9687 26.2472 21.2339 26.7443 21.4091C27.2462 21.5795 27.786 21.6648 28.3636 21.6648C29.036 21.6648 29.6397 21.5559 30.1747 21.3381C30.7098 21.1155 31.1335 20.8078 31.446 20.4148C31.7585 20.017 31.9148 19.553 31.9148 19.0227C31.9148 18.5398 31.7798 18.1468 31.5099 17.8438C31.2401 17.5407 30.8849 17.2945 30.4446 17.1051C30.0043 16.9157 29.5284 16.75 29.017 16.608L27.2273 16.0966C26.0909 15.7699 25.1913 15.3035 24.5284 14.6974C23.8655 14.0914 23.5341 13.2983 23.5341 12.3182C23.5341 11.5038 23.7543 10.7936 24.1946 10.1875C24.6397 9.5767 25.2363 9.10322 25.9844 8.76705C26.7372 8.42614 27.5777 8.25568 28.5057 8.25568C29.4432 8.25568 30.2765 8.42377 31.0057 8.75994C31.7348 9.09138 32.3125 9.54593 32.7386 10.1236C33.1695 10.7012 33.3968 11.357 33.4205 12.0909H31.7159ZM41.0039 23H36.5153V8.45455H41.2028C42.6138 8.45455 43.8211 8.74574 44.8249 9.32812C45.8287 9.90578 46.5981 10.7367 47.1332 11.821C47.6682 12.9006 47.9357 14.1932 47.9357 15.6989C47.9357 17.214 47.6658 18.5185 47.1261 19.6122C46.5863 20.7012 45.8003 21.5393 44.7681 22.1264C43.7359 22.7088 42.4812 23 41.0039 23ZM38.2766 21.4375H40.8903C42.0929 21.4375 43.0896 21.2055 43.8803 20.7415C44.671 20.2775 45.2605 19.617 45.6488 18.7599C46.0371 17.9029 46.2312 16.8826 46.2312 15.6989C46.2312 14.5246 46.0394 13.5137 45.6559 12.6662C45.2724 11.8139 44.6995 11.1605 43.9371 10.706C43.1748 10.2467 42.2255 10.017 41.0891 10.017H38.2766V21.4375Z" fill="white"/>
</svg>
